SplineFontDB: 1.0
FontName: Essays1743-Bold
FullName: Essays 1743
FamilyName: Essays1743
Weight: Bold
Copyright: Created by John Stracke with PfaEdit 1.0 (http://pfaedit.sf.net)
Comments: 2004-10-09: Added bunch of other Latin-derived chars.  Calling this 0.2; don't expect much change before 1.0.\n\n2004-10-04: Finished Latin-1 and Latin Extended A (plus miscellaneous other chars).\n\n2004-9-21: Finished the basic alphabet (Roman alphabet +  + ß).\n\n2004-6-7: Began.
Version: 000.400
ItalicAngle: 0
UnderlinePosition: -100
UnderlineWidth: 50
Ascent: 759
Descent: 265
XUID: [1021 117 711671440 1260258]
FSType: 0
PfmFamily: 17
TTFWeight: 700
TTFWidth: 5
Panose: 2 0 6 2 0 0 0 0 0 0
LineGap: 90
VLineGap: 0
ScriptLang: 3
 1 latn 1 dflt 
 1 DFLT 1 dflt 
 1 hani 1 dflt 
TtfTable: cvt  8
!$hWI!$VK#
EndTtf
LangName: 1033 "Copyright 2004, John Stracke.  Based on a 1743 translation of the essays of Montaigne." "" "" "" "Essays 1743 Bold" "" "" "" "" "Based on the typeface in a 1743 English translation of the essays of Montaigne.  PostScript/TrueType font designed by John Stracke." "" "http://www.thibault.org/fonts/" "http://www.thibault.org/fonts/" "Licensed under the GNU Lesser General Public License." "http://www.fsf.org/copyleft/lesser.html" "" "" "" "" "Essays" 
Encoding: unicode
DisplaySize: -24
AntiAlias: 1
FitToEm: 1
WinInfo: 8480 32 31
TeXData: 1 10485760 0 346030 173015 115343 0 1048576 115343 783286 444596 497025 792723 393216 433062 380633 303038 157286 324010 404750 52429 2506097 1059062 262144
BeginChars: 65536 814
StartChar: exclam
Encoding: 33 33 1
Width: 301
Flags: HW
Fore
198.524 238.287 m 0
 201.933 241.875 203.833 245.741 204.689 250.505 c 1
 225.496 374.747 227.523 365.163 234.892 440.128 c 0
 245.01 543.078 248.239 585.096 244.993 707.938 c 0
 244.799 715.28 242.051 720.338 236.38 725.328 c 1
 189.968 763.568 129.861 760.473 88.8818 714.139 c 0
 85.1309 709.898 83.3926 705.468 83.0273 699.939 c 1
 76.9365 575.543 87.0938 513.921 92.0205 398.623 c 0
 94.5654 339.064 85.79 334.821 101.251 233.777 c 0
 102.401 226.26 105.899 221.505 112.465 217.168 c 1
 149.419 194.561 183.719 222.699 198.524 238.287 c 0
104.15 20.1133 m 0
 139.955 -0.266602 184.76 2.87012 215.678 32.2422 c 0
 245.024 60.1211 255.765 105.605 226.628 140.695 c 0
 198.978 173.995 154.562 169.16 124.596 156.132 c 0
 93.2881 142.52 77.4678 116.116 74.1348 85.6953 c 0
 71.7939 64.334 76.3906 35.915 104.15 20.1133 c 0
EndSplineSet
EndChar
StartChar: numbersign
Encoding: 35 35 3
Width: 526
Flags: HW
Fore
304.119 458.387 m 1
 310.659 476.344 320.055 492.728 333.383 507.2 c 8
 355.383 531.073 382.265 524.13 402.684 497.3 c 16
 412.914 483.856 419.211 469.368 423.097 453.92 c 1
 445.287 450.362 464.333 444.101 480.233 429.65 c 8
 507.733 404.659 516.19 376.128 490.133 350.45 c 16
 473.723 334.268 453.7 324.921 430.973 319.462 c 1
 431.342 314.438 431.803 309.367 432.383 304.25 c 0
 435.255 278.993 438.84 258.912 441.192 238.922 c 1
 455.822 234.959 468.836 228.809 480.233 218.45 c 8
 507.733 193.459 516.19 164.929 490.133 139.25 c 16
 474.725 124.057 456.134 114.89 435.108 109.307 c 1
 431.298 91.1455 424.929 75.2744 412.583 61.7002 c 8
 387.594 34.2002 359.062 25.7607 333.383 51.7998 c 16
 319.897 65.4785 311.158 81.665 305.46 99.8359 c 1
 302.679 99.7822 299.886 99.7217 297.083 99.6504 c 0
 270.947 98.9902 245.359 97.5996 220.717 96.7617 c 1
 216.737 83.7402 210.798 72.0527 201.383 61.7002 c 8
 176.394 34.2002 147.861 25.7607 122.184 51.7998 c 16
 106.925 67.2754 97.7441 85.9609 92.168 107.097 c 1
 70.8096 113.657 51.4912 123.817 34.7334 139.25 c 8
 10.8604 161.25 17.8037 188.132 44.6338 208.55 c 16
 56.5879 217.644 69.3701 223.628 82.9189 227.574 c 1
 82.835 233.281 82.7305 239.043 82.584 244.85 c 0
 81.9111 271.497 80.4785 297.575 79.6465 322.661 c 1
 63.2119 329.116 48.1523 338.093 34.7334 350.45 c 8
 10.8604 372.45 17.8037 399.332 44.6338 419.75 c 16
 57.8701 429.819 72.1221 436.076 87.3047 439.975 c 1
 93.6494 465.245 104.426 487.917 122.184 507.2 c 8
 144.184 531.073 171.065 524.13 191.483 497.3 c 16
 203.127 482.001 209.675 465.346 213.372 447.466 c 1
 221.353 447.891 229.459 448.516 237.684 449.45 c 0
 263.404 452.375 283.761 456.039 304.119 458.387 c 1
291.28 310.691 m 1
 267.182 309.987 243.577 308.739 220.781 307.964 c 1
 220.909 306.729 221.042 305.491 221.184 304.25 c 0
 224.125 278.384 227.814 257.946 230.16 237.476 c 1
 232.656 237.707 235.164 237.964 237.684 238.25 c 0
 259.052 240.68 276.718 243.62 293.757 245.892 c 1
 293.183 267.967 292.1 289.647 291.28 310.691 c 1
EndSplineSet
EndChar
StartChar: dollar
Encoding: 36 36 4
Width: 368
VWidth: 1080
Flags: HW
Fore
245.682 635.055 m 1
 279.147 622.563 307.312 601.12 322.234 563.203 c 0
 335.625 529.172 330.438 504.641 310.547 463.188 c 0
 290.677 421.79 269.221 439.639 252.194 464.575 c 1
 252.119 457.883 252.043 451.305 251.978 444.871 c 1
 288.147 418.41 328.455 396.999 346.812 339.625 c 0
 363.609 287.109 358.328 238.344 326.5 192.703 c 0
 305.442 162.493 279.107 149.137 251.749 140.591 c 1
 254.049 113.123 257.914 86.5423 264.141 60.4375 c 4
 285.562 -29.375 71.3125 7.04688 97.8438 69.75 c 5
 97.9378 94.0801 97.9723 115.715 97.9555 135.122 c 1
 77.597 140.23 54.9022 148.764 39 173.438 c 0
 12.9219 213.875 5.84375 254.797 32.7812 307.453 c 0
 52.5812 346.148 74.0534 336.677 95.0551 313.539 c 1
 94.0642 341.031 l 1
 75.1236 347.174 57.0002 358.794 43.9531 383.203 c 0
 22.625 423.125 20.3438 443.125 22.0156 486.984 c 0
 24.1223 541.881 52.9802 577.914 89.9784 605.675 c 1
 89.8711 635.365 89.8125 668.405 89.8125 705.344 c 5
 86.8125 761.641 154.312 768.844 188 752 c 4
 221.524 735.235 237.872 690.059 245.682 635.055 c 1
EndSplineSet
EndChar
StartChar: percent
Encoding: 37 37 5
Width: 817
VWidth: 1080
Flags: HW
Fore
172.212 548.745 m 4
 161.785 543.327 159.539 543.292 146.677 546.719 c 4
 123.845 552.804 115.719 557.573 106.5 573.87 c 4
 97.9697 588.951 98.2344 596.575 104.275 617.684 c 4
 110.165 638.262 114.085 644.661 127.903 651.949 c 4
 145.854 661.418 155.556 661.066 176.593 652.796 c 4
 187.848 648.371 190.271 645.467 197.421 631.3 c 4
 207.801 610.729 209.586 603.352 204.721 586.495 c 4
 198.943 566.48 192.114 559.089 172.212 548.745 c 4
96.5986 470.708 m 4
 140.848 446.126 181.284 442.434 226.255 460.943 c 4
 269.368 478.688 292.554 510.893 306.017 552.338 c 4
 320.236 596.111 319.989 638.093 294.763 680.781 c 4
 272.715 718.089 240.097 731.189 205.966 741.495 c 4
 169.309 752.563 135.116 756.676 95.0361 740.807 c 4
 61.6416 727.584 40.1289 705.817 24.4414 674.864 c 4
 3.50098 633.551 2.25488 592.936 19.0117 550.82 c 4
 35.6543 508.99 66.9746 487.166 96.5986 470.708 c 4
607.212 123.745 m 4
 596.784 118.326 594.54 118.292 581.677 121.72 c 4
 558.844 127.804 550.719 132.573 541.5 148.871 c 4
 532.97 163.951 533.234 171.576 539.275 192.683 c 4
 545.165 213.261 549.085 219.661 562.903 226.949 c 4
 580.854 236.417 590.556 236.067 611.593 227.796 c 4
 622.847 223.371 625.271 220.467 632.421 206.299 c 4
 642.801 185.729 644.586 178.351 639.721 161.495 c 4
 633.943 141.481 627.115 134.088 607.212 123.745 c 4
531.599 45.7086 m 4
 575.847 21.1262 616.285 17.4347 661.255 35.9441 c 4
 704.368 53.6887 727.554 85.8919 741.017 127.338 c 4
 755.236 171.111 754.99 213.093 729.763 255.781 c 4
 707.715 293.089 675.097 306.19 640.966 316.495 c 4
 604.308 327.563 570.116 331.675 530.037 315.806 c 4
 496.642 302.584 475.129 280.818 459.441 249.864 c 4
 438.501 208.551 437.254 167.936 454.011 125.82 c 4
 470.654 83.9903 501.976 62.166 531.599 45.7086 c 4
EndSplineSet
Ref: 47 47 S 1 0 0 1 0 0
EndChar
StartChar: ampersand
Encoding: 38 38 6
Width: 934
Flags: HW
Fore
354.89 620.166 m 0
 380.168 644.099 396.244 686.593 362.683 721.425 c 0
 307.618 778.574 228.521 744.997 178.809 717.409 c 0
 111.749 680.194 91.0205 627.461 90.2432 560.3 c 0
 89.6445 508.544 131.796 486.255 133.429 479.438 c 1
 123.736 466.086 102.385 525.696 37.709 354.304 c 0
 3.51367 263.687 32.5068 186.977 89.0879 113.736 c 0
 135.782 53.293 192.616 35.8477 262.48 20.1279 c 0
 380.198 -6.3584 442.272 6.87012 543.283 26.627 c 0
 625.172 42.6426 655.012 99.2734 695.976 149.308 c 0
 767.212 236.317 727.875 300.438 727.241 372.138 c 0
 726.831 418.581 705.789 427.046 711.86 435.458 c 0
 726.651 455.951 780.601 413.577 834.072 459.827 c 0
 890.834 508.922 902.845 582.969 896.022 631.577 c 0
 886.157 701.875 801.171 729.989 739.142 709.808 c 0
 684.251 691.948 665.47 637.068 675.752 589.465 c 0
 686.624 539.132 748.307 550.676 748.84 542.742 c 0
 752.262 491.771 633.902 585.871 522.718 557.315 c 0
 478.354 545.922 428.176 536.908 399.227 485.792 c 0
 366.668 428.303 357.695 357.089 412.377 304.024 c 0
 453.781 263.845 513.562 265.345 560.051 291.692 c 0
 594.168 311.029 635.617 356.062 604.204 401.98 c 0
 566.738 456.748 498.581 401.383 491.401 407.16 c 0
 483.574 413.46 482.937 421.33 487.023 427.137 c 0
 504.523 451.999 536.115 456.695 574.87 443.61 c 0
 602.311 434.345 612.861 416.922 622.033 383.112 c 0
 637.791 325.023 632.531 287.771 598.518 239.871 c 0
 568.821 198.054 536.575 187.883 477.637 172.545 c 0
 414.398 156.088 378.52 158.219 313.276 173.637 c 0
 254.8 187.455 222.543 191.679 198.354 227.91 c 0
 159.498 286.105 153.555 295.101 192.497 388.873 c 0
 198.218 402.646 250.763 369.784 298.222 411.508 c 0
 324.81 434.882 357.729 472.324 336.071 518.419 c 0
 307.82 578.547 225.922 543.421 219.741 559.594 c 0
 214.144 574.242 224.621 589.759 254.913 608.555 c 0
 268.12 616.749 313.104 580.606 354.89 620.166 c 0
EndSplineSet
EndChar
StartChar: quotesingle
Encoding: 39 39 7
Width: 284
Flags: HW
Fore
88.7666 447.385 m 1
 64.4072 462.001 41.2305 488.424 27.3525 528.89 c 0
 12.7822 571.371 17.9307 606.219 30.1836 644.603 c 0
 40.0879 675.628 48.6318 725.358 100.426 741.825 c 0
 159.558 760.624 211.47 732.311 244.936 688.085 c 0
 285.664 634.262 273.554 579.364 262.461 526.834 c 0
 253.16 482.794 227.726 467.261 216.835 442.823 c 0
 194.932 393.674 270.077 221.854 122.652 218.009 c 1
 115.137 218.042 109.604 220.054 104.283 225.361 c 0
 62.7881 266.753 92.8838 372.591 88.7666 447.385 c 1
EndSplineSet
EndChar
StartChar: parenleft
Encoding: 40 40 8
Width: 280
Flags: HW
Fore
127.363 -220.611 m 0
 159.739 -289.678 314.428 -242.671 280.531 -172.168 c 0
 203.514 -11.9697 187.914 -25.9805 165.395 74.4688 c 0
 139.401 190.412 143.56 257.637 163.652 376.845 c 0
 183.143 492.478 200.166 525.402 263.562 658.231 c 0
 280.19 693.072 230.446 754.648 191.703 713.035 c 0
 108.135 623.277 72.998 543.62 43.7051 422.895 c 0
 8.08789 276.104 17.8037 180.701 41.3193 35.0166 c 0
 58.0303 -68.5117 82.4336 -124.762 127.363 -220.611 c 0
EndSplineSet
EndChar
StartChar: asterisk
Encoding: 42 42 10
Width: 552
Flags: HW
Fore
441.836 562.117 m 1
 466.091 586 555.548 609.657 470.983 679.299 c 0
 371.61 761.135 368.091 656 330.435 624.025 c 1
 326.091 692 357.718 742.858 283.8 741.998 c 0
 169.416 740.667 230.091 656 224.618 625.416 c 1
 182.091 656 158.009 749.52 84.8174 660.922 c 0
 25.6904 589.35 104.091 566 155.844 543.312 c 1
 98.0908 530 5.34375 574.695 12.1553 480.202 c 0
 20.4971 364.481 110.091 436 173.266 431.471 c 1
 126.091 410 -2.27344 375.766 87.8789 298.969 c 0
 201.893 201.847 192.091 338 225.008 367.171 c 1
 222.091 314 184.098 241.216 279.739 236.036 c 0
 394.755 229.809 355.586 378.98 354.257 369.148 c 1
 361.516 363.869 358.615 225.203 458.612 304.402 c 0
 544.948 372.781 430.091 432 410.932 449.719 c 1
 436.091 448 537.31 424.364 540.075 503.122 c 0
 543.585 603.052 472.091 568 441.836 562.117 c 1
EndSplineSet
EndChar
StartChar: plus
Encoding: 43 43 11
Width: 360
Flags: HW
Fore
256.744 308 m 5
 269.109 298.995 300.111 325.57 331.9 281.781 c 5
 352.463 253.766 361.354 214.859 338.447 181 c 4
 318.661 151.729 267.127 167.998 250 164 c 5
 249.623 150.968 266.21 97.2158 235.025 74.3438 c 4
 207.01 53.7812 168.104 44.8906 134.244 67.7969 c 4
 100.035 90.9238 101.819 144.466 100 158 c 5
 84.1602 161.82 44.6963 148.275 21.4941 180.344 c 4
 -1.16211 211.641 7.10352 249.562 28.9473 274.469 c 4
 45.7695 293.672 90.7637 292.421 104 296 c 5
 106.397 314.382 93.2471 355.556 133.588 384.75 c 4
 164.885 407.406 202.807 399.141 227.713 377.297 c 4
 227.713 377.297 256.744 338 256.744 308 c 5
EndSplineSet
EndChar
StartChar: comma
Encoding: 44 44 12
Width: 322
Flags: HW
Fore
133.338 -198.141 m 0
 109.201 -199.37 50.665 -198.698 41.4014 -150.163 c 0
 29.292 -86.7207 116.729 -76.3408 123.903 -59.8867 c 0
 130.432 -44.9141 125.063 -41.416 124.64 -28.2959 c 0
 124.571 -26.1992 56.6211 -24.3047 50.1533 31.002 c 0
 44.1133 82.6387 44.4336 135.374 95.9453 172.286 c 0
 137.053 201.742 181.619 189.581 216.896 175.135 c 0
 249.503 161.782 268.284 139.421 280.966 111.408 c 0
 300.086 69.1748 296.447 34.5645 288.563 -4.99316 c 0
 276.842 -63.8057 261.02 -106.415 216.572 -153.274 c 0
 196.342 -174.602 173.139 -196.115 133.338 -198.141 c 0
EndSplineSet
EndChar
StartChar: hyphen
Encoding: 45 45 13
Width: 364
Flags: HW
Fore
23.4951 168.34 m 4
 0.835938 199.641 9.11133 237.558 30.9424 262.475 c 4
 72.624 310.049 126.26 291.463 162.548 297.645 c 4
 190.231 302.361 213.424 312.038 251.206 306.76 c 4
 275.65 303.344 309.923 302.485 333.905 269.785 c 4
 354.463 241.756 363.348 202.851 340.456 168.996 c 4
 304.569 115.925 246.729 123.65 203.693 122.018 c 4
 146.508 119.849 71.3867 102.184 23.4951 168.34 c 4
EndSplineSet
EndChar
StartChar: period
Encoding: 46 46 14
Width: 331
VWidth: 1080
Flags: HW
Fore
105.385 13.8301 m 4
 153.599 1.02539 207.823 7.10059 243.198 53.416 c 4
 277.558 98.4004 267.205 149.988 245.796 191.592 c 4
 228.553 225.1 199.365 256.008 152.043 256.008 c 4
 105.325 256.008 75.8203 225.655 58.291 191.592 c 4
 34.999 146.329 39.4854 102.681 57.3369 59.584 c 4
 64.6855 41.8428 78.6631 20.9258 105.385 13.8301 c 4
EndSplineSet
EndChar
StartChar: slash
Encoding: 47 47 15
Width: 823
VWidth: 1080
Flags: HW
Fore
447.396 488.774 m 4
 590.716 633.467 560.576 606.425 597.187 677.77 c 5
 554.576 669.125 555.351 669.229 548.921 687.09 c 4
 538.679 715.544 558.577 738.192 577.723 747.986 c 5
 581.509 749.889 585.294 750.824 589.576 750.825 c 4
 719.915 750.854 671.697 767.882 785.725 730.527 c 5
 790.667 728.843 794.42 726.311 797.576 722.325 c 4
 818.938 695.354 809.442 660.769 785.827 641.577 c 4
 758.768 619.589 718.452 633.739 732.573 640.094 c 5
 606.458 512.177 648.39 539.405 527.296 392.334 c 4
 428.988 272.938 411.104 260.921 325.2 140.749 c 5
 320.592 127.615 298.117 126.245 310.628 125.515 c 4
 336.576 124 348.174 141.299 359.995 111.236 c 4
 377.453 66.8438 320.181 39.2607 315.056 32.3057 c 5
 309.419 25.3965 303.776 22.2109 294.576 22.1748 c 4
 195.891 21.7852 180.679 8.62988 77.1104 22.4043 c 5
 70.3506 23.4639 65.4932 25.9863 61.1279 31.002 c 4
 56.2598 36.5938 11.1895 53.209 13.6113 96.583 c 4
 15.7305 134.539 50.4268 149.067 71.0088 157.167 c 4
 115.16 174.541 137.137 148.943 138.336 150.39 c 4
 284.097 326.276 327.617 367.846 447.396 488.774 c 4
EndSplineSet
EndChar
StartChar: zero
Encoding: 48 48 16
Width: 580
Flags: HW
Fore
322.982 159.184 m 0
 297.438 145.908 283.273 145.343 253.948 153.157 c 0
 205.528 166.06 180.527 179.962 158.271 219.309 c 0
 137.612 255.831 138.727 281.332 151.546 326.121 c 0
 164.011 369.672 176.217 391.448 211.174 409.888 c 0
 253.108 432.006 283.09 430.927 329.363 412.733 c 0
 357.976 401.484 368.639 388.557 384.191 357.737 c 0
 405.752 315.013 412.24 290.636 400.491 249.934 c 0
 387.186 203.838 366.972 182.044 322.982 159.184 c 0
172.369 47.1465 m 0
 257.117 0.0634766 325.982 -5.70996 410.026 28.8818 c 0
 489.329 61.5225 529.732 117.605 555.288 196.276 c 0
 582.564 280.245 581.764 353.643 535.033 432.719 c 0
 495.236 500.061 439.268 522.543 371.737 542.933 c 0
 299.799 564.653 240.653 571.682 166.308 542.244 c 0
 104.303 517.694 67.8115 480.703 38.2119 422.303 c 0
 -1.14258 344.658 -3.13477 273.72 28.2822 194.758 c 0
 58.5859 118.591 114.379 79.3633 172.369 47.1465 c 0
EndSplineSet
EndChar
StartChar: one
Encoding: 49 49 17
Width: 580
Flags: HW
VStem: 372 0<96 318>
Fore
182.24 14.001 m 4
 121.48 13.417 141.836 99.0508 161.983 125.978 c 4
 184.252 155.74 215.602 150.497 208.121 130.934 c 5
 210 322 205.876 222 210.851 423.484 c 5
 217.753 409.462 192.538 395.975 170.078 430.315 c 4
 143.83 470.447 143.915 533.395 185.383 563.281 c 5
 189.978 566.491 194.562 568.036 200.167 567.999 c 4
 649.866 565.083 86.3633 570.998 398.24 567.999 c 5
 404.396 567.824 409.283 566.13 414.019 562.193 c 4
 454.277 528.729 459.404 476.424 438.516 433.135 c 4
 415.958 386.388 411.406 419.723 413.04 425.903 c 5
 412 306 412 312 417 124.159 c 5
 408.063 150.276 413.173 154.884 435.61 126.506 c 4
 443.705 116.268 495.393 16.3623 425.485 15.0049 c 4
 117.38 9.02148 492.119 16.9795 182.24 14.001 c 4
EndSplineSet
EndChar
StartChar: two
Encoding: 50 50 18
Width: 580
Flags: HW
Fore
393.44 206.604 m 4
 441.423 226.466 474.352 226.558 512.747 201.28 c 5
 522.637 193.32 526.164 186.895 523.301 174.526 c 4
 497.724 64.0459 503.323 95.8008 446.706 23.2812 c 5
 441.531 17.123 436.208 14.0801 428.174 13.6934 c 4
 165.266 1.05078 330.783 7.50293 111.651 10.5645 c 4
 63.1914 11.2422 80.9795 75.4248 90.7656 91.1738 c 4
 176.17 228.616 238.226 228.331 296.824 340.917 c 4
 313.761 373.458 315.999 397.254 300.184 415.334 c 4
 287.776 429.518 270.493 428.866 237.085 417.448 c 4
 199.033 404.443 209.134 383.212 146.324 329.062 c 5
 126.676 319.215 120.619 317.203 108.374 335.454 c 4
 74.4043 386.081 94.4814 416.283 106.427 433.585 c 4
 151.539 498.925 174.482 517.418 229.998 536.175 c 4
 295.091 558.167 372.334 582.404 435.421 521.109 c 4
 492.199 465.945 477.54 393.667 460.056 331.878 c 4
 435.043 243.486 372.731 226.938 341.917 179.119 c 5
 342.083 179.669 329.665 138.26 338.471 160.385 c 5
 372 158 254.232 156.257 387.804 158.682 c 5
 348 170 379.262 195.88 386.433 202.226 c 5
 388.547 204.088 390.837 205.525 393.44 206.604 c 4
EndSplineSet
EndChar
StartChar: three
Encoding: 51 51 19
Width: 580
Flags: HW
Fore
149.657 62.5234 m 4
 101.801 95.9014 128.595 152.852 140.903 182.567 c 5
 142.015 185.233 143.485 187.577 145.418 189.725 c 4
 228.453 281.996 237.58 273.157 307.314 351.609 c 4
 308.561 353.011 307.854 364.954 291.568 379.159 c 4
 281.388 388.038 272.973 389.438 252.339 383.102 c 4
 221.882 373.748 226.164 321.633 155.142 293.731 c 4
 96.6445 270.75 110.464 367.151 112.635 376.599 c 4
 129.529 450.119 167.915 501.334 224.614 533.588 c 4
 285.911 568.458 273.384 560.047 312.391 565.738 c 4
 342.247 570.094 386.883 567.098 430.077 535.279 c 4
 491.874 489.758 469.419 422.365 458.492 368.986 c 4
 439.122 274.357 378 274 380.409 236.906 c 5
 402 256 410.441 262.666 441.002 237.208 c 4
 480.844 204.018 487.837 163.878 494.657 123.127 c 4
 507.246 47.9082 504.328 -7.40137 475.172 -79.3857 c 4
 452.205 -136.088 427.167 -180.967 367.594 -212.149 c 4
 293.804 -250.773 196.801 -295.051 119.937 -223.271 c 4
 73.0576 -179.493 75.0625 -105.582 119.322 -61.3223 c 5
 123.826 -56.9902 128.515 -54.6787 134.736 -54.1025 c 4
 204.786 -47.6221 172.932 -56.6719 225.752 -54.0312 c 5
 231.7 -53.8359 236.57 -55.168 241.439 -58.5918 c 4
 265.614 -75.5918 250.389 -76.808 256.961 -108.047 c 4
 262 -132 273.641 -110.622 292.288 -95.5547 c 4
 330.075 -65.0215 339.649 -35.5166 346.171 19.9209 c 4
 350.177 53.9678 350.318 68.5293 335.443 83.2021 c 4
 319.5 98.9287 303.442 96.9951 264.891 94.0713 c 5
 242.54 92.377 240.693 65.1914 166.37 58.1123 c 5
 160.023 57.6387 154.878 58.8828 149.657 62.5234 c 4
EndSplineSet
EndChar
StartChar: four
Encoding: 52 52 20
Width: 580
Flags: HW
VStem: 240 96<-204 -100.467 -204 24>
Fore
134.518 130.331 m 5
 288.166 135.453 86.4375 128.03 235 137.463 c 5
 235 190.294 235 90.2461 235 243.304 c 5
 230.209 253.273 116.92 127.334 134.518 130.331 c 5
375.854 -211.418 m 4
 339.688 -253.084 285.642 -258.563 243.82 -223.059 c 5
 238.005 -217.771 235.193 -212.413 235.006 -204.556 c 4
 231.33 -50.5781 236.662 -40.7705 233.498 6.69238 c 5
 165.251 11.8105 181.868 -30.8223 32.2139 5.67871 c 5
 -15.9111 16.8379 0.430664 74.7354 4.93164 90.7598 c 5
 5.56934 93.0215 6.4834 95.1133 7.71582 97.1143 c 4
 189.179 391.625 118.059 307.324 303.731 531.929 c 5
 306.487 535.213 309.628 537.549 313.6 539.165 c 4
 336.915 548.655 368.093 547.119 387.589 522.533 c 5
 390.659 518.572 392.376 514.475 392.876 509.487 c 4
 410.919 329.594 399.44 331.86 385.716 137.427 c 5
 422.547 135.194 398.285 165.467 569.387 155.962 c 5
 578.315 155.051 584.077 152.088 588.992 144.577 c 4
 626.425 87.375 578.536 30.9775 536.867 3.19824 c 5
 466.849 -43.4814 426.588 2.88281 381 0.350586 c 5
 381 -110.466 388.454 -79.5146 381.962 -196.387 c 5
 381.534 -202.275 379.724 -206.959 375.854 -211.418 c 4
EndSplineSet
Back
134.518 130.331 m 1
 288.166 135.453 86.4375 128.03 235 137.463 c 1
 235 190.294 235 90.2461 235 243.304 c 1
 230.209 253.273 116.92 127.334 134.518 130.331 c 1
375.854 -211.418 m 4
 339.688 -253.084 285.642 -258.563 243.82 -223.059 c 5
 238.005 -217.771 235.193 -212.413 235.006 -204.556 c 0
 231.33 -50.5781 236.662 -40.7705 233.498 6.69238 c 1
 165.251 11.8105 181.868 -30.8223 32.2139 5.67871 c 1
 -15.9111 16.8379 0.430664 74.7354 4.93164 90.7598 c 1
 5.56934 93.0215 6.4834 95.1133 7.71582 97.1143 c 0
 189.179 391.625 118.059 307.324 303.731 531.929 c 1
 306.487 535.213 309.628 537.549 313.6 539.165 c 0
 336.915 548.655 368.093 547.119 387.589 522.533 c 1
 390.659 518.572 392.376 514.475 392.876 509.487 c 0
 410.919 329.594 399.44 331.86 385.716 137.427 c 1
 422.547 135.194 398.285 165.467 569.387 155.962 c 1
 578.315 155.051 584.077 152.088 588.992 144.577 c 0
 626.425 87.375 578.536 30.9775 536.867 3.19824 c 1
 466.849 -43.4814 426.588 2.88281 381 0.350586 c 1
 381 -110.466 388.454 -79.5146 381.962 -196.387 c 1
 381.534 -202.275 379.724 -206.959 375.854 -211.418 c 4
EndSplineSet
EndChar
StartChar: five
Encoding: 53 53 21
Width: 580
Flags: HW
Fore
300 366 m 4
 304.257 361.728 310.104 351.982 316.079 351.171 c 5
 422.848 338.61 346.298 355.664 503.13 343.07 c 4
 510.542 342.475 522.762 347.798 526.027 354.478 c 5
 526.853 355.967 586.687 439.006 569.28 509.957 c 5
 556.137 563.528 518.861 591.854 473.776 611.009 c 5
 461.042 616.42 437.592 623.875 416.191 608.143 c 4
 368.111 572.795 398.961 521.53 386.191 512.143 c 4
 382.639 509.53 380.411 508.973 361.172 515.627 c 4
 343.065 521.889 323.629 600.074 262.021 582.007 c 4
 255.422 580.07 251.108 576.54 247.469 570.704 c 5
 130.265 372.054 149.73 419.938 74.5957 81.4229 c 4
 73.3525 75.8232 73.9443 70.9385 76.2305 65.6777 c 5
 88.7197 38.127 117.423 37.7422 131.444 39.1201 c 4
 203.524 46.2021 217.913 109.199 254.603 117.636 c 4
 293.741 126.635 312.8 129.131 326.03 113.717 c 4
 371.786 60.4111 364.723 -10.1533 319.014 -70.9814 c 4
 288.547 -111.526 247.467 -122.45 194.891 -109.704 c 4
 184.983 -107.302 183.194 -52.7725 127.146 -43.3467 c 4
 87.2178 -36.6309 52.3467 -55.9277 31.8096 -88.7354 c 4
 14.6934 -116.077 16.3125 -147.691 31.1953 -174.229 c 4
 60.4512 -226.395 107.193 -240.099 154.832 -252.228 c 4
 202.771 -264.433 242.503 -264.043 290.166 -245.259 c 4
 383.699 -208.397 447.243 -164.128 495.201 -71.4941 c 4
 534.023 3.49219 553.651 77.4902 513.525 160.844 c 4
 493.959 201.49 457.582 212.439 426.244 221.928 c 4
 367.669 239.662 328.729 226.724 279.094 222.927 c 4
 278.688 222.896 258 220 238.061 216.688 c 5
 288.713 389.281 229.266 135.396 289.096 416.339 c 5
 284.758 416.479 307.293 357.832 300 366 c 4
EndSplineSet
EndChar
StartChar: six
Encoding: 54 54 22
Width: 580
Flags: HW
Fore
356.507 360.323 m 4
 315.737 384.829 277.686 382.224 231.009 357.716 c 4
 197.123 339.924 185.336 318.557 177.977 278.439 c 4
 166.445 215.582 173.407 175.968 214.361 128.228 c 4
 229.961 110.044 243.589 105.51 275.61 102.651 c 4
 313.275 99.2881 332.096 100.539 352.621 119.095 c 4
 397.389 159.567 403.233 200.472 398.449 267.88 c 4
 395.098 315.113 388.948 340.823 356.507 360.323 c 4
228.391 447.961 m 5
 283.084 490.555 259.387 484 358.098 484.503 c 5
 423.775 477.339 476.409 457.523 515.791 401.896 c 4
 574.565 318.874 591.568 234.277 546.01 137.41 c 4
 523.82 90.2305 496.865 64.4209 457.647 34.1982 c 4
 428.573 11.793 403.48 -3.22656 364.47 -11.3271 c 4
 299.767 -24.7637 247.062 -30.3145 181.537 -2.22852 c 4
 111.357 27.8535 53.0195 65.8564 33.126 145.814 c 4
 6.94043 251.063 -4.51562 330.61 27.3535 441.836 c 4
 53.3877 532.695 89.7188 589.563 163.259 651.652 c 4
 243.076 719.041 312.429 765.457 425.3 765.85 c 4
 453.898 765.949 485.272 764.585 511.851 726.711 c 5
 519.314 710.878 520.233 703.575 506.643 692.544 c 4
 428.695 629.28 404.914 641.915 361.61 604.979 c 4
 294.524 547.758 265.387 530 228.391 447.961 c 5
EndSplineSet
EndChar
StartChar: seven
Encoding: 55 55 23
Width: 580
Flags: HW
HStem: 598 114<224.645 254.645>
Fore
234.018 716 m 5
 251.817 716 508.846 716 531.646 716 c 5
 557.977 706.386 565.676 705.857 554.227 680.271 c 4
 389.965 313.184 394.698 373.32 246.84 5.67188 c 5
 245.462 2.29199 243.561 -0.540039 240.926 -3.06641 c 4
 233.646 -10.0469 216.598 -50.3975 176.326 -54.7393 c 4
 115.138 -61.3379 154.909 -64 89.6455 -64 c 5
 65.6973 -56.5996 58.5459 -54.9902 65.9463 -31.041 c 4
 149.787 240.301 158.568 181.776 208.339 310.044 c 5
 253.123 425.462 290.646 443.565 290.646 530.593 c 5
 287.547 539.107 272.447 552 243.646 552 c 5
 190.664 552 205.492 537.882 114.177 472.656 c 5
 109.659 469.525 105.142 468.013 99.6455 468 c 4
 71.1338 467.936 34.625 477.126 21.9365 515.071 c 5
 20.5283 519.402 20.2402 523.508 21.1445 527.971 c 4
 48.5088 663.023 56.2275 675.934 124.233 741.939 c 5
 125.657 743.319 127.199 744.5 128.905 745.511 c 5
 161.637 768.56 204.719 748.225 234.018 716 c 5
EndSplineSet
EndChar
StartChar: eight
Encoding: 56 56 24
Width: 580
Flags: HW
Fore
326.52 119.662 m 4
 341.985 128.573 345.454 137.811 352.91 164.684 c 4
 361.726 196.456 364.046 210.168 352.672 232.756 c 4
 344.3 249.381 336.331 254.31 312.887 262.354 c 4
 279.141 273.931 262.421 276.472 235.983 263.542 c 4
 219.223 255.345 213.85 247.355 206.903 224.678 c 4
 197.962 195.486 198.903 180.678 211.766 152.33 c 4
 221.1 131.76 227.26 124.66 246.112 117.28 c 4
 279.095 104.37 298.665 103.613 326.52 119.662 c 4
332.628 471.725 m 4
 341.178 476.593 342.327 480.213 349.426 500.322 c 4
 357.721 523.82 359.789 532.077 354.769 551.848 c 4
 349.425 572.895 345.439 580.58 329.36 591.049 c 4
 298.661 611.035 278.892 616.097 246.338 606.102 c 4
 225.187 599.606 216.343 590.544 206.009 566.224 c 4
 196.463 543.757 196.783 532.096 206.368 506.885 c 4
 215.14 483.814 221.445 475.086 240.638 467.067 c 4
 276.108 452.247 299.489 452.852 332.628 471.725 c 4
408 362 m 5
 429.128 358.519 481.438 352.533 512.171 293.553 c 4
 546.018 228.595 530.871 172.956 514.065 113.229 c 4
 503.146 74.418 491.805 34.5234 447.717 8.47559 c 4
 365.467 -40.1182 288.903 -33.3076 204.678 -3.57422 c 4
 158.34 12.7842 124.316 38.8135 104.022 86.1494 c 4
 75.917 151.706 87.1387 206.374 109.566 266.71 c 4
 132.945 329.605 187.251 359.812 183.08 347.296 c 5
 169.354 355.938 124.203 363.756 91.7148 446.901 c 4
 61.9971 522.954 58.6729 593.039 101.383 666.559 c 4
 128.42 713.098 169.617 727.343 212.894 738.243 c 4
 285.817 756.61 342.568 754.295 412.624 725.073 c 4
 457.75 706.25 491.043 681.654 513.535 634.823 c 4
 536.525 586.956 535.188 544.3 520.946 496.817 c 4
 510.509 462.019 489.687 444.886 470.468 426.115 c 4
 437.461 393.877 423.128 382.519 408 362 c 5
EndSplineSet
EndChar
StartChar: nine
Encoding: 57 57 25
Width: 580
Flags: HW
Fore
382.745 159.69 m 0
 408.42 218.883 401.811 261.038 371.228 322.953 c 0
 361.536 342.572 354.143 349.408 332.637 357.518 c 0
 294.926 371.736 272.797 373.326 238.443 358.075 c 0
 220.1 349.933 214.158 341.88 205.312 319.116 c 0
 181.208 257.086 176.76 217.758 202.835 160.004 c 0
 212.592 138.394 221.953 130.103 246.397 121.664 c 0
 282.255 109.285 303.538 111.868 342.364 127.013 c 0
 366.255 136.331 375.052 141.955 382.745 159.69 c 0
347.027 34.2832 m 1
 347.027 34.2832 321.964 21.6719 307.477 15.041 c 1
 277.215 10.8379 249.617 1.1709 209.16 11.8604 c 0
 160.423 24.7383 122.897 43.5137 93.0381 86.1963 c 0
 42.3604 158.638 26.3682 226.713 47.5273 311.896 c 0
 66.1357 386.809 103.885 441.013 179.333 474.284 c 0
 267.263 513.061 349.381 508.86 432.459 462.805 c 0
 491.438 430.109 508.387 381.372 523.952 327.981 c 0
 554.05 224.746 541.146 154.07 518.286 54.3867 c 0
 499.681 -26.751 480.346 -80.543 425.759 -148.734 c 0
 374.721 -212.493 329.912 -248.664 251.988 -281.472 c 1
 208.423 -299.812 185.947 -300.608 127.859 -300.608 c 1
 123.478 -300.576 119.61 -299.657 115.772 -297.647 c 0
 90.0039 -284.159 78.6387 -256.854 85.6514 -231.026 c 1
 86.6553 -227.414 88.3193 -224.339 90.8779 -221.502 c 0
 168.059 -135.929 203.545 -143.714 253.986 -100.588 c 1
 368.369 24.7061 346.265 29.667 347.027 34.2832 c 1
EndSplineSet
EndChar
StartChar: less
Encoding: 60 60 28
Width: 396
VWidth: 1080
Flags: HW
Fore
252.896 461.323 m 4
 295.324 469.266 342.616 471.118 373.238 440.856 c 5
 402.669 415.35 379.543 378.836 367.713 366.414 c 5
 349.396 342.865 311.305 351.742 317.614 355.949 c 5
 317.333 355.764 l 4
 250.07 312.22 203.296 286.205 174.688 263.422 c 5
 186.081 246.118 234.873 231.162 341.586 148.241 c 5
 344.155 146.23 346.193 143.911 347.841 141.097 c 4
 349.799 137.752 383.943 99.6689 348.688 69.7012 c 5
 345.88 67.3369 342.862 65.707 339.331 64.7021 c 4
 289.098 50.4082 269.274 52.8066 227.782 50.2979 c 4
 171.193 46.876 144 100 105.535 143.215 c 4
 76.2176 176.153 -37.9004 244.261 32.7129 292.721 c 4
 48.4072 303.491 92.1777 351.493 135.973 385.291 c 4
 166.671 408.982 183.696 448.369 252.896 461.323 c 4
EndSplineSet
EndChar
StartChar: question
Encoding: 63 63 31
Width: 384
Flags: HW
Fore
194.047 205.213 m 0
 157.252 178.162 116.578 202.97 96.6045 226.28 c 1
 94.2402 229.067 92.6533 232.04 91.7383 235.514 c 0
 64.5518 338.751 64.1172 374.771 73.084 474.152 c 1
 75.0645 485.224 78.8975 491.03 90.0869 494.655 c 0
 213.587 534.663 192.636 500.438 238.633 510.842 c 1
 236.552 508.958 242.628 519.77 237.36 530.434 c 0
 224.032 557.414 193.58 548.767 139.067 580.044 c 0
 126.938 587.004 74.2598 588.087 56.4678 635.086 c 1
 56.0879 636.089 55.7822 637.105 55.5469 638.147 c 0
 45.4971 682.702 54.3857 720.124 95.1338 740.981 c 1
 98.1465 742.51 101.223 743.408 104.622 743.717 c 0
 170.838 749.72 201.731 737.081 255.028 706.139 c 1
 258.394 704.16 261.015 701.734 263.129 698.556 c 0
 297.792 646.456 324.476 615.422 333.759 551.363 c 0
 340.374 505.711 359.571 453.336 304.67 401.18 c 0
 256.066 355.007 215.892 370.992 204.437 354.489 c 1
 206.709 317.798 194.495 286.092 203.716 227.697 c 1
 204.59 217.645 202.444 211.387 194.047 205.213 c 0
148.675 12.4355 m 0
 124.601 10.8105 101.976 17.2627 83.3564 33.3203 c 0
 59.6934 53.7305 32.6924 83.3193 44.373 124.023 c 0
 54.9473 160.867 89.2949 174.253 119.848 178.069 c 0
 151.954 182.08 183.805 173.506 205.413 146.827 c 0
 229.248 117.399 234.961 80.2637 215.386 46.5234 c 0
 199.62 19.3486 171.504 13.9756 148.675 12.4355 c 0
EndSplineSet
EndChar
StartChar: at
Encoding: 64 64 32
Width: 537
VWidth: 1000
Flags: HW
Fore
335.357 311.976 m 0
 334.413 323.216 331.883 329.41 323.555 333.84 c 0
 320.416 335.511 317.699 334.316 307.376 331.582 c 0
 295.359 328.398 290.599 324.637 278.706 317.073 c 0
 264.35 307.943 258.042 305.749 250.671 295.633 c 0
 245.277 288.229 243.426 285.345 243.572 279.917 c 0
 244.188 257.065 246.494 242.99 261.781 236.318 c 0
 263.729 235.468 265.648 238.362 279.287 244.002 c 0
 298.22 251.832 307.678 252.95 318.231 265.256 c 0
 331.592 280.836 337.054 291.802 335.357 311.976 c 0
416.664 240.29 m 0
 418.224 231.718 428.521 238.079 447.138 285.645 c 0
 474.898 356.567 449.197 398.652 443.532 442.725 c 0
 440.932 462.955 387.442 554.664 367.099 567.553 c 0
 347.827 579.761 228.419 580.981 181.112 524.574 c 0
 155.012 493.453 38.4814 232.043 152.595 163.575 c 0
 259.914 99.1836 446.416 166.495 446.45 128.009 c 0
 446.479 95.667 335.356 51 241.45 51 c 0
 169.371 51 119.302 51.4834 68.6934 113.689 c 0
 -4.94531 204.202 10.9678 275.653 23.5322 373.276 c 0
 36.1768 471.523 49.1357 550.521 132.513 612.047 c 0
 226.566 681.451 406.088 662.644 428.75 648.48 c 0
 506.331 599.992 579.298 322.797 464.978 175.372 c 0
 449.312 155.17 426.121 163.787 411.692 163.257 c 0
 396.15 162.686 382.089 160.016 364.185 168.766 c 0
 350.636 175.387 347.394 185.436 341.938 190.996 c 0
 332.319 200.797 333.195 203.689 332.091 203.826 c 0
 319.543 205.387 316.702 191.847 295.593 179.601 c 0
 286.367 174.248 279.593 165.377 263.386 161.965 c 0
 236.99 156.407 213.308 153.807 187.715 170.059 c 0
 168.228 182.433 162.473 199.87 157.857 218.893 c 0
 150.839 247.818 152.116 269.784 162.734 297.569 c 0
 171.112 319.494 183.293 330.662 199.332 344.355 c 0
 223.466 364.959 242.038 373.097 270.401 384.301 c 0
 294.432 393.793 307.984 386.158 319.526 395.518 c 0
 323.859 399.03 324.292 401.74 326.577 411.73 c 0
 330.025 426.805 329.529 434.367 326.499 450.392 c 0
 323.09 468.422 323.845 476.371 315.486 482.382 c 0
 310.283 486.124 306.121 484.946 293.423 482.223 c 0
 278.585 479.04 272.136 477.554 265.594 468.774 c 0
 257.122 457.406 260.364 439.692 258.498 424.76 c 0
 254.764 394.884 221.03 379.223 194.685 387.177 c 0
 168.645 395.039 160.294 421.282 164.478 444.987 c 0
 169.083 471.089 175.91 494.635 199.337 514.609 c 0
 231.124 541.713 261.522 544.547 299.885 546.24 c 0
 323.489 547.282 343.485 546.953 365.306 531.695 c 0
 387.786 515.976 399.159 497.336 403.922 470.497 c 0
 412.646 421.326 403.631 311.912 416.664 240.29 c 0
EndSplineSet
EndChar
StartChar: A
Encoding: 65 65 1
Width: 811
VWidth: 1080
Flags: HW
Fore
292.111 189.576 m 1
 292.113 190.091 l 1
 292.111 189.576 l 1
433.477 553.87 m 1
 420.4 520.682 400.176 494.969 400 492 c 0
 393.078 472.766 389.109 456.281 380.766 433.938 c 24
 373.406 414.172 369.094 400.594 360 384 c 1
 396.344 362.484 430.266 373.469 496.641 379.859 c 1
 497.453 390.641 477.328 422.75 462.828 458.625 c 0
 452.523 484.1 435.356 535.551 433.477 553.87 c 1
292.113 190.091 m 1
 304.028 194.997 332.111 192.91 350.281 170.922 c 1
 353.922 166.359 355.766 161.734 355.984 155.891 c 0
 358.016 101.344 364.234 65.0312 342.656 37.5625 c 1
 341.969 36.6875 341.234 35.8594 340.438 35.0938 c 0
 288.906 -15.0781 229.969 20.8281 190.125 19.0312 c 0
 151.469 17.2812 138.703 16.9375 112.672 16.1094 c 1
 106.062 14.3438 84.25 -0.765625 43.7031 27.4844 c 1
 40.75 29.5781 38.4375 32.0469 36.5625 35.1406 c 0
 33.9688 39.4375 7.92188 53.25 9.01562 87.6719 c 0
 10.6094 137.422 40.9531 166.172 76.5156 186.656 c 0
 111.759 206.956 142.943 194.119 142.727 188.284 c 1
 163.324 224.539 185.912 305.812 187.656 314.688 c 1
 187.797 315.297 187.969 315.906 188.156 316.516 c 0
 268.938 572.828 264.812 542.453 361.781 730.453 c 1
 364.422 735.406 367.812 738.844 372.812 741.359 c 0
 414.312 762.188 457.906 785.938 508.531 756.641 c 1
 511.875 754.672 514.531 752.234 516.703 749.016 c 0
 564.875 677.844 566.328 642.141 587.625 581.172 c 0
 648.812 405.938 655.281 300.578 697.266 183.938 c 1
 703.281 175.859 759.953 180.641 790.891 124.078 c 0
 805.203 97.9062 814.922 58.625 787.891 27.6406 c 0
 769.562 6.625 743.688 5.40625 765.859 20.2031 c 1
 763.203 18.4375 760.406 17.2344 757.266 16.5625 c 0
 702.453 4.73438 654.562 7.14062 596.922 5.01562 c 0
 545.938 3.14062 544.062 5 468 5 c 0
 397.094 5 416.641 110.766 449.516 146.828 c 0
 492.391 193.875 506.578 152.672 542.828 160.016 c 1
 556.809 189.261 555.849 133.942 549.746 168.87 c 0
 547.902 179.42 545.59 198.201 543.078 230.031 c 1
 543.047 230.469 543.375 231.578 543.016 231.328 c 0
 542.25 230.812 541.844 258.281 509.234 262.859 c 1
 420.516 255.859 391.984 266.609 309.703 258.812 c 1
 291.129 244.148 292.134 213.556 292.113 190.091 c 1
EndSplineSet
KernsSLIF: 87 -238 0 0 86 -238 0 0
EndChar
StartChar: B
Encoding: 66 66 2
Width: 661
VWidth: 1080
Flags: HW
Fore
462.027 245.175 m 0
 464.422 296.258 438.083 338.592 396.259 343.151 c 0
 338.715 349.425 313.338 354.588 312.935 349.195 c 0
 306.873 268.015 301.793 242.743 303.981 179.939 c 0
 304.915 153.174 335.75 131.582 369.888 135.805 c 0
 423.943 142.492 459.301 186.981 462.027 245.175 c 0
336.278 630.952 m 1
 327.05 535.312 327.207 501.904 336.608 426.691 c 1
 343.061 421.161 367.584 434.738 411.632 454.748 c 0
 437.747 466.612 446.015 470.767 455.34 490.552 c 0
 471.423 524.674 472.014 546.137 455.515 580.072 c 0
 443.125 605.557 428.454 615.153 396.688 626.432 c 0
 369.628 636.038 361.627 638.667 336.278 630.952 c 1
40.9512 633.809 m 0
 13.0869 666.459 24.3887 711.484 52.2764 736.582 c 1
 55.3848 739.343 58.7344 741.17 62.7607 742.209 c 0
 162.677 767.988 218.67 762.424 311.121 750.805 c 0
 412.631 738.046 500.503 746.641 588.549 668.738 c 0
 627.939 633.886 636.808 592.573 639.937 548.782 c 0
 643.021 505.613 637.662 467.909 608.939 429.919 c 0
 563.555 369.893 558 416 506.521 388.82 c 1
 550 368 567.143 414.376 609.298 355.592 c 0
 644.348 306.716 645.044 259.672 639.879 207.539 c 0
 634.107 149.292 626.788 91.1152 570.093 48.0703 c 0
 473.788 -25.0479 381.923 15.4414 283.621 9.05273 c 0
 193.833 3.21777 172.267 -7.98438 39.7822 9.20801 c 1
 33.0322 10.251 28.1094 12.8096 23.7402 18.0605 c 0
 -12.1016 61.1377 8.89062 117.119 43.7305 146.981 c 1
 46.0264 148.938 48.5039 150.403 51.334 151.45 c 0
 112.693 174.135 150.41 142.509 146.259 137.929 c 1
 148.627 225.525 130.316 214.659 129.003 306.643 c 1
 128.993 307.317 129.011 307.99 129.056 308.663 c 0
 154.331 637.797 l 1
 157.974 633.926 147.311 605.889 54.8037 625.546 c 1
 49.0898 626.859 44.7578 629.349 40.9512 633.809 c 0
EndSplineSet
EndChar
StartChar: C
Encoding: 67 67 3
Width: 745
VWidth: 1080
Flags: HW
Fore
649.318 181.94 m 4
 567.295 170.283 516.825 124.994 443.037 133.574 c 4
 369.1 142.17 326.275 160.229 280.469 214.197 c 4
 229.391 274.377 217.526 321.22 225.871 399.244 c 4
 235.669 490.855 261.765 546.214 335.504 601.52 c 4
 386.42 639.707 426.897 652.161 484.764 638.001 c 4
 539.004 624.729 555.121 588.749 599.045 533.645 c 4
 611.358 518.196 594.158 466.566 655.817 430.542 c 4
 673.717 420.084 678.918 424.135 692.36 439.479 c 5
 731.824 514.46 754.052 570.777 717.684 645.335 c 4
 687.021 708.196 627.151 718.363 577.232 737.221 c 4
 537.219 752.338 508 757.095 466.524 757.895 c 4
 408.542 759.014 365.957 760.804 308.05 736.938 c 4
 221.993 701.471 172.967 662.209 117.907 591.531 c 4
 59.585 516.664 26.8379 456.159 20.0576 359.555 c 4
 15.2734 291.403 29.7412 242.69 65.3877 184.512 c 4
 110.932 110.183 158.445 69.2695 237.217 29.2041 c 4
 290.461 2.12207 333.897 -7.66895 394.788 -5.8877 c 4
 495.679 -2.93652 597.793 -13.2783 669.848 76.5596 c 4
 689.492 101.052 713.925 191.123 649.318 181.94 c 4
EndSplineSet
EndChar
StartChar: D
Encoding: 68 68 4
Width: 804
VWidth: 1080
Flags: HW
Fore
319.491 649.406 m 5
 335.499 663.442 376.493 655.38 423.988 642.204 c 4
 482.505 625.97 511.075 607.686 548.075 561.356 c 4
 594.776 502.879 610.023 462.672 611.002 389.199 c 4
 611.934 319.291 598.418 281.963 555.605 224.636 c 4
 520.049 177.024 489.979 160.188 430.138 135.824 c 4
 393.565 120.933 375.534 115.491 342.484 121.215 c 4
 310.085 126.826 302.776 126.628 302.98 129.206 c 4
 322.376 374.014 300.103 257.066 319.491 649.406 c 5
92 634.6 m 4
 93.3145 634.633 l 5
 126.057 636.27 133.971 654.783 135.354 655.121 c 4
 158.378 660.769 172.292 651.085 155.701 666.847 c 5
 143.74 270.176 156.872 500.692 145.276 128.925 c 5
 140.298 123.519 72.9746 161.158 20.3828 121.146 c 4
 16.8369 118.447 14.4287 115.288 12.7314 111.284 c 5
 -0.0556641 80.3643 -3.56934 47.1514 16.3418 23.3271 c 4
 20.8252 17.9629 25.8975 15.4199 33.0293 14.418 c 5
 150.419 1.07422 195.208 0.000976562 298.243 0.951172 c 4
 298.309 0.952148 l 5
 376.418 1.86719 430.445 -7.24609 512.76 18.2725 c 4
 581.186 39.4873 627.635 62.0195 677.508 114.184 c 4
 732.842 172.06 749.282 223.321 768.234 294.365 c 4
 786.144 361.502 797.924 412.404 777.124 485.032 c 4
 755.241 561.442 720.657 607.368 658.469 659.118 c 4
 601.77 706.301 552.993 719.25 486.532 736.375 c 4
 372.965 765.637 301.217 759.775 189.89 759.05 c 4
 157.663 758.84 126.416 766.754 85.751 749.362 c 4
 54.9541 736.191 7.05566 709.366 16.2773 674.321 c 5
 20.3047 632.243 78.1729 634.6 92 634.6 c 4
EndSplineSet
EndChar
StartChar: E
Encoding: 69 69 5
Width: 682
VWidth: 1080
Flags: HW
HStem: 629.425 97.85<94 122 255.88 289.978>
Fore
472.112 614.6 m 5
 434.777 620.715 409.453 624.59 328.3 611.129 c 5
 304.44 607.129 289.737 599.966 305.8 618 c 5
 303.227 506.786 303.11 556.555 305.641 419.546 c 5
 329.803 415.116 356.659 405.555 398.865 414.465 c 5
 406.582 419.48 374.862 462.897 430.773 495.879 c 4
 460.06 513.153 497.877 508.398 521.686 482.954 c 5
 528 476.64 527.938 473.552 527.999 467.392 c 4
 531.137 153.721 528.974 421.457 531.997 228.027 c 5
 531.181 216.773 527.934 210.704 517.153 205.972 c 4
 466.151 183.585 436.576 195.775 415.312 221.587 c 5
 412.812 224.663 411.229 227.909 410.453 231.725 c 4
 397.312 296.287 421.263 281.076 421.933 283.265 c 4
 423.997 290.008 413.917 289.055 388.68 296.416 c 4
 355.566 306.076 341.805 310.946 317.559 304.762 c 4
 299.896 300.257 298.766 298.488 296.806 294.951 c 5
 275.295 192.773 281 211.861 281 121.743 c 5
 280.824 122.124 287.113 116.568 297.148 112.993 c 5
 394.282 92.3779 432.377 102.072 530.401 106.077 c 5
 560.141 120.728 531.291 136.333 603.581 221.033 c 5
 620.847 233.451 626.399 236.165 641.814 221.715 c 4
 677.219 188.525 672.006 160.317 672.981 136.676 c 4
 674.7 95.0439 681.593 42.5439 632.422 5.93164 c 5
 627.683 2.52637 622.941 0.97168 617 0.875 c 4
 71 0.875 l 4
 68.2725 0.880859 65.6816 1.27441 63.0947 2.09375 c 4
 51.0635 5.89844 9 15.8037 9 54.0752 c 4
 9 91.957 51.5596 100.335 62.7334 104.039 c 4
 100.979 116.719 112.054 64.8584 109.147 86.0859 c 4
 71.9404 357.796 139.037 380.513 131.741 610.775 c 5
 130.05 610.775 114.751 589.477 75.1621 605.109 c 4
 53.3008 613.742 22.9932 634.318 26.0918 669.789 c 4
 30.8584 724.374 83.5273 743.022 119.908 754.847 c 5
 122.623 755.723 125.334 756.146 128.201 756.124 c 4
 497.722 753.3 446.42 767.49 610.405 739.603 c 5
 624.334 735.49 630.177 731.058 630.978 717.223 c 4
 637.839 598.793 602.274 653.158 648.572 619.075 c 4
 658.64 611.664 688.994 599.912 674.334 563.699 c 5
 671.02 556.388 666.666 552.113 658.704 549.631 c 4
 586.373 527.074 576.445 533.655 496.239 539.034 c 5
 488.787 539.75 483.481 542.148 478.702 547.627 c 4
 438.335 593.889 495.983 571.077 498 596 c 4
 499.391 613.184 497.949 582.584 472.112 614.6 c 5
EndSplineSet
EndChar
StartChar: F
Encoding: 70 70 6
Width: 648
VWidth: 1080
Flags: HW
HStem: 628.525 97.85<94 122 255.88 289.978>
Fore
393 -1.125 m 0
 371.317 -0.303711 58 -1.125 37 -1.125 c 1
 34.2725 -1.12012 31.6816 -0.724609 29.0947 0.09375 c 0
 17.0635 3.89844 -25 13.8037 -25 52.0752 c 0
 -25 89.958 17.5596 98.334 28.7334 102.039 c 0
 66.9795 114.719 78.0537 62.8584 75.1475 84.0859 c 0
 37.9404 355.795 105.037 378.512 97.7412 608.775 c 1
 96.0498 608.775 80.751 587.477 41.1621 603.109 c 0
 19.3008 611.742 -11.0068 632.317 -7.9082 667.789 c 0
 -3.1416 722.374 49.5273 741.022 85.9082 752.847 c 1
 88.623 753.722 91.334 754.146 94.2012 754.124 c 0
 463.722 751.3 412.42 765.491 576.405 737.604 c 1
 590.334 733.49 596.177 729.058 596.978 715.222 c 0
 603.839 596.794 568.274 636.509 614.572 602.426 c 0
 624.64 595.014 654.994 583.263 640.334 547.049 c 1
 637.02 539.737 632.666 535.464 624.704 532.98 c 0
 552.373 510.424 542.445 517.005 462.239 522.385 c 1
 454.787 523.1 449.481 525.499 444.702 530.977 c 0
 404.335 577.238 462.464 567.857 456.609 592.167 c 0
 443.522 646.512 463.949 580.584 438.112 612.6 c 1
 400.777 618.715 375.453 622.59 294.3 609.129 c 1
 270.44 605.129 255.737 597.966 271.8 616 c 1
 269.227 504.786 269.11 554.555 271.641 417.546 c 1
 295.803 413.116 322.659 403.555 364.865 412.465 c 1
 372.582 417.48 340.862 455.348 396.773 488.329 c 0
 426.06 505.604 463.877 500.849 487.686 475.404 c 1
 491.889 470.712 493.938 466.001 493.999 459.841 c 0
 497.137 146.171 494.974 424.457 497.997 231.027 c 1
 497.181 219.773 493.934 213.704 483.153 208.972 c 0
 432.151 186.585 402.576 198.775 381.312 224.587 c 1
 378.812 227.663 377.229 230.909 376.453 234.725 c 0
 363.312 299.287 387.263 279.075 387.933 281.265 c 0
 389.997 288.008 379.917 287.054 354.68 294.416 c 0
 321.566 304.076 307.805 308.946 283.559 302.762 c 0
 265.896 298.257 264.766 296.488 262.806 292.951 c 1
 241.295 190.773 247 209.861 247 119.743 c 1
 246.824 120.124 253.113 114.568 263.148 110.993 c 1
 356.278 91.2285 270.599 108.393 375.406 112.63 c 1
 456.293 152.474 416.034 14.2725 415.911 13.1211 c 1
 413.895 5.95312 400.805 -1.4209 393 -1.125 c 0
EndSplineSet
EndChar
StartChar: G
Encoding: 71 71 7
Width: 818
VWidth: 1080
Flags: HW
Fore
747.612 118.466 m 4
 667.661 9.05859 524.503 1.84473 383.261 -4.86914 c 4
 321.71 -7.79492 278.164 3.27246 225.217 30.2041 c 4
 146.446 70.2715 98.9316 111.184 53.3877 185.513 c 4
 17.7412 243.69 3.27344 292.403 8.05762 360.555 c 4
 14.8379 457.159 47.585 517.664 105.907 592.532 c 4
 160.967 663.21 209.993 702.472 296.05 737.938 c 4
 354.501 762.028 396.854 757.984 453.576 758.897 c 4
 512.423 759.845 553.112 760.18 613.326 742.657 c 4
 670.865 725.913 696.186 707.5 747.23 673.928 c 5
 751.944 670.72 754.972 666.989 756.771 661.753 c 4
 786.56 575.107 769.671 533.183 731.472 458.743 c 5
 718.195 443.274 713.021 439.149 695.028 449.456 c 4
 630.771 486.264 649.958 538.63 638.951 549.617 c 4
 584.997 603.475 547.974 629.12 475.636 638.467 c 4
 411.66 646.732 372.845 639.521 323.504 602.52 c 4
 249.762 547.218 223.669 491.856 213.871 400.245 c 4
 205.526 322.22 217.39 275.377 268.469 215.198 c 4
 314.15 161.378 356.968 143.737 431.229 134.552 c 4
 500.065 126.037 550.266 139.971 574.159 159.89 c 5
 575.842 273.37 580.154 222.427 568.438 282.329 c 4
 565.466 297.521 496.825 269.607 460.92 322.436 c 4
 453.524 333.316 444.529 356.941 464.322 375.744 c 5
 469.054 380.047 473.923 382.27 480.46 382.655 c 4
 803.084 401.709 498.851 385.574 770.72 398.819 c 5
 778.488 398.953 784.152 397.084 789.678 391.895 c 4
 816.435 366.762 806.173 331.504 788.049 311.271 c 4
 772.259 293.645 724.256 335.75 753.877 316.809 c 4
 811.772 279.786 780.785 163.858 747.612 118.466 c 4
EndSplineSet
EndChar
StartChar: H
Encoding: 72 72 8
Width: 851
VWidth: 1080
Flags: HW
VStem: 628 105<131.675 370.125>
Fore
48.8066 663.928 m 0
 77.9287 625.729 142.581 639.511 137.879 645.532 c 1
 130.824 188.71 113.829 422.761 119.821 108.537 c 1
 129.072 117.977 56.3027 146.422 23.2695 106.354 c 0
 0.769531 79.0625 11.9268 43.5957 36.2354 24.8916 c 0
 40.1436 21.8848 44.2695 20.2939 49.2627 19.7178 c 1
 283.63 -4.81152 128.247 8.15918 376.297 11.0264 c 0
 381.821 11.0908 386.336 12.6016 390.83 15.6553 c 1
 419.758 35.9043 423.689 68.083 410.418 93.7363 c 0
 384.139 144.532 313.436 128.181 310.72 131.896 c 1
 302.724 342.91 324.436 64.0293 305.572 351.642 c 1
 698.82 359.371 439.875 356.428 607 347.651 c 1
 607 127.935 611.274 270.168 601.079 125.957 c 0
 601.044 125.464 552.009 134.302 521.49 98.0762 c 0
 497.386 69.4629 500.796 39.8877 499.596 23.7764 c 0
 497.994 2.28516 502.076 0.391602 524 -5.125 c 1
 725.133 -5.125 595.526 -16.6309 789.286 3.52441 c 0
 808.191 5.49121 810.518 12.2197 811.79 30.2471 c 1
 809.734 45.2168 815.734 65.3408 802.853 92.8506 c 0
 787.166 126.352 763.039 133.35 762.065 135.815 c 1
 768.66 570.179 758.725 73.8955 761.965 629.028 c 1
 763.149 631.082 809.531 628.646 834.154 674.527 c 0
 841.069 687.415 850.838 712.469 830.582 733.713 c 0
 826.444 738.053 821.848 740.311 815.773 741.303 c 1
 685.583 760.186 679.101 758.515 555.611 747.166 c 0
 549.818 746.634 545.317 744.624 540.988 740.93 c 1
 513.827 716.969 522.745 682.258 537.215 661.882 c 0
 564.398 623.604 622.35 629.362 616.751 637.76 c 1
 606.768 581.714 615.322 556.744 610.98 455.264 c 1
 450.96 452.838 700.999 452.727 310 455.451 c 1
 310 551.345 305.734 551.161 313.283 653.156 c 1
 306.693 646.896 377.311 619.103 414.818 659.444 c 0
 434.428 680.535 434.494 711.42 414.429 731.974 c 0
 409.424 737.101 404.08 739.257 396.732 739.665 c 1
 126.311 747.193 380.097 745.507 72.4072 750.122 c 0
 65.6953 750.223 60.5947 748.291 55.459 744.184 c 1
 26.9463 720.282 31.9561 686.029 48.8066 663.928 c 0
EndSplineSet
EndChar
StartChar: I
Encoding: 73 73 9
Width: 419
VWidth: 1080
Flags: HW
Fore
283.024 648.268 m 1
 304.661 318.369 284.4 441.259 296.72 116.171 c 1
 295.661 117.619 366.454 140.433 395.213 96.2109 c 0
 413.132 68.6592 404.495 35.4463 376.83 16.0801 c 1
 372.336 13.0264 367.821 11.5156 362.297 11.4521 c 0
 114.247 8.58398 269.63 -4.38672 35.2627 20.1426 c 1
 30.2695 20.7188 26.1436 22.3096 22.2354 25.3164 c 0
 -2.15723 44.0859 -12.751 79.5127 9.13281 106.615 c 0
 44.4639 150.372 131.765 119.002 121.779 109.178 c 1
 114.65 420.705 116.789 186.875 123.879 645.957 c 1
 128.581 639.937 63.9287 626.153 34.8066 664.353 c 0
 17.9561 686.455 12.9463 720.707 41.459 744.608 c 1
 46.5947 748.716 51.6953 750.647 58.4072 750.547 c 0
 366.097 745.932 112.311 747.618 382.732 740.09 c 1
 390.08 739.682 395.43 737.531 400.429 732.398 c 0
 426.458 705.676 402.401 663.232 402.475 660.68 c 1
 401.885 659.148 401.109 657.645 400.2 656.263 c 0
 366.588 605.175 270.905 643.059 283.024 648.268 c 1
EndSplineSet
EndChar
StartChar: J
Encoding: 74 74 2
Width: 343
VWidth: 1000
Flags: HW
VStem: 193 99<-38.4267 510.673>
Fore
120.029 631.304 m 1
 122.142 134.728 120.265 255.816 119.008 -88.2363 c 1
 115.983 -104.753 114.198 -110.257 103.468 -123.011 c 0
 92.2129 -136.389 91.0449 -137.538 87.0967 -138.288 c 0
 83.2197 -139.024 82.0029 -138.506 65.2256 -129.461 c 0
 61.4883 -127.446 55.084 -93.626 13.4688 -89.5088 c 0
 -18.499 -86.3457 -33.2627 -107.428 -42.3633 -118.057 c 0
 -55.4824 -133.376 -67.6064 -153.238 -64.875 -179.146 c 0
 -62.0557 -205.88 -47.3184 -225.863 -26.417 -239.88 c 0
 -2.44043 -255.958 19.6426 -255.251 38.376 -255.612 c 0
 65.8418 -256.141 85.3604 -253.425 111.334 -243.458 c 0
 144.726 -230.646 161.765 -215.955 185.307 -196.675 c 0
 211.254 -175.425 234.52 -160.496 253.36 -124.698 c 0
 268.224 -96.459 267.119 -72.8584 268.914 -52.3994 c 0
 268.982 -51.6113 269.011 -50.8242 268.996 -50.0332 c 1
 262.001 350.912 273.065 294.58 263.172 610.396 c 1
 265.403 614.761 311.484 617.605 334.493 664.054 c 1
 340.469 675.408 347.446 697.362 331.733 716.555 c 0
 331.521 716.81 l 1
 296.331 758.6 246.544 744.406 218.026 746.545 c 1
 156.953 751.38 105.81 751.304 54.3994 735.049 c 0
 43.8789 731.723 39.7686 726.302 37.291 716.035 c 1
 35.6484 705.894 29.5527 677.718 48.123 655.265 c 1
 73.8311 622.295 123.66 625.938 120.029 631.304 c 1
EndSplineSet
EndChar
StartChar: K
Encoding: 75 75 3
Width: 736
VWidth: 1080
Flags: HW
VStem: 105 114<399.875 642.774> 105 122<643.075 651.625>
Fore
428.413 621.877 m 1
 410.359 620.634 376.089 638.291 370.484 664.703 c 0
 360.516 711.797 397.156 734.234 422.156 744.406 c 1
 425.219 745.641 428.281 746.266 431.609 746.328 c 0
 626.5 749.219 453.094 747.703 595.656 738.672 c 1
 598.719 738.469 601.547 737.797 604.344 736.594 c 0
 616.641 731.297 666.047 718.391 661.891 675.734 c 0
 656.828 623.719 587.484 620.859 585.406 619.156 c 1
 585.094 618.906 l 0
 481.328 535.938 490.953 531.328 378.516 399.469 c 1
 506.201 292.443 459.846 328.807 642.749 119.687 c 1
 641.39 124.766 663.728 146.055 696.266 116.562 c 0
 727.953 87.8281 735.125 40.6406 700.016 5.96875 c 1
 694.719 1.03125 689.422 -1.10938 682 -1.32812 c 0
 375 -1.32812 l 0
 367.797 -1.14062 362.438 0.8125 357.328 5.625 c 0
 327.328 33.8906 333.766 71.9375 357.328 94.3125 c 0
 398.969 133.875 430.281 91.2969 436.109 95.8594 c 0
 442.703 101.031 442.656 114.484 440.234 123.328 c 1
 310.375 269.547 406.547 172.688 275.25 303.703 c 1
 278.297 303.406 257.938 291.25 251.375 278.781 c 1
 242.182 198.081 243.16 202.165 250.848 106.103 c 1
 256.308 114.795 287.155 120.192 306.922 86.0781 c 0
 325.188 54.5625 304 23.5312 280.578 9.14062 c 1
 276.312 6.57812 300.047 5.32812 295 5.32812 c 0
 135.656 5.26562 253.234 13.875 36 13.875 c 1
 28.7969 14.0625 23.4375 16.0156 18.3281 20.8281 c 0
 -6.21875 43.9219 -4.45312 79.25 17.4531 101.984 c 0
 49.6852 135.464 86.0735 124.807 94.6658 117.716 c 1
 92.1082 310.923 87.5655 222.604 97.0156 636.422 c 1
 100.516 659.125 44.3906 606.859 26.5312 635.359 c 0
 0.515625 676.844 29.5938 717.859 59.9375 737.469 c 1
 64.4219 740.281 68.875 741.625 74.2344 741.578 c 0
 282.109 739.734 68.0156 739.672 305.781 741.578 c 1
 313.094 741.438 323.5 739.5 328.672 734.625 c 0
 359.562 705.516 359.422 658.047 328.672 628.828 c 0
 308.009 609.201 271.841 611.437 259.416 620.946 c 1
 262.541 433.558 260.523 590.217 257.078 398.094 c 1
 386.034 572.613 214.158 355.71 428.413 621.877 c 1
EndSplineSet
EndChar
StartChar: L
Encoding: 76 76 4
Width: 709
VWidth: 1080
Flags: HW
VStem: 200 129<63.9016 214.002 233.952 566.246>
Fore
113.844 743.469 m 4
 346.469 753.891 159.219 753.812 420.047 743.484 c 5
 425.703 743.172 430.297 741.609 434.703 738.234 c 4
 468.797 712.156 483.719 664.234 456.812 625.828 c 4
 428.531 585.5 380.109 607.734 372.766 603.031 c 4
 360.188 595.016 353.562 584.547 352.062 579.156 c 5
 359.219 237.203 348.359 382.5 354.5 94.6562 c 5
 434.562 94.6562 456.328 91.9062 534.516 124.609 c 5
 535.219 145.703 511.422 179.359 525.484 246.531 c 4
 538.953 310.859 628.172 278.203 647.688 281.453 c 5
 665.609 281.359 672.656 279.266 676.531 262.641 c 4
 702.047 153 699.688 142.938 685.859 22.7188 c 5
 690.766 13.6875 660.516 -5.26562 653.703 2.57812 c 4
 653.203 3.17188 615.453 12.9531 600.141 14.7656 c 5
 352.094 1.57812 358.219 -14.5625 39.5781 14.9688 c 5
 33 15.7188 28.0938 17.9062 23.6094 22.5156 c 4
 -9.75 56.7812 5.92188 81.4219 28.4062 118.016 c 5
 33.7188 125.688 39.2188 129.312 48.8594 129.781 c 4
 126.016 133.547 152.703 108.812 167.75 113.141 c 5
 164.797 320.594 183.672 283.047 176.109 568.797 c 5
 166.078 593.812 148.906 609.172 95.1562 633.75 c 5
 88.5 637.031 84.5156 641.141 82.1875 647.906 c 4
 73.6875 672.578 66.625 710.344 98.2812 737.406 c 5
 102.938 741.234 107.688 743.203 113.844 743.469 c 4
EndSplineSet
EndChar
StartChar: M
Encoding: 77 77 5
Width: 879
VWidth: 1080
Flags: HW
VStem: 95 86<156.889 451.108>
Fore
1.98047 661.401 m 4
 13.5 623.513 80.0273 620.782 69 635.841 c 5
 69 255.268 58.04 422.783 68.7197 123.483 c 5
 85.625 145.279 30.6367 138.707 13.0303 112.817 c 4
 -11.6836 76.4746 17.1338 44.9678 18.21 40.7676 c 4
 21.9082 26.335 26.9766 22.5332 42.4004 20.0957 c 5
 168.771 17.2148 155.256 23.1934 248.772 27.7002 c 4
 264.275 28.4473 268.669 34.1504 272.79 48.3672 c 5
 273.785 55.6152 294.002 85.0908 278.887 117.991 c 4
 256.762 166.148 203.312 165.898 204.905 163.139 c 5
 201.471 382.822 209.836 462.19 205.381 506.137 c 5
 223.325 472.983 237.835 405.182 377.719 65.585 c 4
 378.629 63.376 379.834 61.3867 381.378 59.5225 c 5
 394.188 44.1074 416.39 14.5586 455.441 18.3105 c 4
 486.602 21.3057 497.441 50.7041 498.219 51.7197 c 4
 499.289 53.1201 500.179 54.5947 500.908 56.1797 c 5
 625.905 327.951 654.081 445.368 673.736 486.148 c 5
 672.657 390.827 695.896 327.146 673.002 144.444 c 5
 680.902 154.034 631.635 161.775 604.107 131.593 c 4
 573.438 97.9668 589.938 61.8359 590.133 48.1826 c 4
 590.396 29.7559 595.07 26.5381 613.875 22.0137 c 5
 720.231 17.4619 702.73 6.82617 814.128 22.1758 c 4
 830.066 24.3721 833.619 30.6084 836 45.7393 c 5
 836 65.1709 859.888 102.754 831.435 141.121 c 4
 814.479 163.984 770.213 171.028 784.74 151.478 c 5
 779.218 310.595 785.857 410.465 792.988 634.02 c 4
 792.992 634.16 l 5
 792.662 621.301 866.508 625.602 864.816 652.116 c 5
 887.982 667.025 864.814 725.955 853.036 739.434 c 4
 850.344 742.517 846.226 745.195 842.227 746.467 c 5
 779.284 767.305 748.359 774.221 701.138 747.255 c 4
 696.979 744.88 694.049 741.852 691.781 737.776 c 4
 452.837 297.697 l 5
 363.035 460.682 418.823 394.738 279.135 717.841 c 4
 275.828 725.488 270.818 729.269 262.522 731.767 c 5
 189.041 750.634 142.571 759.354 59.8643 739.463 c 4
 58.2529 739.075 56.7139 738.545 55.2139 737.865 c 5
 33.6992 728.09 -10.5225 702.531 1.98047 661.401 c 4
EndSplineSet
EndChar
StartChar: N
Encoding: 78 78 6
Width: 811
VWidth: 1080
Flags: HW
VStem: 134 65<114 657>
Fore
622.924 662.34 m 5
 613.5 662.105 574.563 630.082 534.575 670.07 c 5
 497.805 704.797 514.642 710.725 520.854 736.399 c 28
 525.162 754.198 523.198 769.795 550.337 772.945 c 4
 710.555 791.539 599.032 784.545 755.173 770.905 c 4
 811.87 765.952 818.587 695.76 761.406 668.059 c 4
 720 648 752.379 657.618 731.959 656.393 c 5
 720.041 392.488 745.089 418.578 727.965 95.6761 c 5
 727.675 91.0157 726.373 87.0295 723.801 83.1325 c 4
 721.278 79.3098 705.029 32.7466 662.121 29.0902 c 4
 622.48 25.7121 601.533 55.9897 589.172 72.7656 c 5
 347.23 374.898 343.262 352.984 235.419 496.775 c 5
 247.973 366.399 220.84 326.968 223.908 120.402 c 5
 221.626 124.696 249.199 143.579 271.385 106.949 c 4
 292.571 71.9695 267.651 37.3696 266.79 30.7665 c 5
 262.669 15.8012 258.275 9.79843 242.773 9.01195 c 4
 149.256 4.26759 162.771 -2.02569 36.4002 1.0072 c 5
 20.9762 3.57315 16.0475 7.60882 12.21 22.7665 c 4
 11.4768 25.6626 -19.7816 60.8489 7.61302 99.4634 c 4
 34.9952 138.06 127.214 133.75 108.667 110.257 c 5
 96.5894 426.957 109 245.191 109 648.764 c 5
 123.832 628.697 36.1045 621.126 16.5566 674.328 c 4
 1.14258 716.281 28.6482 746.718 49.2136 756.553 c 5
 50.7134 757.27 52.2533 757.828 53.8645 758.235 c 4
 136.586 779.178 183.015 770.001 256.523 750.134 c 5
 261.759 748.642 265.771 746.134 269.253 741.948 c 4
 290.757 716.088 591.586 346.119 608.954 322.406 c 5
 622.924 662.34 l 5
EndSplineSet
EndChar
StartChar: O
Encoding: 79 79 7
Width: 783
VWidth: 1080
Flags: HW
HStem: 725.075 0<392.127 431>
Fore
229.968 385.234 m 0
 226.309 316.208 221.053 278.075 251.879 225.015 c 0
 278.881 178.536 304.314 158.979 357.907 142.006 c 0
 410.56 125.33 443.28 124.152 489.018 147.919 c 0
 546.366 177.72 563.323 216.06 590.743 282.088 c 0
 620.792 354.447 628.62 397.125 615.349 471.774 c 0
 604.434 533.166 592.549 566.626 546.716 604.005 c 0
 501.429 640.938 468.225 656.035 414.312 647.081 c 0
 343.272 635.283 309.778 599.166 266.151 533.364 c 0
 233.578 484.234 233.47 451.28 229.968 385.234 c 0
717.441 622.398 m 0
 794.317 518.67 782.687 421.694 759.553 306.905 c 0
 741.259 216.127 689.864 168.12 646.877 106.409 c 1
 557.576 -22.9658 385.163 -22.5957 255.175 30.1865 c 1
 254.306 30.5391 253.464 30.9365 252.643 31.3799 c 0
 152.243 85.6152 43.0771 141.756 22.2793 272.684 c 0
 2.7168 395.837 5.01465 494.289 88.0781 598.373 c 0
 177.328 710.211 284.5 759.363 430.089 758.825 c 0
 551.819 758.375 646.073 718.694 717.441 622.398 c 0
EndSplineSet
EndChar
StartChar: P
Encoding: 80 80 8
Width: 631
VWidth: 1080
Flags: HW
VStem: 100.573 118<107.85 334.9>
Fore
269.786 432.55 m 25
281.206 644.296 m 1
 272.841 553.702 272.979 521.615 281.507 451.138 c 1
 289.199 444.845 312.47 457.961 356.472 476.983 c 0
 383.138 488.512 392.533 493.296 401.087 510.902 c 0
 416.706 543.051 417.546 564.273 401.301 596.019 c 0
 388.732 620.578 374.522 629.141 341.572 640.019 c 0
 313.138 649.406 308.442 652.003 281.206 644.296 c 1
347.786 9.7998 m 0
 235.487 9.70508 187.045 -6.58105 52.5684 9.99707 c 1
 45.8184 10.9883 40.8955 13.4189 36.5264 18.4072 c 0
 0.68457 59.3301 21.6768 112.513 56.5166 140.882 c 1
 58.8125 142.741 61.29 144.134 64.1201 145.127 c 0
 140.552 171.97 111.516 154.749 113.786 157.05 c 1
 115.271 235.38 116.806 286.7 116.786 292.903 c 1
 116.786 293.41 116.804 293.918 116.838 294.424 c 0
 125.71 425.532 121.187 699.771 120.791 662.931 c 1
 120.791 662.931 l 0
 108.382 662.514 129.587 626.465 47.5898 643.019 c 1
 41.876 644.267 37.5439 646.631 33.7373 650.868 c 0
 5.85938 681.9 17.2305 717.707 45.0625 741.503 c 1
 49.9336 745.496 54.8486 747.464 61.2812 747.595 c 1
 159.515 749.583 202.73 752.615 300.153 755.191 c 1
 401.99 757.65 483.193 752.666 561.788 683.662 c 0
 599.816 650.273 609.546 612.328 612.723 570.093 c 0
 615.873 528.207 607.019 494.075 582.7 458.492 c 0
 541.999 398.939 497.242 367.116 429.078 341.151 c 0
 346.411 309.663 293.894 328.798 283.076 327.982 c 1
 284.099 250.264 285.341 222.848 289.702 155.511 c 1
 286.121 156.646 356.024 172.297 387.64 118.233 c 0
 409.398 81.0273 395.233 38.9424 363.304 14.9287 c 1
 358.541 11.4746 353.778 9.80469 347.786 9.7998 c 0
EndSplineSet
EndChar
StartChar: Q
Encoding: 81 81 9
Width: 759
VWidth: 1080
Flags: HW
Fore
177.981 409.795 m 4
 174.623 326.771 178.265 279.902 220.455 212.923 c 4
 249.9 166.178 273.36 144.285 324.771 128.306 c 4
 373.963 113.017 405.177 112.438 447.839 135.033 c 4
 503.653 164.595 517.192 202.145 543.639 268.09 c 4
 572.963 341.211 579.324 382.942 566.319 459.152 c 4
 556.029 519.45 544.498 551.343 501.514 591.31 c 4
 455.794 633.818 423.482 655.614 367.076 651.115 c 4
 300.654 645.818 265.442 614.146 221.226 556.323 c 4
 184.875 508.788 180.597 474.429 177.981 409.795 c 4
540.813 35.5947 m 4
 600 31.6328 653.465 14.3613 719.666 -12.0137 c 4
 866.679 -70.585 1042 -134 1088.65 -131.775 c 4
 1131.95 -129.71 1234 -66 1238.19 -129.214 c 4
 1239.96 -155.919 1251.42 -164.04 1223.98 -194.714 c 4
 1181.75 -241.935 1126.94 -233.961 1082.99 -240.712 c 4
 1040.12 -247.298 1008.46 -248.484 963.461 -240.622 c 4
 828.43 -217.029 757.891 -176.149 636.994 -125.981 c 4
 513.727 -74.8301 363.142 12.3086 336.456 19.1611 c 4
 300.936 28.2832 266.484 41.0146 233.979 54.5244 c 5
 232.918 54.9658 231.897 55.4717 230.91 56.0488 c 4
 136.272 111.303 33.1084 169.675 14.2432 297.177 c 4
 -3.93262 420.023 4.98828 480.496 68.5898 565.948 c 4
 150.273 675.693 244.918 743.215 392.503 746.028 c 4
 513.102 748.327 599.195 700.678 665.635 608.391 c 4
 740.354 504.603 727.627 407.916 705.592 293.36 c 4
 688.392 203.938 640.429 155.995 599.217 93.1719 c 5
 598.94 92.7588 l 4
 582.62 68.9863 515.002 37.3223 540.813 35.5947 c 4
EndSplineSet
EndChar
StartChar: R
Encoding: 82 82 10
Width: 777
VWidth: 1080
Flags: HW
Fore
313.438 636.203 m 5
 304.996 545.592 305.137 506.056 313.721 435.115 c 5
 323.001 427.522 346.72 438.967 389.539 455.611 c 4
 415.528 465.714 424.526 470.575 433.369 488.368 c 4
 451.726 525.303 452.812 550.927 433.522 588.531 c 4
 421.061 612.826 407.265 620.543 373.786 631.597 c 4
 344.854 641.147 340.182 644.312 313.438 636.203 c 5
477.975 350.66 m 4
 514.068 362.405 651.283 230.33 762.834 70.5547 c 5
 769.886 55.29 770.53 48.4404 756.681 38.2031 c 4
 699.523 -4.04199 649.027 -0.240234 571.456 26.5576 c 5
 567.08 28.1123 563.637 30.3936 560.667 33.8203 c 4
 551.822 44.0205 342.208 320.577 341 320.577 c 5
 325.913 320.577 274.982 320.481 290.287 321.985 c 5
 291.373 240.501 291.391 269.059 297.183 149.854 c 5
 292.707 151.271 366.063 166.448 396.192 111.112 c 4
 413.391 79.5254 400.94 47.6348 371.518 25.5059 c 5
 367.462 22.5283 363.282 20.8945 358.176 20.4678 c 4
 257.627 12.0664 201.544 -1.56641 59.9189 20.6963 c 5
 53.7402 21.7871 49.1172 24.1455 45.0186 28.6709 c 4
 7.61816 69.96 33.1592 110.595 65.4648 134.936 c 5
 67.5195 136.478 69.7158 137.666 72.165 138.545 c 4
 147.221 165.486 117.603 140.414 120 142.928 c 5
 122.252 222.096 125.028 281.169 125 287.332 c 5
 125 287.786 125.014 288.239 125.041 288.692 c 4
 132.94 419.08 129.399 693.275 129.003 656.502 c 5
 129.003 656.503 l 4
 117.363 656.171 136.965 619.904 55.7402 636.509 c 5
 50.3291 637.693 46.1396 639.924 42.418 643.84 c 4
 12.9258 674.869 24.4609 718.199 52.2764 741.98 c 5
 57.1484 745.975 62.0654 747.942 68.5 748.072 c 4
 167.074 750.065 209.477 756.627 308 756.627 c 4
 412.258 756.627 500.242 750.554 585.75 677.358 c 4
 624.134 644.502 633.239 606.826 636.913 564.794 c 4
 640.634 522.221 632.715 487.658 606.623 451.554 c 4
 570.532 401.613 531.137 373.297 479.24 351.161 c 5
 478.822 350.983 477.542 350.52 477.975 350.66 c 4
EndSplineSet
EndChar
StartChar: S
Encoding: 83 83 11
Width: 502
VWidth: 1080
Flags: HW
Fore
19.7949 280.002 m 4
 48.3916 309.069 83.2744 295.625 102.272 285.365 c 4
 185.189 240.588 160.472 156.675 198.816 129.904 c 4
 228.389 109.258 250.156 105.478 292.343 109.687 c 4
 326.534 113.098 339.85 115.464 349.251 131.033 c 4
 374.985 173.648 366.81 212.998 333.313 259.889 c 4
 301.4 304.563 254.245 294.642 179.947 333.168 c 4
 149.504 348.954 99.6748 348.737 66.8311 398.34 c 4
 14.6885 477.089 14.1084 554.058 47.626 637.898 c 4
 67.1055 686.626 101.127 714.436 148.853 732.327 c 4
 222.219 759.831 277.213 741.401 342.032 728.738 c 4
 373.971 722.499 422.339 727.492 452.092 683.075 c 5
 454.716 679.062 455.997 675.049 456 670.324 c 4
 456.051 589.379 455.452 576.071 438.515 495.617 c 5
 435.432 485.205 431.022 479.883 419.989 477.216 c 4
 313.186 451.404 333.068 616.897 290.094 641.436 c 4
 256.488 660.624 234.268 665.426 216.754 651.884 c 4
 168.747 614.764 165.687 553.758 197.295 494.87 c 4
 212.526 466.491 244.174 473.94 297.338 448.291 c 4
 339.299 428.047 407.765 435.569 451.791 372.862 c 4
 508.822 291.634 498.888 211.198 465.393 127.096 c 4
 442.976 70.8096 406.878 36.5869 349.651 13.8154 c 4
 278.261 -14.5918 222.356 -2.94141 155.05 12.6582 c 4
 101.46 25.0781 93.6416 32.7412 27.1328 74.8633 c 5
 20.5576 79.3652 17.1338 84.2197 16.1699 91.8643 c 4
 4.67773 182.924 13 202.318 13 263.725 c 5
 13.1699 270.26 15.0967 275.227 19.7949 280.002 c 4
EndSplineSet
EndChar
StartChar: T
Encoding: 84 84 12
Width: 889
VWidth: 1080
Flags: HW
VStem: 327 148<118.167 607.826> 327 165<110.567 118.167>
Fore
204.322 34.2227 m 4
 180.701 56.582 171.441 93.1836 193.874 122.105 c 4
 230.657 169.53 320.215 146.534 307.48 144.956 c 5
 299.581 465.154 349.755 334.965 329.474 636.354 c 5
 309.449 637.306 267.042 646.352 198.28 644.046 c 5
 144.757 613.795 203.121 577.25 108.331 451.396 c 5
 106.819 449.396 105.073 447.694 103 446.217 c 4
 51.6592 409.632 16.0127 486.22 7.21387 512.057 c 5
 5.81543 516.296 5.58594 520.284 6.61816 524.617 c 4
 39.75 663.655 14.3379 601.809 49.043 712.354 c 5
 50.2275 716.043 52.0811 719.128 54.875 721.925 c 4
 81.7559 748.838 110.238 745.559 126.988 748.008 c 4
 252.418 766.349 323.698 739.767 438 739.767 c 4
 545.608 739.767 615.62 771.915 733.116 747.813 c 4
 749.735 744.404 766.052 737.878 779.816 725.99 c 5
 780.274 725.595 780.715 725.186 781.141 724.759 c 4
 839.456 666.338 794.7 709.464 871.004 539.116 c 5
 873.177 534.043 873.641 529.374 872.254 524.057 c 4
 862.958 488.422 826.798 456.779 782.762 465.744 c 5
 776.264 467.216 771.61 469.95 767.705 475.099 c 4
 662.151 614.265 708.006 635.167 666.648 652.157 c 5
 619.629 641.735 542.31 633.299 506 631.059 c 5
 506 477.438 457.35 383.036 522.998 116.749 c 4
 527.841 97.1074 567.129 140.775 586.605 113.866 c 4
 610.648 80.6475 609.127 33.9766 574.005 6.17188 c 5
 569.127 2.46094 564.249 0.672852 558 0.666992 c 4
 436.295 0.556641 372.496 0.882812 217.528 27.6504 c 5
 212.276 28.625 208.113 30.6348 204.322 34.2227 c 4
EndSplineSet
EndChar
StartChar: U
Encoding: 85 85 13
Width: 832
VWidth: 1080
Flags: HW
Fore
301.532 654.446 m 1
 292.659 436.286 270.038 473.6 306.25 242.734 c 5
 329.172 191.656 354.672 154.859 408.906 146.641 c 4
 488.516 134.578 556.594 183.391 593.859 231.812 c 5
 625.6 510.638 598.643 352.213 612.391 648.401 c 1
 603.429 637.595 540.873 628.542 521.484 666.719 c 4
 499.656 709.688 539.297 742.922 565.406 757.391 c 5
 569.234 759.484 573.094 760.547 577.516 760.625 c 4
 732.031 763.484 635.734 763.344 767.125 757.75 c 5
 771.859 757.516 775.906 756.281 779.859 753.797 c 4
 803.641 738.781 835.766 703.062 812.641 665.141 c 4
 799.367 643.389 760.227 639.167 748.633 646.758 c 1
 736.913 446.678 767.388 513.385 735.922 140.281 c 5
 735.641 137.109 734.797 134.219 733.266 131.391 c 4
 704.344 77.5 658.672 56.9375 606.391 39.0625 c 4
 480.969 -3.84375 383.969 -15.4062 254.234 24.6094 c 4
 184.094 46.2344 162.484 92.9688 118.391 126.484 c 5
 112.797 130.984 109.562 135.719 109.125 142.656 c 4
 92.5 402.469 89.6094 588.547 100 646.625 c 4
 85.5312 642.969 50.7031 596.234 20.3281 625.094 c 4
 -9.54688 653.469 5.48438 689.188 15.4219 709.062 c 4
 27.8281 733.891 49.6406 746.25 71.7344 753.594 c 5
 74.125 754.391 76.5312 754.828 79.0469 754.906 c 4
 310.781 763.312 211.062 770.5 390.531 746.141 c 5
 394.969 745.5 398.734 744.031 402.281 741.422 c 4
 428.938 721.906 455.5 678.094 424.156 642.766 c 4
 383.643 597.124 306.212 644.103 301.532 654.446 c 1
EndSplineSet
EndChar
StartChar: V
Encoding: 86 86 14
Width: 706
VWidth: 1080
Flags: HW
Fore
359.951 252.132 m 0
 298.348 531.364 309.134 485.447 229.174 684.089 c 0
 226.527 690.661 315.267 648.191 337.145 681.528 c 0
 352.254 704.55 335.562 728.986 323 737.885 c 0
 318.916 740.777 314.685 742.219 309.604 742.585 c 1
 141.271 752.872 207.496 752.579 49.0879 734.873 c 0
 43.9678 734.301 39.8262 732.533 35.8516 729.415 c 1
 13.96 711.817 9.03125 683.59 20.3232 660.437 c 0
 41.4102 617.199 80.9912 632.295 82.2578 627.847 c 0
 158.7 359.385 193.851 281.314 252.609 41.0801 c 0
 266.448 -15.4971 362.088 -9.26758 384.632 36.1953 c 0
 519.171 307.507 540.581 413.075 651.639 644.212 c 0
 656.91 655.184 712.929 684.958 684.654 730.753 c 0
 679.938 738.394 674.179 741.437 664.931 742.563 c 1
 524.163 752.923 604.877 748.487 484.614 751.177 c 0
 478.207 751.32 473.213 749.573 468.169 745.815 c 1
 450.029 731.717 440.448 706.635 454.021 682.868 c 0
 472.621 650.295 553.103 683.403 546.562 672.997 c 0
 435.727 496.634 499.323 471.071 359.951 252.132 c 0
EndSplineSet
EndChar
StartChar: W
Encoding: 87 87 15
Width: 1079
VWidth: 1080
Flags: HW
Fore
642 612 m 8
 639.152 625.853 663.247 629.19 673.348 630.228 c 0
 691.077 630.228 727.788 645.463 741.001 664.847 c 0
 756.925 688.208 739.372 712.665 727 721.428 c 0
 722.916 724.32 718.685 725.763 713.604 726.129 c 1
 541.181 736.666 586.896 726.345 419.441 729.023 c 0
 412.933 729.128 407.91 727.3 402.852 723.408 c 1
 380.926 705.783 376.03 677.591 387.323 654.43 c 0
 410.674 606.54 452.397 615.693 450.801 617.548 c 1
 486.403 518.616 l 1
 483.842 512.308 387.576 243.639 369.949 246.122 c 0
 357.176 247.922 384.306 246.187 382.988 252.158 c 0
 321.378 531.389 309.134 479.44 229.174 678.082 c 0
 226.527 684.654 315.267 642.185 337.145 675.521 c 0
 352.254 698.543 335.562 722.979 323 731.878 c 0
 318.916 734.771 314.685 736.212 309.604 736.578 c 1
 141.271 746.865 207.496 746.572 49.0879 728.866 c 0
 43.9678 728.294 39.8262 726.526 35.8516 723.408 c 1
 14.9189 706.582 6.26562 677.955 21.1523 652.89 c 0
 53.0117 599.249 122.086 634.021 126.175 622.084 c 0
 217.018 356.906 236.106 275.554 296.711 34.6572 c 0
 306.906 -5.87109 369.28 -1.01562 384.651 30.2266 c 0
 515.886 296.979 567.111 432.974 552.104 395.295 c 1
 541.151 430.445 591.846 309.016 659.664 34.8418 c 0
 669.91 -6.58301 735.509 -2.28223 751.5 29.9307 c 0
 886.338 301.531 906.498 406.787 1018.62 638.169 c 0
 1023.97 649.212 1079.93 678.94 1051.65 724.746 c 0
 1046.94 732.387 1041.18 735.43 1031.93 736.557 c 1
 891.163 746.916 971.877 742.48 851.614 745.17 c 0
 845.206 745.313 840.213 743.566 835.169 739.809 c 1
 817.029 725.71 807.448 700.628 821.021 676.861 c 0
 839.814 643.95 914.963 677.994 912.65 667.213 c 0
 869.396 465.536 876.303 465.297 736.951 246.125 c 0
 730.299 235.663 751.428 246.092 749.998 252.124 c 0
 714 404 662.43 512.615 642 612 c 8
EndSplineSet
EndChar
StartChar: X
Encoding: 88 88 16
Width: 847
VWidth: 1080
Flags: HW
VStem: 506 280<41.05 48.65>
Fore
296 120 m 1
 344 114 359.223 135.774 371.372 105.229 c 0
 389.23 60.3271 331.603 33.4678 326.801 26.626 c 1
 321.142 19.4043 315.478 16.0908 306 16.0498 c 0
 207.32 15.6221 192.1 2.50488 88.5342 16.2793 c 1
 81.7256 17.3496 76.8477 19.8896 72.4785 24.9639 c 0
 66.916 31.4229 25 46.8057 25 89.2002 c 0
 25 128.512 63.0469 143.151 82.1523 150.93 c 0
 126.199 168.863 147.957 142.341 149.743 144.245 c 0
 306.972 311.879 243.661 248.124 364.487 365.491 c 0
 367.476 368.394 366.023 377.728 360.106 392.483 c 1
 194.388 582.843 364.826 386.568 180.211 618.753 c 1
 175.525 620.559 111.476 588.072 54.3799 619.698 c 0
 35.9404 629.912 7.23633 652.923 16.8418 687.159 c 0
 28.8438 729.94 77.3965 731.908 94.501 736.283 c 1
 95.3281 736.495 96.1621 736.665 97.0078 736.795 c 0
 231.301 757.433 276.104 766.152 409.301 727.515 c 1
 412.479 726.581 415.256 725.182 417.831 723.182 c 0
 437.185 708.151 446.77 678.572 427.829 655.188 c 0
 404.637 626.557 420.932 640.171 368 644 c 1
 402.932 592.171 416.577 585.193 467.612 515.701 c 1
 476.805 525.271 600.279 662.993 608.611 671.645 c 1
 566 650 566.098 663.006 560.122 681.633 c 0
 551.258 709.268 569.199 731.656 589.147 741.861 c 1
 592.933 743.764 596.718 744.699 601 744.7 c 0
 731.339 744.729 683.122 761.757 797.149 724.402 c 1
 802.091 722.718 805.844 720.186 809 716.2 c 0
 830.403 689.18 821.285 654.573 797.069 635.31 c 0
 769.23 613.165 730.138 627.732 743.997 633.969 c 1
 607.752 495.777 655.488 536.771 555.435 419.639 c 1
 634.12 294.749 637.984 268.933 716.562 165.356 c 1
 737.131 158.843 780.672 182.295 819.771 140.036 c 0
 854.795 102.181 835 57.7744 835 35.0498 c 1
 831.637 17.9541 828.306 11.5547 810 11.2998 c 0
 597.449 8.3418 689.247 18.9004 530 18.9004 c 1
 512.004 22.0947 506.761 25.3389 505 42.6504 c 0
 503.385 58.5332 488.729 80.918 503.75 116.9 c 0
 521.332 159.019 530.614 135.829 531.831 127.444 c 1
 492.645 198.437 476.458 205.031 441.73 277.648 c 0
 439.422 282.476 441.688 281.939 438.921 277.201 c 0
 377.668 172.321 408 238 338 150 c 1
 338 150 302 138 296 120 c 1
EndSplineSet
EndChar
StartChar: Y
Encoding: 89 89 17
Width: 788
VWidth: 1080
Flags: HW
Fore
190.186 21.5371 m 4
 163.697 51.5684 179.558 88.8379 200.32 107.618 c 4
 238.128 141.815 294.176 116.627 286.919 108.789 c 5
 294.474 187.693 295 215.356 295 305.292 c 5
 212.936 475.638 179.541 474.307 93.8379 619.585 c 5
 110.32 610.166 63.3867 594.226 35.3213 619.378 c 4
 4.8125 646.72 -5.38965 696.301 25.1348 731.404 c 5
 29.916 736.618 34.9043 739.331 41.9541 739.916 c 4
 250.459 757.222 108.495 740.122 326.987 748.979 c 5
 332.831 749.12 337.632 747.781 342.417 744.424 c 4
 364.915 728.641 386.23 693.483 366.541 660.319 c 4
 354.085 639.338 312 628 287.358 653.172 c 5
 358.165 463.042 368.57 490.744 395.256 407.353 c 5
 530.434 626.356 l 5
 559.984 613.82 478.496 610.73 458.606 664.197 c 4
 444.859 701.152 470.887 730.761 493.65 745.137 c 5
 497.3 747.405 501.02 748.65 505.307 748.942 c 4
 663.336 759.703 546.141 759.752 739.394 748.961 c 5
 745.255 748.536 749.922 746.729 754.373 742.893 c 4
 777.479 722.977 786.165 686.253 766.268 658.37 c 4
 729.531 606.894 662.84 643.639 653.943 637.628 c 5
 579.541 503.905 554.485 433.527 457.389 304.816 c 5
 450.228 208.146 491.127 215.123 454.811 95.0654 c 4
 449.365 77.0664 495.615 128.287 523.887 102.435 c 4
 541.512 86.3174 557.361 53.7666 535.815 25.7568 c 5
 531.022 19.9111 525.954 16.8633 518.431 16.1182 c 4
 346.31 -0.923828 381.254 -0.78125 207.018 13.0791 c 5
 199.989 13.8252 194.861 16.2363 190.186 21.5371 c 4
EndSplineSet
EndChar
StartChar: Z
Encoding: 90 90 18
Width: 798
VWidth: 1080
Flags: HW
HStem: 26 59<273 580> 691 34<113 540>
Fore
283.355 110 m 5
 303.255 110 559.641 110 575.04 110 c 5
 605.572 122.611 624.592 143.938 653.05 187.642 c 4
 674.403 220.434 653.25 226.135 693.467 309.828 c 5
 696.477 315.745 700.352 319.566 706.481 322.117 c 4
 737.946 335.209 766.872 317.471 780.438 294.862 c 5
 782.828 290.792 783.997 286.721 784 282 c 4
 784.041 212.51 777.037 181.546 756.325 128.007 c 4
 740.043 85.918 733.156 34.0166 676.765 3.94141 c 5
 673.005 1.96973 669.245 1 665 1 c 4
 406.188 0.970703 474.652 14 214.819 14 c 5
 199.448 11.751 154.298 -41.3945 99.4502 -6.00977 c 4
 53.7529 23.4717 76.7617 77.0586 73.4033 95.5283 c 5
 72.2832 102.996 73.415 108.801 77.9053 114.873 c 4
 358.786 494.747 299.809 413.181 529.645 666 c 5
 504.045 666 287.832 666 261.933 666 c 5
 244.539 660.39 230.31 648.147 208.816 623.54 c 4
 172.729 582.223 174.134 560.926 134.807 490.774 c 5
 132.101 486.095 128.712 482.83 123.846 480.475 c 4
 95.1084 466.569 41.6387 455.137 14.709 498.897 c 5
 11.0293 505.287 9.9668 511.015 11.7715 518.163 c 4
 39.8496 629.359 33.9395 628.763 90.8906 736.669 c 5
 96.5576 745.828 102.229 749.986 113 750 c 4
 704.714 750.725 139.038 742 711 742 c 5
 721.639 741.286 727.822 738.167 733.012 728.853 c 4
 751.979 694.812 716.2 671.44 715.595 670.403 c 5
 714.92 669.247 714.163 668.159 713.313 667.126 c 4
 493.082 399.176 500.655 414.81 283.355 110 c 5
EndSplineSet
EndChar
StartChar: bracketright
Encoding: 93 93 21
Width: 262
Flags: HW
Fore
244.777 315.401 m 0
 244.777 279.235 242.777 178.469 242.777 41.8018 c 1
 241.703 30.2627 238.304 24.2363 227.062 19.75 c 0
 180.5 1.1709 193.559 9.14258 141.16 14.3818 c 0
 133.027 15.1953 99.0771 -16.5703 55.9551 10.6113 c 0
 36.2207 23.0508 27.5869 47.5303 38.1289 68.957 c 0
 57.7783 108.897 100.513 94.6924 103.822 98.8584 c 0
 137.929 141.791 111.851 171.994 121.93 258.175 c 0
 127.065 302.086 126.205 327.064 128.812 373.662 c 0
 132.104 432.512 130.447 467.354 136.901 528.665 c 0
 148.611 639.912 146.697 642.843 84.2646 675.826 c 0
 80.874 677.618 52.5059 654.392 24.1982 684.261 c 0
 11.001 698.186 11.1133 719.408 24.2412 733.188 c 0
 60.3018 771.041 107.778 751.814 135.047 749.453 c 0
 140.614 748.972 287.11 768.765 240.569 696.024 c 1
 236.915 579.744 244.777 500.548 244.777 315.401 c 0
EndSplineSet
EndChar
StartChar: asciicircum
Encoding: 94 94 22
Width: 366
VWidth: 1080
Flags: HW
Fore
186.354 536.068 m 1
 183.648 524.179 173.545 485.471 169 455.484 c 0
 161.016 402.719 -14.5938 414.422 6.4375 470.812 c 0
 33.625 543.688 52.8125 582.875 113.516 700.578 c 1
 116.156 705.531 119.547 708.969 124.562 711.484 c 0
 163.844 731.203 205.938 754.172 254.656 725.969 c 1
 258.016 724 260.672 721.547 262.844 718.328 c 0
 308.891 650.312 310 616.312 330.312 558.75 c 0
 342.078 525.422 351.766 493.609 360.203 463.016 c 0
 375.859 406.219 219.984 411.984 219.984 454 c 0
 219.984 483.591 202.471 524.858 186.354 536.068 c 1
EndSplineSet
EndChar
StartChar: grave
Encoding: 96 96 24
Width: 296
VWidth: 1080
Flags: HW
Fore
38.3779 705.485 m 0
 72.2432 731.287 120.956 747.477 168.484 719.961 c 1
 171.838 717.994 174.487 715.552 176.666 712.333 c 0
 222.708 644.307 223.812 610.317 244.133 552.746 c 0
 255.894 519.426 265.584 487.607 274.017 457.02 c 0
 289.677 400.215 148.963 395.847 125.657 430.809 c 0
 100.59 468.412 67.0713 645.405 37.7666 661.081 c 1
 17.9004 687.25 12.2441 685.573 38.3779 705.485 c 0
EndSplineSet
EndChar
StartChar: a
Encoding: 97 97 3
Width: 480
VWidth: 1000
Flags: HW
Fore
252.078 222.062 m 4
 250.938 235.625 245.469 235.531 242.703 241.719 c 4
 241.969 243.359 243.5 241.562 229.375 237.828 c 4
 215.141 234.078 210.875 230.375 194.453 219.938 c 4
 174.141 207.016 168.344 205.484 160.234 194.328 c 4
 153.141 184.562 152.906 183 153 180.422 c 4
 153.938 149.547 158.203 124.062 170.516 132.672 c 4
 176.562 136.906 164.453 134.828 184.531 143.125 c 4
 211.578 154.312 220.578 154.938 232.016 168.266 c 4
 248.859 187.906 254.109 197.922 252.078 222.062 c 4
376.075 169.232 m 5
 389.501 183.865 414.882 198.583 437.859 187.516 c 4
 473.719 170.25 458.375 130.016 457.953 123.422 c 4
 456.125 94.9844 458.406 61.0469 427.312 30.9844 c 4
 405.219 9.59375 379.953 14.0469 366.781 13.0625 c 4
 346.266 11.5312 322.797 9.125 297.172 21.4688 c 4
 275 32.1562 268.219 49.4375 264.328 53.3281 c 4
 247.75 69.9062 256.625 57.6719 258.469 67.125 c 4
 260.109 75.5469 249.375 55.2031 216.578 36.4062 c 4
 206.297 30.5 195.766 17.0312 170.312 11.5781 c 4
 134.25 3.84375 99.2969 -0.703125 60.5312 23.9375 c 4
 31.2812 42.5469 22.0312 69.9688 15.7031 96.125 c 4
 6.04688 136 7.96875 169.938 22.6719 207.984 c 4
 35.0156 239.953 53.8438 257.672 74.9844 275.188 c 4
 109.281 303.641 135 315.312 172.812 330.25 c 4
 209.906 344.906 225.688 335.875 235.047 343.234 c 4
 236.344 344.25 237.656 346.359 240.719 358.922 c 4
 244.906 376.172 244.344 384.453 240.422 405.422 c 4
 235.609 431.203 235.656 436.766 230.297 440.797 c 4
 228.922 441.812 228.016 442.203 210.031 438.516 c 4
 190.266 434.453 186.391 433.453 179.938 424.922 c 4
 171.828 414.188 175.375 395.562 172.844 372.203 c 4
 167.656 324.234 114.016 300.344 73.1562 311.953 c 4
 30.2344 324.156 17.5625 364.688 24.4062 402.453 c 4
 30.7969 437.797 40.8438 473.156 74.7969 502.031 c 4
 119.641 540.188 164.547 544.5 215.719 546.969 c 4
 246.047 548.422 278.453 547.938 310.391 525.438 c 4
 342.375 502.922 359.875 474.031 366.609 436.422 c 4
 378.359 370.734 372.547 323.531 374.984 256.953 c 4
 376.341 219.506 374.103 198.021 376.075 169.232 c 5
EndSplineSet
EndChar
StartChar: b
Encoding: 98 98 4
Width: 533
VWidth: 1000
Flags: HW
Fore
256.575 436.427 m 0
 230.406 431.276 216.444 421.263 200.279 394.881 c 0
 174.525 352.851 178.308 320.626 180.973 261.137 c 0
 183.307 209.047 187.959 184.788 212.771 141.281 c 0
 226.912 116.486 230.345 109.443 247.806 103.745 c 0
 261.682 99.2178 267.71 99.584 283.127 107.999 c 0
 324.618 130.646 339.589 153.773 362.44 201.772 c 0
 378.426 235.35 383.188 252.541 378.253 287.463 c 0
 371.574 334.726 356.54 356.558 322.511 398.347 c 0
 308.917 415.04 305.678 417.938 287.548 426.291 c 0
 267.643 435.462 264.37 437.961 256.575 436.427 c 0
92.375 844.961 m 0
 135.946 873.282 166.969 803.084 172.759 790.345 c 1
 174.128 787.305 174.862 784.241 174.983 780.908 c 0
 179.55 655.655 179.007 567.869 177.053 499.486 c 1
 175.233 511.77 166.617 524.143 214.106 533.516 c 0
 239.452 538.519 257.479 547.31 290.281 550.852 c 0
 310.242 553.006 336.566 564.121 370.364 548.75 c 0
 431.184 521.09 453.854 476.195 479.36 425.181 c 0
 508.119 367.664 512.753 323.662 513.994 263.546 c 0
 514.766 226.126 511.625 197.458 498.493 161.461 c 0
 487.098 130.226 473.305 109.951 453.146 85.9238 c 0
 437.073 66.7676 421.562 25.2949 372.025 19.1836 c 0
 272.852 6.9502 105.135 -11.0537 55.9512 46.8086 c 1
 52.2969 51.248 50.3828 55.792 50.043 61.5322 c 0
 35.4355 308.357 41.7764 596.466 46.6016 687.179 c 1
 65.3506 658.432 -39.1055 684.928 -12.2051 736.487 c 1
 9.7959 779.388 37.7432 806.839 91.6895 844.499 c 1
 92.375 844.961 l 0
EndSplineSet
EndChar
StartChar: c
Encoding: 99 99 5
Width: 453
VWidth: 1000
Flags: HW
Fore
367.862 349.071 m 0
 327.106 345.945 310.284 386.308 305.268 389.816 c 0
 280.546 407.107 277.348 416.909 265.504 419.612 c 0
 240.409 425.339 227.577 423.23 205.552 408.992 c 0
 189.535 398.639 186.929 391.625 177.438 366.308 c 0
 157.168 312.226 151.499 284.561 159.727 229.685 c 0
 165.832 188.959 171.732 171.031 197.126 147.213 c 0
 209.804 135.321 218.718 134.636 246.451 130.758 c 0
 272.571 127.105 278.519 125.578 292.467 133.619 c 0
 308.934 143.112 310.488 149.721 320.452 177.392 c 0
 341.495 235.838 424.408 208.614 420.946 155.385 c 0
 417.637 104.509 416.366 91.6855 398.052 67.0703 c 0
 375.925 37.3301 349.156 29.1133 322.202 21.0713 c 0
 290.394 11.5811 270.031 16.4404 247.48 16.0088 c 0
 225.129 15.5811 203.713 12.1436 175.377 19.8965 c 0
 142.696 28.8379 117.844 40.1826 91.8477 64.8154 c 0
 56.0332 98.752 32.3496 131.029 20.6719 180.248 c 0
 6.62402 239.455 6.875 286.352 23.9717 345.896 c 0
 40.7852 404.459 59.1748 449.883 110.695 489.768 c 0
 161.014 528.722 208.812 541.436 270.04 538.978 c 0
 310.207 537.365 343.457 533.898 383.678 493.678 c 0
 407.977 469.379 428.681 438.266 419.335 396.328 c 0
 414.392 374.144 397.248 351.325 367.862 349.071 c 0
EndSplineSet
EndChar
StartChar: d
Encoding: 100 100 6
Width: 507
VWidth: 1000
Flags: HW
Fore
270.828 436.547 m 4
 262.609 438.281 260.438 436.719 242.125 427.609 c 4
 225.062 419.125 219.906 414.828 207.516 399.359 c 4
 174.75 358.484 159.234 337.219 152.75 291.484 c 4
 147.672 255.719 149.453 238.453 167.156 210.312 c 4
 186.094 180.234 203.891 171.484 243.031 156.312 c 4
 263.531 148.359 268.203 146.547 279.719 150.594 c 4
 295.562 156.141 299.703 163.984 314.766 188.203 c 4
 335.5 221.516 342.234 238.656 345.062 276.844 c 4
 348.891 328.531 348.516 354.797 324.641 394 c 4
 308.484 420.547 297.078 430.984 270.828 436.547 c 4
325.987 541.088 m 5
 325.003 588.041 325.404 630.36 329.016 727.922 c 5
 329.141 730.984 332.906 738.984 330.938 736.656 c 4
 312.469 714.656 278.219 695.734 270.969 721.125 c 4
 259.266 762.094 302.344 820.484 331.578 839.094 c 4
 377.281 868.172 470.172 815.297 446.312 777.297 c 5
 449.922 694.438 456.656 478.828 454.891 143.875 c 5
 454.953 153.984 488.344 124.141 488 97.6719 c 4
 487.844 85.4844 493.188 39.1094 453.234 21.1875 c 4
 429.344 10.4688 403.625 21.2188 402.016 21.0781 c 4
 362.406 17.875 337.875 82.9375 337.078 70.3438 c 4
 335.141 39.4219 229.688 9.9375 161.016 18.1719 c 4
 112.297 24.0312 97 65.3438 80.7188 85.0938 c 4
 61.4219 108.484 47.8438 127.344 36.5156 158.438 c 4
 23.6094 193.844 19.9219 220.828 21.0156 257.734 c 4
 22.75 317.188 27.7031 359.797 55.5938 416.094 c 4
 81.6719 468.719 108.547 502.406 158.031 535.734 c 4
 183.031 552.562 206.969 560.625 236.875 561.969 c 4
 272.453 563.578 293.641 551.453 317.578 543.828 c 4
 325.987 541.088 l 5
EndSplineSet
EndChar
StartChar: e
Encoding: 101 101 7
Width: 427
VWidth: 1000
Flags: HW
Fore
144.141 293.281 m 0
 141.469 295.953 161.281 257.203 165.672 230 c 0
 171.828 191.906 175.594 175.375 198.219 156.031 c 0
 209.391 146.469 219.141 146.594 246.484 143.875 c 0
 275.484 140.984 283.453 138.938 292.438 145.312 c 0
 296.531 148.219 296.297 154.016 304.484 177.484 c 0
 324.234 233.984 407.938 210.547 404.953 155.641 c 0
 402.062 102.203 399.109 94.5156 384.641 69.4844 c 0
 371.406 46.5781 354.609 32.0156 330.766 22 c 0
 297.375 7.95312 273.469 16.4219 253.484 16.0156 c 0
 231.125 15.5625 209.719 12.1406 181.375 19.8906 c 0
 148.703 28.8438 123.844 40.1875 97.8438 64.8125 c 0
 62.0312 98.75 38.3438 131.031 26.6719 180.25 c 0
 12.625 239.453 12.875 286.359 29.9688 345.891 c 0
 46.7969 404.469 64.75 450.109 116.828 489.875 c 0
 166.812 528.031 215.328 541.312 276.609 534.859 c 0
 315.641 530.75 357.156 524.484 381.344 476.219 c 0
 410.547 417.922 408.578 381.109 391.547 334.625 c 0
 385.719 318.703 372.438 292.172 342.016 290.094 c 0
 335.922 289.672 158.75 278.641 144.141 293.281 c 0
179.367 377.918 m 1
 201.21 379.072 241.411 374.44 266.518 369.81 c 1
 261.575 386.668 285.381 423.984 282.074 426.336 c 0
 270.074 434.848 229.949 432.242 201.975 413.735 c 0
 192.187 407.263 185.472 389.496 179.367 377.918 c 1
EndSplineSet
EndChar
StartChar: f
Encoding: 102 102 8
Width: 349
VWidth: 1000
Flags: HW
VStem: 70 93<94.5219 277.665>
Fore
217.396 488.896 m 1
 194.174 489.928 267.714 523.129 306.51 474.633 c 0
 334.522 439.614 317.81 396.086 291.79 372.478 c 0
 258.182 341.983 198.604 359.124 218.176 359.907 c 1
 214.534 313.777 209.731 346.247 214.994 101.537 c 1
 215 101 l 0
 215 128.69 237.12 124.173 256 99 c 1
 256.317 98.5762 256.621 98.1436 256.911 97.7002 c 0
 283.501 57.1162 265.729 25.374 256.219 12.2959 c 1
 250.604 5.28125 244.982 2.2168 236 2 c 0
 227.803 1.80176 60.0996 2 48 2 c 1
 41.8125 2.11719 36.8955 3.78027 32.1074 7.70215 c 0
 2.85156 31.6641 5.49023 68.834 20.3643 94.5264 c 1
 35.4248 120.539 80.9141 131.94 68.2949 113.012 c 1
 72.9062 230.59 69.082 222.415 71.9004 347.868 c 1
 71.667 348.511 61.6396 346.535 37.5693 376.271 c 1
 36.4238 377.687 35.4541 379.19 34.6396 380.819 c 0
 28.4463 393.204 21.2549 415.792 27.9688 439.865 c 0
 39.2744 480.396 70.2783 491.001 72.8379 497.051 c 1
 81.5889 548.764 58.3174 582.475 93.667 649.247 c 1
 117.231 698.518 147.607 725.021 191.513 753.048 c 0
 221.554 772.226 246.41 775.913 274.89 780.66 c 0
 291.933 783.5 310.187 786.104 331.788 780.059 c 0
 363.757 771.112 412.337 764.596 433.097 714.567 c 0
 444.102 688.048 439.183 657.66 414.4 638.338 c 0
 386.997 616.973 361.09 629.926 346.703 633.813 c 0
 313.867 642.687 307.162 659.198 299.829 660.355 c 0
 275.121 664.254 263.973 663.518 250.766 653.828 c 0
 234.912 642.198 233.709 631.238 225.179 599.663 c 0
 205.931 528.41 217.589 500.725 217.396 488.896 c 1
EndSplineSet
EndChar
StartChar: g
Encoding: 103 103 9
Width: 551
VWidth: 1000
Flags: HW
HStem: 452 20G<111 146>
Fore
300.984 12.0156 m 4
 271.578 20.6406 253.156 12.7031 219.562 -9 c 4
 184.844 -31.4375 170.953 -41.1406 171.969 -59.625 c 4
 173.047 -79.4531 189.375 -90.0312 224.688 -104.953 c 4
 252.594 -116.75 268.547 -113.094 305.438 -104.641 c 4
 339.656 -96.7969 350.031 -97.3125 358.219 -82.7344 c 4
 363.734 -72.9219 362.562 -65.5625 352.312 -43.5 c 4
 336.859 -10.2031 327.141 4.32812 300.984 12.0156 c 4
245.25 449.688 m 4
 232.609 452.688 221.906 445.094 199.484 423.125 c 4
 179.75 403.812 173.688 393.109 171.953 365.438 c 4
 170.281 338.688 174.844 328.188 192.375 303.484 c 4
 213.562 273.625 220.766 264.016 234.859 265.797 c 4
 255.844 268.469 263.859 287.016 277.328 327.016 c 4
 287.484 357.219 287.938 372.812 277.422 402.719 c 4
 266.594 433.5 259.359 446.312 245.25 449.688 c 4
112.973 194.747 m 5
 111.757 195.32 108.759 201.795 99.7188 219.672 c 4
 85.2344 248.312 48.5156 261.766 33.9062 315.328 c 4
 25.3281 346.766 35.5 371.297 39.6875 389.781 c 4
 52.1562 445 93.25 462.688 78.0469 485.594 c 4
 75.0156 490.141 36.5 496.062 51.0312 545.109 c 5
 55.0781 555.719 60 560.812 71.2031 562.703 c 4
 115.766 570.266 131.375 542 143 542 c 4
 171.75 542 189.125 568.625 243.578 573.875 c 4
 266.219 576.062 282.844 573.5 303.219 568.219 c 4
 353.594 555.141 365.328 531.688 390.703 530.984 c 4
 407.594 530.531 421.375 573.781 467.484 559.875 c 4
 473.953 557.922 533.688 583.5 539.828 531.969 c 4
 543.609 500.109 548.688 465.016 529.562 425.219 c 4
 522.547 410.641 509.344 381.547 476.297 377.234 c 4
 466.744 375.982 452.785 380.507 440.182 386.661 c 5
 441.671 375.079 442.439 360.783 441.984 344.312 c 4
 441.125 312.922 446.688 277.406 418.922 240.891 c 4
 377.953 187.016 324.5 190.422 286.969 170.047 c 4
 280.078 166.312 223.109 156.391 220.688 142.125 c 4
 220.453 140.656 221.719 137.359 240.406 128.734 c 4
 278.094 111.328 310.156 144.703 378.484 129.391 c 4
 421.141 119.828 462.156 111.594 497.875 70.3906 c 4
 524.266 39.9531 531.109 6.4375 529.984 -29.7656 c 4
 528.906 -65.0781 517.625 -92.1562 496.562 -118.562 c 4
 453.391 -172.719 410.844 -193.062 352.047 -218.891 c 4
 301.828 -240.953 265.438 -246.516 212.234 -248.969 c 4
 180.828 -250.422 150.703 -253.625 114.641 -235.266 c 4
 83.8906 -219.609 69.8906 -198.656 54.4219 -176.203 c 4
 31.5469 -142.984 -7.09375 -108.391 4.48438 -49.1406 c 4
 12.8594 -6.25 48.9062 5.34375 66.125 18.0938 c 4
 83.3591 30.8536 98.877 36.456 110.521 38.6623 c 5
 107.859 40.9062 l 4
 97.1875 49.875 51.75 63.1875 50.0156 110.078 c 5
 49.8906 114.812 50.8281 118.953 53.125 123.094 c 4
 83.7304 178.578 96.7252 174.146 112.973 194.747 c 5
EndSplineSet
EndChar
StartChar: h
Encoding: 104 104 10
Width: 539
VWidth: 1000
Flags: HW
VStem: 102 86<165.383 333 451 646>
Fore
113 643.819 m 1
 108.832 639.805 85.2194 645.619 65.25 663.438 c 0
 61.5 666.797 26 688.078 34.7969 722.25 c 0
 46.1094 766.25 95.9688 766.484 111.094 769.516 c 0
 144.125 776.125 196.531 799.297 237.984 756.359 c 1
 242.406 751.578 244.656 746.703 244.969 740.203 c 0
 251.822 598.985 248.741 527.223 248 501 c 1
 267.742 507.619 302.126 524.244 315.656 526.625 c 0
 366.953 535.641 402.172 508.734 432.547 484.578 c 0
 458.609 463.844 472.141 440.484 481.797 410.688 c 0
 529.344 263.927 490.862 196.564 492.813 101.415 c 1
 494.124 104.091 501.245 101.627 514.609 72.6719 c 0
 522.156 56.2969 530.766 26.7031 510.578 4.28125 c 1
 504.859 -1.60938 499.266 -4.25 491.062 -3.98438 c 0
 439.906 -2.3125 480.078 -5 325.672 -3 c 1
 318.609 -2.71875 324.344 -0.65625 319.328 4.32812 c 0
 293.234 30.1875 300.656 66.2031 316.578 87.4375 c 1
 328.455 105.247 349.167 113.911 354.757 110.309 c 1
 367.248 183.912 383.228 199.693 364.297 323.125 c 0
 360.359 348.859 346.828 361.641 314.812 377.641 c 0
 300.891 384.609 296.484 384.328 275.312 378.812 c 0
 249.781 372.172 249.844 378.328 248.953 373.562 c 0
 227.085 256.246 249.904 194.991 248.557 121.315 c 1
 251.734 117.823 256.537 111.728 263.078 102.891 c 0
 278.719 81.7656 299.672 41.8125 268.578 7.28125 c 1
 263.312 1.78125 262 -0.859375 254.391 -1 c 4
 127.984 -3.21875 253.812 -3 91 -3 c 1
 85.0938 -2.90625 84.3281 -1.34375 79.6562 2.26562 c 0
 52.9688 22.9219 45.5781 55.0469 59.7656 82.4375 c 0
 79.5248 120.565 112.244 121.21 117.562 114.406 c 1
 107.919 356.474 112.962 327.932 113 643.819 c 1
EndSplineSet
EndChar
StartChar: i
Encoding: 105 105 11
Width: 313
VWidth: 1000
Flags: HW
VStem: 97 80<66 72> 97 85<72 151.447>
Fore
135.33 551.056 m 0
 121.777 551.954 101.206 553.439 84.3223 570.322 c 0
 67.6802 586.964 66 607.982 66 622 c 0
 66 638.523 67.7648 658.691 82.2632 677.344 c 0
 96.1303 695.185 114.477 707.396 139.537 709.877 c 0
 164.773 712.374 195.69 708.558 217.722 683.552 c 0
 237.328 661.298 243.074 630.105 233.612 602.822 c 0
 224.387 576.22 200.251 566.796 188.572 561.345 c 0
 171.273 553.273 154.159 549.809 135.33 551.056 c 0
EndSplineSet
Ref: 305 305 S 1 0 0 1 0 0
EndChar
StartChar: j
Encoding: 106 106 12
Width: 331
VWidth: 1000
Flags: HW
VStem: 164 98<-96 374>
Fore
183.33 551.056 m 0
 169.69 551.959 149.681 553.964 133.322 570.322 c 0
 116.716 586.928 114.499 606.031 114.032 621.109 c 0
 113.424 640.722 117.319 659.408 131.263 677.344 c 0
 145.132 695.184 163.477 707.396 188.537 709.877 c 0
 213.767 712.374 243.84 707.54 265.442 683.841 c 0
 286.159 661.111 292.423 630.507 282.563 602.658 c 0
 272.658 574.683 249.403 567.019 237.876 561.492 c 0
 219.599 552.729 202.376 549.795 183.33 551.056 c 0
EndSplineSet
Ref: 63166 63166 N 1 0 0 1 0 0
EndChar
StartChar: k
Encoding: 107 107 13
Width: 609
VWidth: 1000
Flags: HW
VStem: 81 90<274 647.195> 81 104<57 197>
Fore
244.239 97.1689 m 1
 244.224 97.168 l 1
 244.239 97.1689 l 1
244.239 97.1689 m 1
 253.272 97.1875 271.734 87.5137 281.469 73.3438 c 1
 290.547 60.6562 296.984 34.625 278.672 16.3281 c 1
 274.938 12.6719 270.922 10.4688 265.812 9.46875 c 0
 210.141 -1.51562 133.656 1 74.5781 2 c 1
 68.1094 2.25 63.0938 4.10938 58.2812 8.42188 c 0
 33.875 30.2344 44.5312 59.6719 53.6719 74.0469 c 1
 63.4004 90.5791 84.833 101.331 91.8398 99.5107 c 1
 88.5615 433.424 94.1934 325.971 91.0781 667.719 c 1
 109.422 642.703 52 660.469 38.6406 677.188 c 1
 22.8594 696.125 21.4062 720.656 28.4531 740.406 c 1
 30.5312 745.922 33.5938 749.891 38.5469 753.062 c 0
 69.3281 772.844 65.4531 773.062 83.6094 779.547 c 0
 110.109 789.016 131.344 793.516 161.391 791.953 c 0
 181.453 790.922 219.562 799.516 246.781 764.281 c 1
 247.344 763.531 l 0
 264.516 739.484 259.062 712.219 249.359 692.812 c 1
 243.991 682.085 234.875 672.1 229.526 669.101 c 1
 234.673 491.591 233.791 580.508 232.066 311.432 c 1
 276.565 344.305 233.218 284.529 332.038 389.034 c 1
 325.039 387.749 314.271 388.843 301.016 394.641 c 1
 290.812 398.047 264.562 408.234 262.094 437.922 c 1
 262.031 438.688 l 0
 260.25 472.469 285.219 492 304.297 502.094 c 1
 307.688 503.859 311.094 504.812 314.906 504.969 c 0
 405.781 508.984 433.172 510.938 519.266 516.938 c 1
 525.125 517.25 529.969 516.047 534.875 512.797 c 0
 556.469 498.5 571.562 472.141 562.984 442.953 c 1
 561.188 437.188 558.281 432.984 553.344 429.531 c 0
 413.797 331.609 405.656 331.516 337.25 277.391 c 1
 421.031 198.812 445 198.5 577.766 78.5469 c 1
 583.969 72.4375 586.266 66.625 585.906 57.9219 c 0
 583.906 33.9219 l 0
 581.25 20.4062 577.172 14.2188 563.672 11.4375 c 0
 475.297 -6.75 437.953 7 335 7 c 1
 327.359 7.25 321.844 9.45312 316.625 15.0469 c 0
 287.438 46.3594 317.062 76.5156 327.625 87.9531 c 1
 328.328 88.6719 l 0
 331.114 91.458 334.453 94.5029 338.091 97.4805 c 1
 263.071 136.997 306.234 112.417 246.875 166.562 c 1
 246.671 179.618 245.789 131.008 244.239 97.1689 c 1
EndSplineSet
EndChar
StartChar: l
Encoding: 108 108 14
Width: 335
VWidth: 1000
Flags: HW
VStem: 100 115<89 716>
Fore
258 734 m 4
 258 121.299 l 5
 250.481 125.722 289.213 104.939 303.655 81.1514 c 5
 320.006 59.8955 307.88 23.79 307.445 21.7617 c 5
 302.765 8.17969 297.772 4.05176 283.553 2.00586 c 4
 57.5527 -2.99414 l 4
 48.3809 -2.75195 42.3887 -0.162109 36.874 7.16992 c 4
 15.2764 35.8838 22.7676 66.251 26.5361 84.1504 c 5
 27.6934 89.3203 29.8984 93.3965 33.7197 97.0664 c 4
 53.6064 116.167 108.812 130.179 93.9639 126.306 c 5
 93.0459 611.648 l 5
 104.364 611.351 38.9707 611.556 12.293 650.992 c 5
 8.61914 656.714 7.41895 662.059 8.29102 668.802 c 4
 14.291 707.802 l 4
 14.5068 709.201 14.835 710.562 15.2832 711.905 c 4
 26.0889 744.324 48.8389 757.474 70.001 770.355 c 5
 70.7246 770.795 71.4668 771.197 72.2314 771.562 c 4
 127.73 798.051 183.315 778.221 241.383 757.553 c 5
 252.921 752.148 256.777 746.682 258 734 c 4
EndSplineSet
EndChar
StartChar: m
Encoding: 109 109 15
Width: 780
VWidth: 1000
Flags: HW
VStem: 51 106<119 331> 558 98<137 174.092 137 348> 559 97<123 137>
Fore
750.542 141.777 m 0
 738.512 166.927 720.889 175.01 723.074 167.141 c 1
 725.085 259.646 728.968 208.061 722.989 414.723 c 0
 722.909 417.492 722.395 420.104 721.436 422.705 c 1
 706.53 462.835 683.397 486.822 649.699 508.909 c 0
 616.83 530.452 588.945 537.559 552.271 540.896 c 0
 518.401 543.979 494.049 538.934 463.881 529.965 c 0
 438.055 522.287 432.89 512.317 428.354 511.858 c 0
 416.342 510.641 411.166 515.209 387.717 522.778 c 0
 372.053 527.835 357.103 546.162 320.5 546.99 c 0
 292.358 547.626 280.411 536.197 269.768 532.931 c 0
 228.679 520.316 215.655 522.688 208.268 509.92 c 0
 202.769 500.416 214.977 518.347 194.075 533.938 c 0
 183.985 541.464 166.688 555.012 140.086 555.977 c 0
 132.408 556.255 126.928 553.933 121.322 548.678 c 1
 51.0244 478.38 77.3867 506.146 25.2559 458.564 c 0
 18.3496 452.261 16.4355 445.939 17.2295 436.622 c 1
 21.0039 408.942 83.5918 379.089 68.0645 404.969 c 1
 70.2959 163.882 67.7041 274.172 68.9385 152.011 c 1
 71.4434 156.813 31.1299 146.39 18.2656 106.836 c 0
 10.0039 81.4365 18.25 56.6865 30.7188 39.3828 c 0
 42.54 22.9775 59.3252 16.2012 72.6475 12.1055 c 0
 75.0605 11.3633 77.4756 11.0039 80 11 c 1
 127.403 11 136.057 9.99707 207.353 11.0029 c 0
 209.367 11.0312 211.322 11.2959 213.274 11.7998 c 1
 247.939 20.7871 257.509 44.7734 262.851 61.5205 c 0
 272.213 90.8691 263.574 117.865 248.678 140.027 c 0
 237.214 157.083 211.941 172.229 224 153.28 c 1
 224 276.987 220.506 234.339 223.848 351.295 c 1
 225.937 355.938 233.363 365.12 251.287 375.229 c 0
 270.131 385.857 277.158 388.768 293.457 387.133 c 0
 306.076 385.866 308.651 383.979 315.111 376.638 c 0
 318.751 372.502 319.405 368.384 320.984 357.329 c 1
 319.824 221.556 317.799 312.213 320.887 151.674 c 1
 326.129 162.159 285.658 154.5 269.116 117.059 c 0
 256.152 87.7178 267.633 63.0654 274.874 45.5068 c 0
 279.88 33.3682 288.409 19.3242 303.819 11.6396 c 0
 307.321 9.89355 310.848 9.06055 314.76 9.00098 c 1
 418.186 8.00684 415.387 6.98145 469.926 9.01758 c 0
 473.585 9.15332 476.896 10.0166 480.181 11.6396 c 1
 497.93 20.5137 510.411 37.1182 515.165 54.6377 c 0
 523.028 83.6162 522.695 118.367 499.398 146.756 c 0
 483.54 166.082 449.387 183.128 464.841 152.22 c 1
 462.174 250.896 471.388 214.492 463.263 371.574 c 1
 463.996 373.317 473.105 385.313 488.646 394.439 c 0
 503.344 403.07 507.234 404.704 520.748 404.031 c 0
 538.49 403.148 544.069 400.872 558.526 390.616 c 0
 569.178 383.06 574.396 373.985 575.049 371.539 c 1
 578.181 163.322 576 280.131 576 154.057 c 1
 584.557 179.729 544.475 130.249 539.252 114.755 c 0
 530.464 88.6875 537.572 64.6191 544.665 46.0361 c 0
 549.856 32.4336 558.093 19.4824 573.819 11.6396 c 0
 577.322 9.89258 580.849 9.06055 584.762 9.00098 c 1
 688.858 8.00977 663.746 6.99414 717.926 9.01758 c 0
 721.585 9.15332 724.896 10.0166 728.181 11.6396 c 1
 746.5 20.7998 758.865 35.4258 764.047 54.1865 c 0
 773.57 88.6689 762.731 116.295 750.542 141.777 c 0
EndSplineSet
EndChar
StartChar: n
Encoding: 110 110 16
Width: 542
VWidth: 1000
Flags: HW
VStem: 51 106<119 331>
Fore
448.601 498.163 m 4
 477.976 455.438 473.729 398.31 466.263 380.574 c 5
 474.388 223.492 465.174 259.896 467.841 161.22 c 5
 452.387 192.128 486.54 175.082 502.398 155.756 c 4
 525.695 127.367 526.028 92.6162 518.165 63.6377 c 4
 513.411 46.1182 500.93 29.5137 483.181 20.6396 c 5
 479.896 19.0166 476.585 18.1533 472.926 18.0176 c 4
 418.387 15.9814 421.186 17.0068 317.76 18.001 c 5
 313.848 18.0605 310.321 18.8936 306.819 20.6396 c 4
 291.409 28.3242 282.88 42.3682 277.874 54.5068 c 4
 270.633 72.0654 259.152 96.7178 272.116 126.059 c 4
 288.658 163.5 329.129 171.159 323.887 160.674 c 5
 320.799 321.213 322.824 230.556 323.984 366.329 c 5
 322.405 377.384 321.751 381.502 318.111 385.638 c 4
 311.651 392.979 309.076 394.866 296.457 396.133 c 4
 280.158 397.768 273.131 394.857 254.287 384.229 c 4
 236.363 374.12 228.937 364.938 226.848 360.295 c 5
 223.506 243.339 227 285.987 227 162.28 c 5
 214.941 181.229 240.214 166.083 251.678 149.027 c 4
 266.574 126.865 275.213 99.8691 265.851 70.5205 c 4
 260.509 53.7734 250.939 29.7871 216.274 20.7998 c 5
 214.322 20.2959 212.367 20.0312 210.353 20.0029 c 4
 139.057 18.9971 130.403 20 83 20 c 5
 80.4756 20.0039 78.0605 20.3633 75.6475 21.1055 c 4
 62.3252 25.2012 45.54 31.9775 33.7188 48.3828 c 4
 21.25 65.6865 13.0039 90.4365 21.2656 115.836 c 4
 34.1299 155.39 74.4434 165.813 71.9385 161.011 c 5
 70.7041 283.172 73.2959 172.882 71.0645 413.969 c 5
 86.5918 388.089 24.0039 417.942 20.2295 445.622 c 5
 19.4355 454.939 21.3496 461.261 28.2559 467.564 c 4
 80.3867 515.146 54.0244 487.38 124.322 557.678 c 5
 129.928 562.933 135.408 565.255 143.086 564.977 c 4
 169.688 564.012 186.985 550.464 197.075 542.938 c 4
 217.977 527.347 205.769 509.416 211.268 518.92 c 4
 218.655 531.688 231.679 529.316 272.768 541.931 c 4
 283.411 545.198 295.358 556.605 323.5 555.99 c 4
 357.528 555.245 375.15 539.264 393.47 530.699 c 4
 401.951 526.734 430.084 525.098 448.601 498.163 c 4
EndSplineSet
EndChar
StartChar: o
Encoding: 111 111 17
Width: 486
VWidth: 1000
Flags: HW
Fore
211.552 399.992 m 4
 195.535 389.639 192.929 382.625 183.438 357.308 c 4
 163.168 303.226 157.499 275.561 165.727 220.685 c 4
 171.832 179.959 177.732 162.031 203.126 138.213 c 4
 215.804 126.321 224.718 125.636 252.451 121.758 c 4
 278.571 118.105 284.519 116.578 298.467 124.619 c 4
 314.957 134.126 316.297 140.665 326.492 168.502 c 4
 345.141 219.418 348.108 247.581 340.264 301.378 c 4
 334.697 339.554 329.021 357.239 306.547 385.302 c 4
 292.68 402.618 287.703 406.935 271.504 410.612 c 4
 246.403 416.312 233.577 414.23 211.552 399.992 c 4
253.48 7.00879 m 4
 231.129 6.58105 209.713 3.14355 181.377 10.8965 c 4
 148.696 19.8379 123.844 31.1826 97.8477 55.8154 c 4
 62.0332 89.752 38.3496 122.029 26.6719 171.248 c 4
 12.624 230.455 12.875 277.352 29.9717 336.896 c 4
 46.7852 395.459 65.1748 440.883 116.695 480.768 c 4
 167.014 519.722 214.812 532.436 276.04 529.978 c 4
 316.207 528.365 349.457 524.898 389.678 484.678 c 4
 413.285 461.07 431.998 441.824 447.741 407.383 c 4
 467.325 364.541 469.097 332.407 470.976 290.112 c 4
 473.075 242.833 473.518 210.09 458.924 161.753 c 4
 446.295 119.922 434.16 89.1279 402.039 55.6914 c 4
 378.924 31.6299 357.563 20.8711 328.202 12.0713 c 4
 296.405 2.54102 276.031 7.44043 253.48 7.00879 c 4
EndSplineSet
EndChar
StartChar: p
Encoding: 112 112 18
Width: 519
VWidth: 1000
Flags: HW
VStem: 71 97<124 339> 71 129<-178 -4>
Fore
259.593 8.96289 m 5
 230.241 6.5166 286.854 1.88086 296.521 2.01074 c 4
 316.765 2.2832 337.894 2.25781 362.895 13.041 c 4
 397.432 27.9385 415.173 46.3613 438.487 69.1367 c 4
 457.533 87.7402 475.546 103.1 488.958 134.104 c 4
 508.77 179.905 507.567 212.684 508.984 255.154 c 4
 510.524 301.35 507.194 330.688 496.312 375.817 c 4
 488.663 407.539 485.51 439.027 456.727 471.562 c 4
 431.041 500.596 402.803 510.813 370.23 519.211 c 4
 333.376 528.711 304.086 527.991 267.281 519.337 c 4
 228.507 510.22 212.542 494.175 207.402 491.22 c 5
 202.632 495.082 192.991 529.413 146.153 525.932 c 4
 142.761 525.68 139.675 524.804 136.639 523.27 c 5
 91.5537 500.267 33.6543 483.523 21.5469 420.203 c 4
 18.9092 406.407 23.0664 400.33 34.8193 392.64 c 5
 76.1045 371.997 79.1152 374.056 82 368.697 c 5
 82 -79.0664 84.1943 169.308 83.0195 -134.883 c 5
 84.1836 -132.132 39.5625 -145.051 32.4033 -187.613 c 4
 28.4141 -211.328 40.9453 -235.047 60.8975 -247.291 c 4
 64.6562 -249.598 68.4941 -250.747 72.8984 -250.976 c 5
 142.048 -254.026 185.331 -252.164 276.729 -252.998 c 4
 283.621 -253.062 288.777 -250.919 293.957 -246.37 c 5
 318.232 -223.962 314.358 -193.719 306.356 -173.106 c 4
 292.58 -137.619 256.531 -126.703 261 -136.634 c 5
 261 15.1924 258.049 -77.4756 259.593 8.96289 c 5
229 370.082 m 4
 228.512 374.839 230.619 369.751 253.964 378.665 c 4
 271.344 385.301 277.783 385.938 295.073 381.713 c 4
 314.233 377.031 320.997 372.431 335.946 356.715 c 4
 356.179 335.445 362.249 322.641 371.137 293.562 c 4
 376.125 277.242 375.83 275.3 373.282 257.729 c 4
 367.682 219.09 366.247 201.295 348.012 177.014 c 4
 330.057 153.104 317.825 143.714 292.877 138.469 c 4
 272.213 134.124 265.137 136.015 247.917 146.402 c 4
 230.149 157.121 229 160.042 229 165 c 4
 229 276.515 244.505 218.962 229 370.082 c 4
EndSplineSet
EndChar
StartChar: q
Encoding: 113 113 19
Width: 492
VWidth: 1000
Flags: HW
VStem: 299 94<131 458>
Fore
436 476 m 0
 436.985 -4.85938 437 125.66 437 -141.509 c 1
 435.36 -137.957 481.261 -148.21 488.695 -194.15 c 0
 493.031 -220.94 478.022 -241.364 460.867 -252.801 c 1
 456.999 -255.331 453.062 -256.688 448.447 -256.958 c 0
 377.861 -261.089 335.413 -258.008 244.271 -258.998 c 1
 237.767 -258.93 232.684 -257.198 227.73 -252.981 c 0
 201.13 -230.337 207.342 -199.026 214.655 -180.056 c 0
 228.05 -145.312 263.417 -133.144 259 -144.186 c 1
 259 12.0322 261.915 -81.4473 260.406 3.04395 c 1
 288.712 0.583008 236.635 -5.5293 223.914 -4.97656 c 0
 201.768 -4.01367 183.938 -4.38379 158.716 5.79102 c 0
 122.602 20.3613 104.515 41.6172 82.5889 63.082 c 0
 64.8027 80.4941 44.2939 96.4717 31.042 127.104 c 0
 11.2695 172.811 12.9512 206.394 12.0059 248.438 c 0
 10.9746 294.362 12.8115 324.031 23.7188 368.944 c 0
 31.6104 401.442 36.1631 432.712 64.2432 464.519 c 0
 89.5332 493.163 118.462 504.147 149.764 512.21 c 0
 187.832 522.015 217.028 520.847 252.796 512.318 c 0
 290.941 503.224 308.702 487.034 313.408 484.328 c 1
 314.523 485.253 326.104 522.542 374.847 518.932 c 1
 378.239 518.667 381.331 517.815 384.361 516.27 c 0
 496.973 458.829 348.959 529.248 420.701 499.041 c 1
 431.277 493.493 435.976 487.942 436 476 c 0
292 363.082 m 0
 292.492 367.859 290.193 362.998 267.229 371.59 c 0
 248.078 378.754 243.671 379.706 225.444 374.846 c 0
 206.598 369.819 199.986 365.406 185.127 349.784 c 0
 164.284 327.87 157.99 315.643 148.889 286.636 c 0
 144.842 273.738 144.727 266.362 146.811 250.055 c 0
 151.562 212.882 153.565 195.737 172.946 170.069 c 0
 191.157 145.951 201.741 137.024 228.144 131.465 c 0
 246.562 127.587 253.606 129.253 272.083 140.402 c 0
 290.726 151.652 292 154.864 292 158 c 0
 292 269.515 276.433 211.968 292 363.082 c 0
EndSplineSet
EndChar
StartChar: r
Encoding: 114 114 20
Width: 403
VWidth: 1000
Flags: HW
Fore
57.7148 3.78809 m 4
 35.6201 12.5654 30.0713 31.6494 26.5479 41.3389 c 5
 22.6631 51.6982 19.7734 68.4482 27.6396 84.1807 c 5
 45.5127 119.926 73.4131 122.728 71.3223 118.546 c 5
 76.9814 221.556 69.3438 211.51 72.8633 349.957 c 5
 75.2139 344.714 16 361.532 16 412 c 5
 16.0488 416.848 17.1895 421.021 19.7354 425.146 c 4
 51.5781 476.743 62.4561 501.831 111.101 520.362 c 5
 111.357 520.459 l 4
 137.583 530.121 162.557 524.672 183.181 514.36 c 5
 185.485 513.203 187.521 511.768 189.376 509.975 c 4
 215.959 484.283 196.128 504.397 216.612 493.515 c 5
 208.303 488.807 222.214 535.671 296.248 531.969 c 5
 296.917 531.927 l 4
 352.643 527.64 376.556 479.723 387.147 439.474 c 5
 394.925 410.958 388.022 384.376 372.633 361.883 c 5
 372.424 361.583 l 4
 360.808 345.126 339.329 316.985 302.465 322.251 c 5
 302.007 322.316 301.551 322.395 301.097 322.485 c 4
 265.052 329.694 262 354 238 384 c 5
 232 342 243.252 353.08 229.776 342.599 c 5
 226.598 169.893 231.514 285.119 229.077 141.328 c 5
 223.24 156.892 245.816 143.355 255.233 118.243 c 5
 264.869 95.3594 267.151 65.1562 245.893 40.627 c 5
 242.518 36.8213 238.757 34.3643 233.868 32.9619 c 4
 187.95 19.7881 127.411 15.1357 72.5586 2.62598 c 5
 67.334 1.50586 62.6807 1.81543 57.7148 3.78809 c 4
EndSplineSet
EndChar
StartChar: s
Encoding: 115 115 21
Width: 362
VWidth: 1080
Flags: HW
Fore
26.7842 193.46 m 4
 72.9482 283.685 128.219 111.992 165.405 115.865 c 4
 188.501 118.271 204.713 137.752 206.024 166.073 c 4
 206.665 179.91 196.656 186.71 169.403 208.462 c 4
 142.825 229.676 72.5459 204.482 37.958 269.203 c 4
 16.6211 309.129 14.3389 329.127 16.0195 372.981 c 4
 18.6885 442.606 64.3838 481.891 115.151 512.444 c 4
 148.572 532.559 182.681 537.265 220.47 527.148 c 4
 262.18 515.982 298.536 494.193 316.241 449.203 c 4
 329.633 415.174 324.438 390.642 304.544 349.193 c 4
 269.153 275.458 228.732 389.669 217.26 397.117 c 4
 190.546 414.463 185.246 419.205 175.515 416.156 c 4
 153.265 409.186 144.431 396.029 147.408 382.401 c 4
 152.231 360.318 188.677 376.27 234.59 339.54 c 4
 273.317 308.559 320.492 289.108 340.811 225.618 c 4
 357.614 173.111 352.327 124.337 320.508 78.7021 c 4
 289.801 34.6621 247.867 26.4414 207.927 16.7129 c 4
 173.729 8.38281 144.995 8.625 111.257 16.6709 c 4
 87.5234 22.3311 54.2266 26.5176 32.9961 59.4414 c 4
 6.9248 99.873 -0.161133 140.799 26.7842 193.46 c 4
EndSplineSet
EndChar
StartChar: t
Encoding: 116 116 22
Width: 352
VWidth: 1080
Flags: HW
VStem: 64 88<157 355>
Fore
319.104 495.241 m 0
 348.799 464.255 346.722 417.271 319.538 387.228 c 1
 314.415 381.889 309.201 379.27 301.806 379.013 c 0
 217.175 376.082 247.609 379.936 196.482 378.142 c 1
 199.584 379.176 186.732 366.602 195.126 380.032 c 1
 196.929 277.262 195.778 334.449 194.03 189.389 c 1
 204.994 135.943 200.659 127.941 213.139 124.169 c 1
 214.102 124.212 244.658 150.346 283.633 141.356 c 0
 337.437 128.947 303.879 71.2686 296.287 58.8936 c 0
 286.226 42.4932 275.287 37.2656 260.541 24.2539 c 1
 258.021 22.0479 255.294 20.4473 252.127 19.3574 c 0
 216.285 7.02539 187.561 7.21582 153.891 13.3369 c 1
 112.282 19.6416 81.2959 47.7285 60.7588 80.8164 c 1
 58.1875 85.0605 56.9521 89.292 57.001 94.2549 c 0
 58.7539 271.093 57 244.347 57 371.399 c 1
 64.6377 366.457 25.7939 389.385 14.4287 413.252 c 1
 14.2412 413.655 l 0
 1.94922 440.697 16.8457 463.429 20.7881 473.285 c 1
 21.9697 476.213 23.5693 478.75 25.7236 481.058 c 0
 125.582 588.063 62.3271 513.797 121.019 582.27 c 1
 125.193 586.951 129.707 589.604 135.89 590.66 c 0
 160.731 594.9 183.427 582.214 194.251 564.172 c 1
 213.276 534.445 204.606 488.782 203.539 507.99 c 1
 217.372 509.112 241.16 507.445 302.824 502.934 c 1
 309.479 502.292 314.478 500.069 319.104 495.241 c 0
EndSplineSet
EndChar
StartChar: u
Encoding: 117 117 23
Width: 498
VWidth: 1080
Flags: HW
VStem: 47 93<142 375> 291 86<127 394>
Fore
302 414.241 m 6
 293.559 406.373 249.92 409.692 232.625 438.062 c 4
 216.75 464.078 227.109 490.594 240.797 507 c 4
 264.25 535.156 294.656 532.531 314.031 534.828 c 4
 348.812 538.938 379.906 540.859 417.375 525.172 c 4
 423.219 522.734 455.531 515.5 460.656 484.078 c 4
 464.891 458.141 433.031 427.016 438 441.938 c 5
 438 422.75 438 188.484 438 171.391 c 5
 461.859 139.797 442.469 162.031 480.609 131.516 c 5
 492.5 117.828 495.266 111.281 484.672 96.5781 c 4
 448.062 45.7656 429.062 25.9844 358.688 3.21875 c 5
 355.844 2.29688 353 1.90625 350 2.01562 c 4
 305.701 3.78183 298.713 29.8124 293.98 42.3446 c 5
 291.245 41.6921 287.6 40.8863 283.172 39.7812 c 4
 253.188 32.2812 228.953 8.625 178.844 11.0312 c 4
 151.219 12.3438 127.406 21.7969 106.469 40.25 c 4
 78.4219 64.9531 66.1406 93.2031 58.6562 125.312 c 5
 58.2188 127.203 58 129.078 58 131 c 4
 58 338.545 57.0112 53.5054 57.0001 398.6 c 6
 57.0001 398.646 l 6
 51.3206 394.573 26.0251 404.916 13.75 428.594 c 4
 7.34375 440.969 5.25 460.391 14.6562 476 c 4
 39.9688 518.047 80.7188 524.219 113.172 532.312 c 4
 122.422 534.609 137.531 535.438 149.422 531.828 c 4
 164.953 527.125 187.203 518.5 198.359 496.188 c 5
 200.094 492.672 200.969 489.141 201 485.234 c 4
 203.281 241.219 201 379.984 201 184.922 c 5
 207.922 173.375 234.219 153.641 261.281 157.719 c 4
 283.812 161.125 294.328 178.531 303 199.891 c 5
 303 323.538 302.015 140.599 302 414.005 c 6
 302 414.241 l 6
EndSplineSet
EndChar
StartChar: v
Encoding: 118 118 24
Width: 488
VWidth: 1080
Flags: HW
Fore
13.8096 506.515 m 0
 -7.36035 465.698 24.8242 431.82 41.3223 415.322 c 0
 56.2842 400.36 70.4502 398.645 54.8945 410.744 c 1
 97.7012 290.522 86.6387 347.867 140.805 161.672 c 1
 148.531 128.445 136.957 98.335 163.545 44.0107 c 0
 164.575 41.9062 165.852 40.0205 167.418 38.2764 c 1
 193.14 9.69629 234.897 3.13477 267.422 23.9082 c 0
 271.988 26.8252 274.971 30.4766 277.106 35.4561 c 1
 299.962 90.791 285.317 115.067 301.302 151.603 c 1
 417.545 348.865 371.669 309.934 441.26 414.32 c 1
 425.592 403.129 455.668 408.457 467.661 429.553 c 0
 483.045 456.611 481.269 487.553 461.339 511.844 c 0
 432.99 546.396 394.888 540.082 371.959 541.922 c 0
 339.67 544.513 326.728 549.427 291.026 529.945 c 0
 254.603 510.069 270.464 489.855 276 464 c 0
 281.815 436.841 270 470 296.157 431.199 c 0
 300.895 424.172 295.265 419.576 285.825 383.367 c 0
 260.079 284.61 260 300 246 248 c 8
 244.479 242.352 231.924 242.224 231 248 c 16
 223 298 230.543 246.708 209.67 375.051 c 0
 205.146 402.861 211.787 363.404 206 388 c 0
 198 422 192 428 206 448 c 0
 214.11 459.586 255.816 506.543 208.181 530.36 c 0
 175.727 546.588 157.833 546.583 121.249 543.937 c 0
 94.8604 542.027 39.2051 555.478 13.8096 506.515 c 0
EndSplineSet
EndChar
StartChar: w
Encoding: 119 119 25
Width: 712
VWidth: 1080
Flags: HW
Fore
372.113 542.648 m 1
 335.81 555.461 302.242 556.009 260.403 531.595 c 0
 257.849 530.104 255.694 528.272 253.795 526.005 c 1
 234.059 502.321 242.67 474.758 250.488 459.122 c 1
 270.625 415.972 298.983 417.565 308.712 401.892 c 1
 310.419 399.099 306.574 362.375 301.746 343.063 c 0
 301.698 342.866 l 1
 287.947 285.899 284.326 305.823 258.291 287.553 c 1
 190.513 367.292 219 370 203 418 c 8
 198.979 430.064 204.607 433.43 216.814 447.537 c 0
 221.066 452.451 222.86 457.503 223 464 c 1
 223 490.893 212.847 512.116 197 524 c 0
 195.499 525.126 193.911 526.059 192.198 526.825 c 1
 139.227 550.493 100.316 543.387 52.4834 534.589 c 0
 49.165 533.979 46.2109 532.789 43.375 530.961 c 1
 13.6074 511.612 6.62988 478.949 9.08594 450.924 c 0
 9.66504 444.325 12.1221 439.48 16.834 434.824 c 1
 51.0303 402.529 38.3916 408.315 55.5361 374.025 c 1
 115.335 248.733 98.9395 163.52 176.968 18.1855 c 0
 179.654 13.1807 183.253 9.87598 188.355 7.37988 c 1
 223.349 -9.08789 250.019 17.54 262.012 28.6797 c 0
 263.744 30.2891 265.189 32.0732 266.413 34.0977 c 1
 325.582 132.292 313.755 109.988 347.921 208.89 c 1
 354.394 215.901 368.021 228.838 364.308 229.057 c 1
 348.776 230.251 370.193 211.739 370.751 211.042 c 1
 390.657 115.839 372.818 116.951 446.781 15.2959 c 0
 449.216 11.9502 452.132 9.51367 455.819 7.63965 c 1
 484.396 -6.64844 509.36 10.165 522.894 22.5713 c 0
 523.986 23.5732 524.976 24.6562 525.876 25.8359 c 1
 658.108 199.15 624.332 255.217 672.008 406.825 c 1
 671.576 406.087 687.763 414.471 694.86 437.536 c 1
 702.477 461.474 705.849 491.047 685.859 517.187 c 0
 685.521 517.617 l 1
 664.914 543.377 636.486 541.167 621.58 541.951 c 1
 599.354 543.598 559.615 552.742 532.247 517.324 c 1
 517.218 498.001 523.51 475.079 529.542 463.015 c 1
 545.365 429.929 552.17 438.132 556 425 c 0
 556.138 424.543 l 1
 562.948 402.75 554.993 391.622 543.072 348.272 c 1
 519.842 278.581 520.644 273.254 498.587 268.02 c 1
 446.527 306.845 480.462 263.574 454 330.747 c 1
 454 346.666 445.769 416.606 448.212 422.715 c 0
 448.522 423.532 l 1
 451.304 431.259 472.869 429.73 493.734 466.646 c 1
 506.636 489.224 504.397 518.79 483.816 537.498 c 0
 482.458 538.734 480.998 539.794 479.403 540.706 c 1
 446.413 559.558 393.699 550.157 372.113 542.648 c 1
EndSplineSet
EndChar
StartChar: x
Encoding: 120 120 26
Width: 542
VWidth: 1080
Flags: HW
HStem: 471 20G<117.5 159.5>
Fore
51.6377 409.823 m 1
 15.149 419.971 18.1216 511.221 53.9365 520.254 c 0
 115.783 535.847 111.792 544 168 544 c 1
 195.581 544 250.653 551.39 277.643 510.112 c 1
 293.965 487.261 295.769 456.131 278.131 437.628 c 0
 268 427 264.655 422.214 268 412 c 17
 278.384 403.153 270.829 386.027 299.177 392.392 c 1
 320.295 400.401 335 413 338 419 c 8
 341.021 425.043 342.51 430.04 339.801 436.229 c 24
 333.419 450.809 317.912 425.525 307.105 460.647 c 1
 295.339 501.218 330.639 524.025 346.65 534.137 c 1
 350.177 536.332 353.784 537.563 357.924 537.914 c 0
 376.271 539.465 390.752 546.569 419.334 543.891 c 0
 440.601 541.897 490.183 557.754 516.981 513.614 c 1
 536.329 485.668 522.291 453.119 512.218 435.492 c 1
 499.906 409.109 457.689 405.729 472.582 422.275 c 1
 427.665 373.081 387.656 337.944 352.401 291.15 c 1
 371.332 243.23 417.276 219.777 491.788 123.279 c 1
 493.445 121.123 494.697 118.825 495.597 116.259 c 0
 500.221 103.061 520.083 72.6826 497.424 40.583 c 1
 494.818 36.9541 491.739 34.3223 487.702 32.4062 c 0
 445.445 12.3528 425.812 14.9998 394.264 12.1025 c 0
 361.72 9.14453 324.083 4.48828 284.097 12.4854 c 1
 279.58 13.4307 290.844 15.2529 287.391 18.3145 c 0
 264.394 38.71 273.211 68.5684 274.064 78.8184 c 1
 275.953 109.031 292.32 89.0023 302 98 c 24
 307.487 103.101 314 113 314 113 c 0
 310.769 106.538 317.961 132.013 311 140 c 24
 302.28 150.005 293.306 141.693 278.01 148.344 c 1
 270.924 148.816 261.499 148.705 252.735 148.381 c 1
 231.123 126.768 242.629 142.935 239 137 c 24
 235.249 130.864 233.509 126.035 235 119 c 24
 237.288 108.204 232.068 121.915 251.815 96.2432 c 1
 252.219 94.7041 l 0
 271.947 67.5771 251.668 41.4346 248.36 34.8193 c 1
 234.728 7.55273 206.336 17.3131 195.32 13.4248 c 1
 193.33 12.7246 191.315 12.2852 189.214 12.0986 c 0
 146.218 8.27441 118.069 2.58398 73.5117 12.6094 c 1
 51.0274 17.6812 31.121 33.3825 21.9844 56.2236 c 1
 13.5361 74.999 -0.0576172 109.721 26.166 139.44 c 1
 58.8164 177.247 100.491 152.696 104.191 154.546 c 1
 176.571 226.926 174.093 223.564 198.869 267.111 c 1
 174.527 319.04 180.158 324.99 124.411 400.723 c 1
 114.538 407.423 100.155 397.056 51.6377 409.823 c 1
EndSplineSet
EndChar
StartChar: y
Encoding: 121 121 27
Width: 545
VWidth: 1080
Flags: HW
Fore
130.177 -53.9727 m 0
 125.75 -56.332 105.841 -27.1289 63.2334 -48.4326 c 1
 33.9131 -61.7598 18.5742 -83.8486 14.5928 -115.704 c 1
 7.06152 -134.531 -5.70605 -168.821 18.3447 -204.083 c 0
 19.9697 -206.467 21.8936 -208.449 24.2158 -210.16 c 1
 69.3535 -243.261 106.219 -259.121 155.778 -240.408 c 0
 161.798 -238.136 165.749 -234.555 168.947 -228.972 c 1
 402.238 198.729 364.893 153.599 489.117 411.986 c 1
 494.53 413.955 514.814 414.73 524.063 432.247 c 0
 543.921 469.853 527.07 507.06 505.148 530.193 c 0
 503.443 531.993 501.554 533.473 499.403 534.706 c 1
 471.308 550.761 445.338 549.188 419.845 547.973 c 0
 382.709 546.201 354.321 543.239 318.271 524.078 c 0
 315.499 522.604 313.171 520.739 311.107 518.373 c 1
 290.173 494.218 290.722 459.076 310.793 435.005 c 0
 329.663 412.374 361.384 418.804 345.977 427.683 c 0
 344.551 428.504 346.578 425.11 344.155 402.779 c 0
 334.946 317.882 321.74 310.646 293.472 256.604 c 1
 292.912 256.184 277.346 254.2 280.892 251.906 c 1
 258.867 302.247 249.029 307.43 234.68 397.984 c 0
 230.812 422.391 230.409 424.438 229.146 422.924 c 0
 217.702 409.213 248.25 402.904 269.47 429.323 c 0
 293.95 459.802 282.741 497.229 262.465 518.857 c 1
 228.47 557.102 183.17 546.599 151.697 544.966 c 0
 114.202 543.021 89.2646 543.745 37.9463 512.321 c 0
 35.7939 511.003 33.9268 509.431 32.2539 507.541 c 1
 12.6104 485.278 15.0645 459.719 22.209 443.728 c 0
 37.5869 409.309 75.2725 394.956 87.4678 393.162 c 1
 132.35 303.399 143.603 292.882 177.463 120.214 c 0
 183.845 87.6699 187.08 75.5371 181.598 50.4277 c 0
 169.538 -4.80664 165.093 -35.3623 130.177 -53.9727 c 0
EndSplineSet
EndChar
StartChar: z
Encoding: 122 122 28
Width: 526
VWidth: 1080
Flags: HW
HStem: 470 21G<102.5 175.5>
Fore
72.0967 306.485 m 0
 27.9131 315.193 13.3086 362.61 33.2305 377.615 c 1
 38 414 25.6914 465.29 39.8232 506.362 c 1
 43.9443 517.82 51.8379 523.133 63.8994 524.807 c 0
 129.897 533.969 132.938 525 163 525 c 0
 268.854 525 327.447 540.288 445.262 524.786 c 1
 450.797 523.975 455.184 521.956 459.241 518.104 c 0
 494.74 484.397 473.361 441.872 465.801 418.35 c 1
 464.909 415.6 463.628 413.146 461.881 410.842 c 0
 266.828 155.02 l 1
 266.947 155.854 273.728 147.565 264.241 154.465 c 1
 317.272 144.032 286.731 140.269 340.366 154.571 c 1
 377.031 171.903 374.699 226.975 430.383 271.521 c 1
 437.847 276.917 444.2 278.522 453.054 275.984 c 0
 507.193 260.464 508.402 199.208 510.914 169.076 c 1
 510.924 168.955 l 0
 514.766 119.97 520.517 60.1562 466.763 20.8242 c 1
 462.023 17.4727 457.318 15.8975 451.515 16.0049 c 0
 349.666 17.8936 331.554 12.5244 251.535 14.0049 c 0
 174.287 15.4336 176.985 3.04004 38.5654 22.2373 c 1
 30.8184 23.582 25.5996 26.6162 21.1992 33.1328 c 0
 0.538086 63.7246 28.2627 98.3525 35.4053 110.597 c 1
 36.0449 111.692 36.7588 112.728 37.5566 113.715 c 0
 174.027 282.568 178.936 272.918 262.877 389.068 c 1
 271.623 411.422 274.164 420.135 271.259 423.455 c 0
 256.678 440.122 231.094 436.785 191.817 420.009 c 0
 153.709 403.731 163.243 352.365 89.5967 309.405 c 1
 83.8516 306.222 78.541 305.216 72.0967 306.485 c 0
EndSplineSet
EndChar
StartChar: bar
Encoding: 124 124 30
Width: 255
VWidth: 1080
Flags: HWO
VStem: 63.75 123.2<404.55 550.023>
Fore
219.317 55.8008 m 4
 194.708 158.972 207 269.581 207 413 c 4
 207 526.606 218.919 709.492 143.18 747.36 c 4
 109.491 764.205 42 757 45 700.697 c 5
 45 235.92 54.2676 388.376 53.0195 65.1172 c 5
 26.4893 2.41016 240.74 -34.0068 219.317 55.8008 c 4
EndSplineSet
EndChar
StartChar: braceright
Encoding: 125 125 31
Width: 267
Flags: HW
Fore
224.991 343.654 m 0
 254.353 356.663 248.096 357.526 233.329 384.921 c 1
 183.366 422.893 156.549 434.34 149.38 475.686 c 0
 145.435 498.439 158.388 509.532 181.075 544.989 c 0
 217.087 601.272 221.131 690.792 155.399 741.117 c 0
 116.957 770.55 62.9766 763.394 31.1758 730.012 c 0
 18.0479 716.23 17.9355 695.009 31.1328 681.084 c 0
 56.374 654.449 85.1797 690.298 86.8311 676.875 c 0
 94.876 611.487 56.9219 602.307 42.8359 468.488 c 0
 31.8555 364.173 46 390 74.6709 369.881 c 1
 37.1093 359.135 27.4113 369.848 52.8174 245.391 c 1
 84.2157 159.425 143.174 129.791 108.063 91.4316 c 0
 104.648 87.7002 62.707 101.645 45.0635 65.7812 c 0
 35.1289 45.5889 40.4941 17.6182 65.7256 5.8916 c 0
 117.471 -18.1582 162.677 16.7578 188.797 46.084 c 0
 240.065 103.646 220.24 172.527 192.064 225.962 c 0
 171.162 265.604 146.017 277.538 151.8 297.318 c 0
 164.013 339.087 166.288 317.645 224.991 343.654 c 0
EndSplineSet
EndChar
StartChar: asciitilde
Encoding: 126 126 32
Width: 390
VWidth: 1000
Flags: HW
Fore
144.204 433.365 m 0
 181.596 431.099 197.921 411.192 214.544 404.474 c 0
 242.555 393.152 244.088 387.738 249.062 388.396 c 0
 250.744 388.617 264.271 429.187 308.612 428.692 c 0
 336.381 428.383 372.958 412.363 375.712 373.637 c 0
 378.205 338.586 341.097 326.899 340.183 326.188 c 0
 316.071 307.445 293.824 274.998 244.701 272.618 c 0
 175.577 269.27 160.379 324.277 136.64 323.305 c 0
 134.277 323.208 111.768 279.984 67.9688 287.057 c 0
 37.3574 291.999 11.501 316.946 12.1807 351.14 c 0
 12.9424 389.412 48.4785 402.068 60.1748 409.158 c 0
 85.3193 424.398 110.439 435.412 144.204 433.365 c 0
EndSplineSet
EndChar
StartChar: uni007F
Encoding: 127 127 33
Width: 1597
VWidth: 1000
Flags: W
Fore
1371.96 532 m 8
 1380.35 515.228 1391.96 514 1405.96 498 c 8
 1418.83 483.29 1444.23 503.312 1449.96 522 c 24
 1460.47 556.264 1401.42 568.394 1407.82 603.657 c 24
 1410.29 617.322 1429.95 614.338 1434.21 627.557 c 24
 1437.59 638.057 1437.72 649.521 1428.27 655.21 c 24
 1411.89 665.073 1398.66 649.408 1381.08 641.886 c 24
 1369.86 637.083 1365.86 629.344 1354.13 625.967 c 24
 1328 618.448 1311.56 622.073 1284.45 624.086 c 24
 1249.17 626.704 1221.04 615.811 1195.13 639.894 c 24
 1182.27 651.839 1188.83 666.617 1184.07 683.507 c 24
 1180.37 696.618 1187.21 715.041 1173.72 716.866 c 24
 1158.17 718.969 1158.39 697.328 1152.02 682.991 c 24
 1145.3 667.889 1150.17 655.754 1140.84 642.112 c 24
 1114.65 603.82 1078.42 603.741 1045.27 571.282 c 24
 1010.99 537.713 980.257 520.862 969.962 474 c 16
 954.754 404.771 959.342 390.006 955.726 336.035 c 24
 953.036 295.893 954.748 287.21 952.529 232.924 c 8
 951.358 204.268 984.951 201.705 1008.03 184.678 c 24
 1035.9 164.114 1055.17 157.783 1083.48 137.826 c 16
 1095.68 129.227 1107.54 121.431 1117.96 113.729 c 0
 1128.87 105.673 1138.2 97.7197 1144.73 89.0605 c 8
 1155.14 75.249 1166.52 105.118 1179.96 116 c 24
 1188.9 123.231 1192.16 129.855 1202.35 135.168 c 24
 1221.35 145.067 1236.17 139.729 1255.52 148.91 c 24
 1271.36 156.424 1307.94 168.776 1291.76 175.503 c 16
 1266.98 185.8 1258.71 174.989 1237.61 175.727 c 24
 1220.3 176.331 1194.51 161.366 1193.3 178.643 c 16
 1189.95 226.525 1189.98 304.464 1195.91 384.559 c 24
 1200.2 442.432 1207.2 485.275 1215.96 532 c 0
 1224.11 575.479 1291.96 574 1339.96 566 c 0
 1357.75 563.036 1365.96 544 1371.96 532 c 8
771.962 516 m 0
 763.962 538 755.45 587.645 735.962 630 c 24
 710.042 686.333 702.837 729.547 651.962 765 c 24
 607.533 795.961 570.094 791.506 515.962 793 c 24
 478.912 794.022 457.465 789.644 421.962 779 c 24
 364.3 761.714 333.05 745.84 281.962 714 c 24
 213.006 671.024 173.902 643.764 119.962 583 c 24
 87.8516 546.828 73.9629 522.039 53.9619 478 c 24
 42.1758 452.049 37.2686 436.175 32.9619 408 c 24
 23.0615 343.228 19.5137 304.517 30.9619 240 c 24
 41.8965 178.381 44.8613 135.373 87.9619 90 c 24
 131.979 43.6611 175.92 39.3506 237.962 24 c 24
 313.108 5.40723 358.562 8.62988 435.962 10 c 24
 472.823 10.6523 496.064 5.50391 529.962 20 c 24
 578.813 40.8916 597.962 62 633.962 108 c 8
 671.171 155.545 680.223 171.326 727.962 231 c 0
 735.962 241 754.592 296.152 759.962 292 c 0
 778.04 278.02 790.669 149.135 817.962 123 c 8
 862.034 80.7979 892.234 58.7715 949.962 39 c 24
 1041.12 7.77734 1099.73 10.9834 1195.96 16 c 24
 1259.51 19.3135 1298.81 20.0215 1355.96 48 c 24
 1390.23 64.7764 1405.36 82.833 1429.96 112 c 24
 1483.44 175.396 1522.4 212.943 1539.96 294 c 16
 1565.96 414 1590.7 466.553 1565.96 582 c 0
 1553.96 638 1541.44 666.726 1505.96 708 c 24
 1476.49 742.289 1452.57 757.866 1409.96 773 c 24
 1338.39 798.421 1291.65 796.265 1215.96 790 c 24
 1166.19 785.881 1138.51 776.104 1091.96 758 c 24
 1028.55 733.336 992.215 717.067 937.962 676 c 16
 877.045 629.889 803.962 510 783.962 474 c 0
 780.927 468.536 776.581 503.298 771.962 516 c 0
811.962 376 m 24
 821.594 466.938 866.146 511.15 923.962 582 c 24
 960.711 627.033 988.398 647.637 1037.96 678 c 24
 1093.55 712.055 1127.84 731.223 1191.96 743 c 24
 1266.42 756.678 1314.98 762.345 1385.96 736 c 24
 1423.42 722.097 1445.86 706.53 1465.96 672 c 24
 1513.25 590.767 1510.25 527.785 1503.96 434 c 24
 1496.72 325.912 1478.92 261.353 1423.96 168 c 24
 1402.97 132.351 1385.74 112.768 1349.96 92 c 24
 1309.55 68.543 1280.53 65.8818 1233.96 62 c 24
 1198.07 59.0078 1177.35 63.29 1141.96 70 c 24
 1077.22 82.2764 1036.34 83.8848 979.962 118 c 24
 916.724 156.268 885.245 190.178 847.962 254 c 24
 822.938 296.835 806.736 326.668 811.962 376 c 24
345.962 64 m 24
 296.333 65.9043 268.032 74.4502 221.962 93 c 24
 181.57 109.263 152.416 115.415 125.962 150 c 24
 81.6973 207.87 79.4336 257.225 75.9619 330 c 24
 73.6211 379.06 77.1035 409.534 97.9619 454 c 24
 128.754 519.644 162.766 548.983 217.962 596 c 24
 285.885 653.857 327.817 690.761 413.962 714 c 24
 464.424 727.613 499.385 731.287 547.962 712 c 24
 594.143 693.664 614.677 667.526 641.962 626 c 24
 678.67 570.132 681.644 528.826 697.962 464 c 24
 711.077 411.896 727.485 381.2 719.962 328 c 24
 712.291 273.761 693.19 244.551 659.962 201 c 24
 620.703 149.546 592.769 120.029 533.962 93 c 24
 466.555 62.0166 420.095 61.1562 345.962 64 c 24
339.962 606 m 16
 388.274 608.426 391.193 606.348 423.933 605.534 c 24
 452.688 604.819 468.883 600.958 497.617 602.28 c 24
 517.891 603.213 529.927 602.905 549.175 609.341 c 24
 567.188 615.364 571.421 621.387 591.697 633.085 c 8
 598.195 636.834 599.409 624.186 603.513 617.906 c 24
 608.235 610.68 616.27 606.784 614.053 598.44 c 24
 611.896 590.321 600.206 594.208 595.746 587.09 c 24
 592.73 582.277 592.117 577.875 594.238 572.607 c 24
 601.064 555.654 627.202 560.419 630.033 542.364 c 24
 631.658 531.997 623.363 526.796 615.78 519.542 c 24
 605.618 509.822 598.281 503.938 584.38 501.82 c 24
 557.747 497.762 543.746 514.988 516.838 516.312 c 24
 466.104 518.807 411.986 512.04 387.424 501.616 c 0
 370.752 494.541 387.782 475.727 388.808 459.212 c 24
 389.972 440.463 391.353 433.26 393.204 411.247 c 8
 396.169 375.995 448.613 409.478 483.688 404.862 c 24
 522.608 399.741 572.003 423.557 582.511 385.732 c 24
 586.45 371.553 564.56 371.192 554.47 360.479 c 24
 542.345 347.606 542.614 331.6 526.195 325.031 c 24
 504.896 316.511 490.738 330.664 467.921 333.033 c 24
 448.728 335.025 434.029 348.059 418.566 336.516 c 24
 398.949 321.871 407.338 299.598 405.002 275.229 c 24
 401.465 238.334 395.03 216.607 407.538 180.227 c 8
 412.054 167.094 394.255 162.82 383.783 153.698 c 24
 372.198 143.606 366.468 131.318 351.108 131.69 c 24
 332.904 132.131 328.321 148.777 313.69 159.617 c 24
 294.629 173.739 288.112 191.903 264.688 195.655 c 24
 248.351 198.272 238.976 190.225 224.368 182.453 c 24
 211.122 175.406 203.73 170.251 194.011 158.822 c 24
 187.539 151.213 191.63 137.654 181.727 136.348 c 24
 173.361 135.244 173.391 146.744 166.783 151.991 c 24
 161.152 156.463 149.049 154.432 150.912 161.377 c 16
 159.49 193.353 172.578 208.039 198.654 224.629 c 24
 236.847 248.928 273.499 237.826 312.197 248.711 c 8
 331.72 254.202 322.689 279.193 323.559 299.455 c 24
 324.395 318.952 326.559 332.115 316.846 349.042 c 24
 311.623 358.145 305.637 362.404 295.646 365.613 c 24
 284.407 369.223 277.186 365.108 265.407 364.343 c 24
 247.438 363.175 229.912 345.664 219.411 360.294 c 24
 212.852 369.433 225.202 377.068 231.001 386.708 c 24
 240.684 402.805 245.146 414.237 260.896 424.473 c 24
 269.424 430.014 276.039 429.905 286.154 430.957 c 24
 293.308 431.7 299.077 425.509 304.576 430.144 c 24
 331.587 452.908 308.976 485.374 315.962 520 c 24
 322.849 554.134 305.185 604.254 339.962 606 c 16
1125.51 201.97 m 8
 1121.72 180.574 1091.35 207.956 1072.24 218.294 c 24
 1049.43 230.63 1017.85 235.116 1021.15 260.834 c 16
 1028.93 321.524 1025.97 350.614 1030.91 407.873 c 24
 1035.13 456.807 1037.3 488.516 1044.21 533.105 c 8
 1046.93 550.699 1066.8 549.588 1082.58 557.843 c 24
 1095.69 564.704 1103.13 575.196 1117.65 572.324 c 24
 1129.85 569.91 1139.07 562.227 1140.28 549.848 c 16
 1143.96 512 1141.21 518.246 1140.9 498.044 c 24
 1140.06 442.32 1137.72 410.931 1134.84 355.274 c 24
 1131.75 295.454 1135.57 258.811 1125.51 201.97 c 8
EndSplineSet
EndChar
StartChar: cent
Encoding: 162 162 35
Width: 337
Flags: HW
VStem: 149.344 81.107<557 629.31>
Fore
250.37 576.777 m 1
 261.804 572.241 278.539 563.777 293.433 548.891 c 0
 311.401 530.906 328.183 506.156 320.745 472.812 c 0
 316.776 454.984 302.401 435.5 277.62 433.609 c 0
 265.304 432.665 255.494 436.418 247.969 441.579 c 1
 242.276 350.281 l 1
 240.852 329.979 l 1
 263.694 367.479 324.914 344.954 322.073 302.297 c 0
 319.776 267.812 317.511 253.234 304.354 235.547 c 0
 287.136 212.406 265.589 206.344 246.62 200.188 c 0
 243.745 199.266 180.12 196.719 227.183 195.281 c 1
 220.808 137.484 l 0
 220.37 133.781 219.276 130.484 217.354 127.297 c 0
 209.526 114.328 175.511 68.7812 140.104 103 c 1
 135.604 107.531 133.323 112.281 132.589 118.609 c 0
 126.328 199.966 l 1
 107.231 203.393 91.5244 217.806 75.4795 233.016 c 0
 49.5576 257.578 31.3857 282.234 22.7139 318.828 c 0
 12.5576 361.625 12.7607 397.375 25.1514 440.484 c 0
 37.1826 482.422 51.3232 517.312 89.4482 546.703 c 0
 97.7676 553.115 110.63 560.422 117.971 564.734 c 1
 117.95 573.67 118.262 595.891 119.667 641.172 c 1
 119.823 645.328 120.823 649.016 122.854 652.641 c 0
 154.495 709.031 208.261 712.094 244.276 665.25 c 1
 247.667 660.688 249.354 656.094 249.448 650.406 c 0
 250.104 610.537 250.321 587.615 250.37 576.777 c 1
140.214 460.484 m 0
 133.136 494.984 141.448 455 127.776 478.656 c 0
 112.261 467.938 l 0
 96.9795 427.938 90.7139 409.125 97.4326 364.391 c 0
 102.058 333.641 99.9482 344.172 126.104 319.75 c 0
 138.183 310.344 l 0
 159.448 344 135.214 302.781 147.464 331.578 c 0
 147.058 358.422 l 0
 144.995 434.453 151.964 403.266 140.214 460.484 c 0
EndSplineSet
EndChar
StartChar: sterling
Encoding: 163 163 36
Width: 708
VWidth: 1080
Flags: HW
HStem: 324.417 135.333<327 371>
VStem: 201.119 124.881<447 586> 201.119 126.789<447.436 459.75>
Fore
171.04 295.981 m 1
 172.527 295.969 106.599 287.704 48.0644 341.61 c 0
 15.1424 371.929 29.6452 420.671 58.8643 442.898 c 0
 124.518 492.839 190.906 472.328 176.383 472.172 c 1
 176.226 457.565 191.513 516.78 175.999 570.004 c 0
 171.821 584.336 118.996 605.698 125.161 659.829 c 0
 131.173 712.624 171.393 742.491 216.128 753.301 c 0
 338.5 782.869 443.675 746.651 526.655 653.643 c 0
 539.088 639.708 602.864 508.374 519.378 527.64 c 0
 380.819 559.616 408.268 616.01 364.173 604.774 c 0
 359.975 603.704 350.544 594.78 350.586 583.067 c 0
 351.259 395.359 352.643 489.723 352.673 486.323 c 1
 302.102 483.208 370.896 484.687 373.323 483.892 c 0
 404.974 473.516 452.798 489.991 488.886 448.38 c 0
 509.661 424.426 531.451 376.608 496.553 342.198 c 0
 437.478 283.951 362.089 299.838 352.319 299.718 c 1
 351.755 253.906 302.148 235.991 294.29 114.197 c 1
 409.807 85.3176 440.461 87.5563 533.512 128.533 c 1
 534.215 150.663 510.85 186.249 524.453 256.737 c 0
 537.631 325.021 628.059 290.521 646.89 293.66 c 1
 664.67 293.468 671.7 291.186 675.531 273.822 c 0
 700.991 158.403 698.692 147.825 684.852 21.2818 c 1
 689.768 11.7728 659.511 -8.17813 652.708 0.0871654 c 0
 652.204 0.699436 614.456 10.9984 599.141 12.9128 c 1
 351.1 -0.977557 357.224 -17.9698 38.5725 13.1181 c 1
 32.0066 13.9077 27.0921 16.2187 22.6017 21.0736 c 0
 -10.7479 57.1301 4.92906 83.0657 27.4055 121.597 c 1
 32.7152 129.661 38.2223 133.478 47.8648 133.974 c 0
 125.993 137.992 96.5747 124.751 114.932 140.152 c 0
 187.495 201.031 170.372 281.375 171.04 295.981 c 1
EndSplineSet
EndChar
StartChar: currency
Encoding: 164 164 37
Width: 338
VWidth: 1000
Flags: HW
Fore
79.4785 413.203 m 0
 93.7129 439.266 78.3535 406.656 74.166 392.234 c 0
 66.4785 365.766 66.291 341.203 72.6035 315.031 c 0
 74.7598 306.078 94.8848 269.047 75.2598 300.188 c 1
 56.8387 299.112 10.9331 278.238 12.8691 252.812 c 1
 11.4785 226.516 30.9004 217.719 33.1504 217.5 c 0
 39.9629 216.844 42.3691 209.578 49.1348 208.453 c 1
 87.8066 203.047 96.1816 207.875 127.822 208.219 c 0
 137.025 208.312 142.682 211.609 148.307 218.875 c 1
 146.821 216.748 160.455 220.937 166.449 234.009 c 0
 167.028 233.992 167.591 233.984 168.135 233.984 c 0
 173.807 233.984 178.994 234.578 182.619 234.625 c 0
 187.309 234.684 193.288 233.96 201.245 234.512 c 1
 204.154 223.713 212.278 215.176 219.682 211.203 c 0
 223.463 209.188 227.26 208.25 231.541 208.219 c 1
 270.213 208.219 267.041 203.188 305.791 216.609 c 0
 310.744 218.328 314.432 221.078 317.635 225.25 c 1
 331.369 243.562 324.322 265.844 311.072 277.172 c 0
 300.156 286.509 286.973 289.866 282.134 288.798 c 1
 276.727 294.617 l 1
 276.93 294.383 l 2
 270.796 301.067 275.309 296.465 278.432 292.594 c 1
 265.96 271.827 271.037 280.589 276.93 294.383 c 0
 279.062 299.374 281.301 305.023 282.854 310.172 c 0
 289.619 332.578 289.432 349.047 288.541 369.156 c 0
 287.775 386.578 286.713 403.719 277.447 423.984 c 0
 274.604 430.213 271.576 435.533 269.604 438.767 c 0
 265.832 444.951 265.921 443.502 278.541 426.172 c 1
 280.782 428.516 l 1
 281.464 424.22 291.555 424.634 311.072 441.328 c 0
 324.885 453.141 331.275 475.156 317.635 493.25 c 0
 314.479 497.453 310.729 500.109 305.791 501.891 c 1
 267.197 515.188 270.697 510.312 231.541 510.281 c 0
 227.26 510.281 223.479 509.297 219.682 507.297 c 1
 213.094 503.743 203.856 495.588 200.911 483.959 c 1
 192.463 484.141 l 1
 169.052 481.424 l 1
 165.627 496.237 152.063 500.613 148.307 499.625 c 0
 139.416 497.281 137.025 509.844 127.822 510.281 c 1
 96.1816 510.281 87.7441 515.594 49.1348 510.047 c 0
 42.3535 509.062 37.5879 506.219 33.1504 501 c 1
 34.2285 502.328 11.4785 491.844 12.8691 465.688 c 0
 14.1816 440.75 73.1191 415.844 79.4785 413.203 c 0
125.07 332.209 m 4
 123.717 336.462 124.07 337.842 123.843 338.562 c 4
 119.249 353.396 116.759 370.333 126.083 383.721 c 4
 137.015 399.415 137.841 419.031 152.483 428.347 c 4
 165.128 436.408 180.657 438.876 194.654 435.839 c 4
 213.462 431.751 225.296 414.64 234.256 398.021 c 4
 239.863 387.644 239.838 378.822 240.458 374.558 c 4
 243.09 356.333 242.584 340.524 236.762 322.109 c 4
 232.206 307.669 226.46 292.836 211.614 284.799 c 4
 198.489 277.687 185.327 279.56 178.215 280.458 c 4
 170.354 281.471 156.825 282.977 145.435 293.607 c 4
 136.486 301.961 130.475 315.148 125.07 332.209 c 4
EndSplineSet
EndChar
StartChar: yen
Encoding: 165 165 38
Width: 788
VWidth: 1080
Flags: HW
HStem: 194.869 42.6237<522.512 588.512> 255.623 42.7596<524.012 590.012>
Fore
163.421 169.656 m 0
 129.432 187.264 141.846 208.592 174.592 222.607 c 0
 237.114 249.367 317.568 238.913 372 242.39 c 0
 413.525 245.043 448.314 250.486 504.987 247.518 c 0
 541.654 245.596 593.062 245.113 629.036 226.719 c 0
 659.873 210.953 673.199 189.068 638.862 170.025 c 0
 585.032 140.173 498.271 144.519 433.719 143.6 c 0
 347.939 142.38 235.258 132.443 163.421 169.656 c 0
163.421 310.656 m 0
 129.432 328.264 141.846 349.592 174.592 363.607 c 0
 237.114 390.367 317.568 379.913 372 383.39 c 0
 413.525 386.043 448.314 391.486 504.987 388.518 c 0
 541.654 386.596 593.062 386.113 629.036 367.719 c 0
 659.873 351.953 673.199 330.068 638.862 311.025 c 0
 585.032 281.173 498.271 285.519 433.719 284.6 c 0
 347.939 283.38 235.258 273.443 163.421 310.656 c 0
190.186 21.5371 m 0
 163.697 51.5684 179.558 88.8379 200.32 107.618 c 0
 238.128 141.815 294.176 116.627 286.919 108.789 c 1
 294.474 187.693 295 215.356 295 305.292 c 1
 212.936 475.638 179.541 474.307 93.8379 619.585 c 1
 110.32 610.166 63.3867 594.226 35.3213 619.378 c 0
 4.8125 646.72 -5.38965 696.301 25.1348 731.404 c 1
 29.916 736.618 34.9043 739.331 41.9541 739.916 c 0
 250.459 757.222 108.495 740.122 326.987 748.979 c 1
 332.831 749.12 337.632 747.781 342.417 744.424 c 0
 364.915 728.641 386.23 693.483 366.541 660.319 c 0
 354.085 639.338 312 628 287.358 653.172 c 1
 358.165 463.042 368.57 490.744 395.256 407.353 c 1
 530.434 626.356 l 1
 559.984 613.82 478.496 610.73 458.606 664.197 c 0
 444.859 701.152 470.887 730.761 493.65 745.137 c 1
 497.3 747.405 501.02 748.65 505.307 748.942 c 0
 663.336 759.703 546.141 759.752 739.394 748.961 c 1
 745.255 748.536 749.922 746.729 754.373 742.893 c 0
 777.479 722.977 786.165 686.253 766.268 658.37 c 0
 729.531 606.894 662.84 643.639 653.943 637.628 c 1
 579.541 503.905 554.485 433.527 457.389 304.816 c 1
 450.228 208.146 491.127 215.123 454.811 95.0654 c 0
 449.365 77.0664 495.615 128.287 523.887 102.435 c 0
 541.512 86.3174 557.361 53.7666 535.815 25.7568 c 1
 531.022 19.9111 525.954 16.8633 518.431 16.1182 c 0
 346.31 -0.923828 381.254 -0.78125 207.018 13.0791 c 1
 199.989 13.8252 194.861 16.2363 190.186 21.5371 c 0
EndSplineSet
EndChar
StartChar: brokenbar
Encoding: 166 166 39
Width: 274
VWidth: 1080
Flags: HW
Fore
191.434 431.378 m 0
 179.66 428.817 165.284 425.758 145.32 422.355 c 0
 118.804 417.837 96.1416 419.926 79.5684 418.883 c 1
 60.5791 421.486 54.0273 424.27 53 443.409 c 0
 48.4453 528.282 51.1201 602.216 51.1201 703.697 c 1
 27.4766 747.607 113.316 768.357 149.304 750.359 c 0
 218.021 715.993 213.283 567.274 213.185 456.144 c 1
 210.828 440.311 207.076 434.78 191.434 431.378 c 0
211.651 320.656 m 0
 212.386 221.156 206.558 137.969 225.433 58.7969 c 0
 246.839 -30.9219 32.5732 5.34375 59.1357 68.1094 c 1
 59.5576 175.656 58.2607 230.469 55.8545 319 c 1
 60.5732 340.344 62.8076 345.172 84.6514 344.391 c 0
 108.604 343.516 140.151 344.625 176.167 345.984 c 0
 186.073 346.281 l 0
 204.995 342.906 211.511 339.875 211.651 320.656 c 0
EndSplineSet
EndChar
StartChar: section
Encoding: 167 167 40
Width: 643
Flags: HW
Fore
215.172 406.696 m 1
 259.009 317.03 303.669 264.557 384.225 210.652 c 1
 438.067 152.964 406.423 162.542 460.373 58.1768 c 0
 473.576 32.6348 469.12 70.0723 404.199 121.09 c 0
 404.19 121.096 410.254 138.419 383.797 172.916 c 0
 336.407 234.708 292.565 229.171 280 256 c 0
 246.707 327.087 246.399 377.028 215.172 406.696 c 1
329.007 598.006 m 0
 330.161 609.224 348.228 556.659 384.56 560.112 c 0
 422.45 563.713 472.766 588.218 470.164 640.249 c 0
 466.75 708.501 395.786 728.715 348.396 732.903 c 0
 291.767 737.908 241.791 717.386 208.469 667.979 c 0
 156.658 591.159 218.072 526.823 197.194 477.795 c 0
 182.798 443.99 104.121 440.027 93.4349 363.455 c 0
 82.6287 286.022 119.511 225.974 183.552 188.433 c 0
 265.535 140.373 270.773 108.396 315.662 32.2981 c 0
 346.116 -19.3283 360.282 -46.0469 366.342 -101.706 c 0
 369.684 -132.399 368.212 -140.791 372.36 -139.016 c 0
 379.945 -135.77 365.097 -102.233 324.987 -92.6802 c 0
 294.108 -85.3262 256.05 -81.2205 224.224 -110.643 c 0
 203.626 -129.685 191.571 -160.938 206.876 -191.264 c 0
 237.565 -252.07 300.768 -263.069 357.028 -258.933 c 0
 416.331 -254.573 466.605 -230.425 494.66 -172.969 c 0
 537.691 -84.8434 495.972 -23.721 484.003 -2.17607 c 1
 500.244 19.0626 556.051 61.7566 551.166 163.203 c 0
 546.124 267.9 478.022 312.427 429.851 383.083 c 0
 382.504 452.53 329.254 461.479 316.6 518.423 c 0
 307.125 561.06 326.757 576.131 329.007 598.006 c 0
EndSplineSet
EndChar
StartChar: dieresis
Encoding: 168 168 41
Width: 442
VWidth: 1080
Flags: HW
Fore
288.865 306.838 m 0
 332.695 295.198 381.99 300.72 414.149 342.825 c 0
 445.384 383.721 435.976 430.618 416.511 468.439 c 0
 400.834 498.901 374.302 527 331.281 527 c 0
 288.81 527 261.987 499.405 246.053 468.439 c 0
 224.878 427.293 228.956 387.611 245.185 348.433 c 0
 251.865 332.306 264.572 313.288 288.865 306.838 c 0
64.8652 306.838 m 0
 108.695 295.198 157.991 300.72 190.15 342.825 c 0
 221.384 383.721 211.976 430.618 192.511 468.439 c 0
 176.835 498.901 150.302 527 107.282 527 c 0
 64.8105 527 37.9883 499.406 22.0527 468.439 c 0
 0.87793 427.292 4.95605 387.611 21.1846 348.433 c 0
 27.8652 332.305 40.5732 313.288 64.8652 306.838 c 0
EndSplineSet
EndChar
StartChar: copyright
Encoding: 169 169 42
Width: 497
VWidth: 1000
Flags: HW
Fore
198.499 467.761 m 4
 174.475 455.182 170.564 446.659 156.33 415.898 c 4
 125.923 350.189 117.421 316.577 129.762 249.902 c 4
 138.92 200.42 147.771 178.637 185.86 149.699 c 4
 204.877 135.25 218.248 134.418 259.849 129.707 c 4
 299.028 125.27 307.949 123.414 328.872 133.184 c 4
 353.607 144.732 355.617 152.678 370.91 186.5 c 4
 398.883 248.362 403.335 282.581 391.567 347.944 c 4
 383.217 394.328 374.702 415.815 340.992 449.912 c 4
 320.191 470.951 312.726 476.195 288.428 480.664 c 4
 250.775 487.59 231.538 485.061 198.499 467.761 c 4
261.149 46.0088 m 4
 238.798 45.5811 217.382 42.1436 189.046 49.8965 c 4
 156.366 58.8379 131.513 70.1826 105.517 94.8154 c 4
 69.7021 128.752 46.0186 161.029 34.3408 210.248 c 4
 20.293 269.455 20.5439 316.352 37.6406 375.896 c 4
 54.4541 434.459 72.8438 479.883 124.364 519.768 c 4
 174.683 558.722 222.48 571.436 283.709 568.978 c 4
 323.876 567.365 351.577 560 397.347 523.678 c 4
 423.498 502.924 439.667 480.824 455.411 446.383 c 4
 474.994 403.541 476.766 371.407 478.645 329.112 c 4
 480.744 281.833 481.187 249.09 466.594 200.753 c 4
 453.965 158.922 441.83 128.128 409.708 94.6914 c 4
 386.594 70.6299 365.232 59.8711 335.872 51.0713 c 4
 304.074 41.541 283.7 46.4404 261.149 46.0088 c 4
328.782 327.821 m 4
 299.973 325.616 289.429 350.417 289.187 350.566 c 4
 273.716 360.105 275.208 363.064 273.924 363.362 c 4
 263.855 365.693 262.449 365.557 253.471 359.742 c 4
 248.471 356.504 249.162 357.38 244.358 344.558 c 4
 234.422 318.038 232.271 308.289 236.146 282.435 c 4
 239.104 262.688 240.614 258.231 251.045 248.463 c 4
 254.171 245.535 254.164 245.562 268.87 243.508 c 4
 283.02 241.532 280.66 241.52 283.886 243.369 c 4
 288.409 245.962 287.075 243.991 292.371 258.642 c 4
 308.049 302.017 369.609 282.855 366.865 242.635 c 4
 365.338 220.245 362.304 204.371 352.972 191.82 c 4
 339.386 173.549 321.949 168.259 308.622 164.321 c 4
 289.698 158.73 277.453 161.44 267.899 161.259 c 4
 258.556 161.082 244.572 159.182 228.296 163.646 c 4
 211.069 168.372 195.446 175.64 181.267 189.065 c 4
 162.646 206.699 148.552 225.733 142.091 252.998 c 4
 134.827 283.653 134.997 311.188 143.891 342.146 c 4
 152.404 371.783 163.505 398.758 191.614 420.518 c 4
 218.838 441.591 247.225 449.014 279.459 447.728 c 4
 299.118 446.943 322.38 443.645 344.597 421.428 c 4
 357.896 408.129 365.577 394 365.754 361.078 c 4
 365.835 346.121 350.168 329.458 328.782 327.821 c 4
EndSplineSet
EndChar
StartChar: ordfeminine
Encoding: 170 170 43
Width: 364
Flags: HW
Fore
195.274 480.322 m 0
 194.42 490.494 190.32 490.42 188.238 495.07 c 0
 187.689 496.295 188.84 494.944 178.246 492.148 c 0
 167.566 489.33 164.369 486.555 152.053 478.727 c 0
 136.814 469.041 132.473 467.895 126.395 459.525 c 0
 121.072 452.197 120.899 451.024 120.959 449.089 c 0
 121.67 425.938 124.867 406.818 134.1 413.279 c 0
 138.635 416.452 129.549 414.901 144.61 421.124 c 0
 164.898 429.507 171.65 429.982 180.226 439.976 c 0
 192.861 454.7 196.795 462.215 195.274 480.322 c 0
163.732 642.659 m 0
 148.918 639.615 146.007 638.861 141.171 632.47 c 0
 135.081 624.421 137.74 610.447 135.846 592.931 c 0
 131.951 556.948 91.7227 539.037 61.082 547.744 c 0
 28.8916 556.893 19.3896 587.297 24.5137 615.612 c 0
 29.3105 642.125 36.8516 668.641 62.3066 690.302 c 0
 95.9453 718.923 129.629 722.153 168 724 c 0
 190.744 725.095 215.053 724.727 239.009 707.854 c 0
 262.99 690.963 276.118 669.302 281.168 641.092 c 0
 289.988 591.823 285.628 556.419 287.448 506.494 c 0
 288.677 472.857 286.018 456.398 289.562 427.137 c 0
 297.229 363.846 290.939 421.236 282.965 424.711 c 0
 272.816 429.131 306.167 468.107 334.604 454.415 c 0
 361.5 441.464 349.994 411.285 349.676 406.338 c 0
 348.309 385.011 350.02 359.564 326.701 337.009 c 0
 310.127 320.976 291.18 324.313 281.295 323.576 c 0
 265.917 322.428 248.308 320.617 229.093 329.879 c 0
 212.465 337.895 207.372 350.852 204.455 353.769 c 0
 192.021 366.202 198.687 357.025 200.068 364.125 c 0
 201.297 370.44 193.248 355.181 168.65 341.076 c 0
 160.932 336.65 153.042 326.554 133.949 322.458 c 0
 106.898 316.654 80.6816 313.254 51.6143 331.732 c 0
 29.6709 345.683 22.7354 366.254 17.9883 385.873 c 0
 10.7529 415.776 12.1914 441.229 23.2178 469.764 c 0
 32.4805 493.737 46.6016 507.026 62.4512 520.17 c 0
 88.1797 541.507 107.465 550.26 135.825 561.465 c 0
 163.644 572.455 175.483 565.685 182.504 571.201 c 0
 183.471 571.962 184.456 573.542 186.748 582.972 c 0
 189.893 595.903 189.467 602.112 186.531 617.845 c 0
 182.924 637.178 182.954 641.355 178.933 644.371 c 0
 177.907 645.14 177.23 645.434 163.732 642.659 c 0
23.4951 168.34 m 0
 0.835938 199.641 9.11133 237.558 30.9424 262.475 c 0
 72.624 310.049 126.26 291.463 162.548 297.645 c 0
 190.231 302.361 213.424 312.038 251.206 306.76 c 0
 275.65 303.344 309.923 302.485 333.905 269.785 c 0
 354.463 241.756 363.348 202.851 340.456 168.996 c 0
 304.569 115.925 246.729 123.65 203.693 122.018 c 0
 146.508 119.849 71.3867 102.184 23.4951 168.34 c 0
EndSplineSet
EndChar
StartChar: logicalnot
Encoding: 172 172 45
Width: 376
Flags: HW
Fore
25.2275 211.34 m 1
 2.56836 242.641 10.8428 280.558 32.6748 305.475 c 0
 74.3564 353.05 127.992 334.463 164.279 340.645 c 0
 191.964 345.361 215.156 355.038 252.938 349.76 c 0
 277.156 346.376 311.996 345.839 335.812 312.545 c 0
 386.174 242.141 355.028 179.797 351.443 111.686 c 0
 348.503 55.8105 243.216 42.8887 213.992 84.6709 c 0
 192.383 115.567 217.438 196.919 205.426 165.018 c 1
 172.366 169.638 71.4785 152.588 25.2275 211.34 c 1
EndSplineSet
EndChar
StartChar: registered
Encoding: 174 174 47
Width: 497
VWidth: 1000
Flags: HW
VStem: 193.179 27.0844<220.046 275.168>
Fore
189.45 171.394 m 0
 178.265 175.838 175.456 185.498 173.672 190.403 c 1
 171.705 195.648 170.243 204.128 174.225 212.093 c 1
 183.273 230.188 197.397 231.606 196.339 229.489 c 1
 199.204 281.639 195.337 276.553 197.119 346.642 c 1
 198.309 343.987 168.332 352.502 168.332 378.051 c 1
 168.356 380.505 168.935 382.618 170.224 384.706 c 0
 186.344 410.827 191.851 423.528 216.477 432.909 c 1
 216.606 432.959 l 0
 229.884 437.85 242.526 435.091 252.967 429.871 c 1
 254.134 429.285 255.164 428.559 256.104 427.651 c 0
 269.561 414.646 259.522 424.827 269.893 419.318 c 1
 265.686 416.935 272.728 440.66 310.208 438.785 c 1
 310.546 438.764 l 0
 338.758 436.594 350.863 412.335 356.226 391.96 c 1
 360.163 377.523 356.669 364.066 348.878 352.68 c 1
 348.771 352.527 l 0
 342.891 344.196 332.018 329.95 313.355 332.616 c 1
 313.123 332.648 312.892 332.688 312.662 332.734 c 0
 294.415 336.384 292.869 348.688 280.72 363.876 c 1
 277.682 342.613 283.378 348.224 276.557 342.917 c 1
 274.947 255.484 277.436 313.817 276.202 241.023 c 1
 273.247 248.902 284.677 242.05 289.443 229.337 c 1
 294.321 217.752 295.478 202.461 284.716 190.044 c 1
 283.008 188.116 281.103 186.873 278.628 186.163 c 0
 255.382 179.494 224.733 177.139 196.965 170.806 c 1
 194.319 170.239 191.964 170.396 189.45 171.394 c 0
194.999 467.761 m 0
 170.975 455.182 167.064 446.659 152.83 415.898 c 0
 122.423 350.189 113.921 316.577 126.262 249.902 c 0
 135.42 200.42 144.271 178.637 182.36 149.699 c 0
 201.377 135.25 214.748 134.418 256.349 129.707 c 0
 295.528 125.27 304.449 123.414 325.372 133.184 c 0
 350.107 144.732 352.117 152.678 367.41 186.5 c 0
 395.383 248.362 399.835 282.581 388.067 347.944 c 0
 379.717 394.328 371.202 415.815 337.492 449.912 c 0
 316.691 470.951 309.226 476.195 284.928 480.664 c 0
 247.275 487.59 228.038 485.061 194.999 467.761 c 0
257.649 46.0088 m 0
 235.298 45.5811 213.882 42.1436 185.546 49.8965 c 0
 152.866 58.8379 128.013 70.1826 102.017 94.8154 c 0
 66.2021 128.752 42.5186 161.029 30.8408 210.248 c 0
 16.793 269.455 17.0439 316.352 34.1406 375.896 c 0
 50.9541 434.459 69.3438 479.883 120.864 519.768 c 0
 171.183 558.722 218.98 571.436 280.209 568.978 c 0
 320.376 567.365 348.077 560 393.847 523.678 c 0
 419.998 502.924 436.167 480.824 451.911 446.383 c 0
 471.494 403.541 473.266 371.407 475.145 329.112 c 0
 477.244 281.833 477.687 249.09 463.094 200.753 c 0
 450.465 158.922 438.33 128.128 406.208 94.6914 c 0
 383.094 70.6299 361.732 59.8711 332.372 51.0713 c 0
 300.574 41.541 280.2 46.4404 257.649 46.0088 c 0
EndSplineSet
EndChar
StartChar: degree
Encoding: 176 176 49
Width: 290
VWidth: 1000
Flags: HW
Fore
135.304 496.742 m 0
 144.282 502.557 145.682 502.663 155.757 500.362 c 0
 160.317 499.321 159.814 500.142 166.299 492.052 c 0
 176.087 479.843 177.868 474.292 180.517 456.128 c 0
 184.279 430.318 183.135 420.077 174.245 395.752 c 0
 168.819 380.907 170.257 382.97 165.72 380.369 c 0
 162.493 378.521 164.853 378.532 150.703 380.508 c 0
 135.997 382.562 136.004 382.535 132.878 385.463 c 0
 122.447 395.231 120.938 399.688 117.979 419.435 c 0
 114.104 445.289 116.255 455.038 126.191 481.558 c 0
 130.995 494.38 130.304 493.504 135.304 496.742 c 0
149.732 298.259 m 0
 159.286 298.44 171.545 295.686 190.455 301.321 c 0
 206.188 306.011 219.725 312.838 232.791 326.441 c 0
 250.457 344.833 257.771 363.26 264.177 384.503 c 0
 271.992 410.422 271.783 429.081 270.728 452.862 c 0
 269.805 473.655 268.647 492.824 257.994 516.133 c 0
 249.322 535.105 238.036 546.821 226.43 558.428 c 0
 204.213 580.645 180.952 583.943 161.292 584.728 c 0
 129.058 586.014 100.671 578.591 73.4473 557.518 c 0
 45.3389 535.758 34.2373 508.783 25.7236 479.146 c 0
 16.8301 448.188 16.6602 420.653 23.9238 389.998 c 0
 30.3848 362.733 44.4785 343.699 63.0996 326.065 c 0
 77.2793 312.639 92.9023 305.372 110.129 300.646 c 0
 126.405 296.182 140.389 298.082 149.732 298.259 c 0
EndSplineSet
EndChar
StartChar: acute
Encoding: 180 180 53
Width: 288
VWidth: 1080
Flags: HW
Fore
255.879 661.081 m 0
 280.928 682.342 275.846 679.873 255.267 705.486 c 1
 218.189 724.025 174.024 748.273 125.161 719.961 c 0
 121.798 718.012 119.176 715.54 116.98 712.333 c 1
 70.9372 644.271 69.8465 610.356 49.5123 552.746 c 0
 37.7514 519.426 28.0612 487.607 19.6285 457.019 c 0
 3.23723 397.562 148.43 401.469 167.989 430.808 c 0
 192.327 467.317 230.23 639.31 255.879 661.081 c 0
EndSplineSet
EndChar
StartChar: mu
Encoding: 181 181 54
Width: 502
VWidth: 1080
Flags: HW
VStem: 44.3068 93<142 375> 288.307 86<127 394>
Fore
485.978 60.5713 m 0
 496.576 75.2822 493.801 81.8223 481.924 95.5215 c 1
 443.779 126.037 463.171 103.798 439.307 135.383 c 1
 439.307 152.482 439.307 386.743 439.307 405.943 c 1
 434.593 391.801 466.171 421.22 462.007 447.861 c 0
 456.985 479.984 425.017 486.669 418.506 489.246 c 0
 381.008 504.084 351.088 503.026 315.388 498.829 c 0
 296.65 496.626 265.704 499.087 242.169 471.085 c 0
 228.38 454.68 217.902 427.334 234.187 401.623 c 0
 255.095 368.611 314.835 369.548 303.307 384.467 c 1
 303.307 101.73 304.307 288.503 304.307 163.884 c 1
 295.876 143.132 284.185 125.089 262.456 121.702 c 0
 235.244 117.46 209.285 137.293 202.307 148.925 c 1
 202.307 343.982 204.587 205.224 202.306 449.231 c 0
 202.269 453.147 201.398 456.668 199.667 460.181 c 1
 187.708 484.1 165.848 491.24 150.632 495.902 c 0
 138.157 499.726 124.49 498.853 114.16 496.232 c 0
 81.6035 487.976 40.8555 481.83 15.8252 439.789 c 0
 7.0791 425.099 7.64844 406.005 15.417 391.924 c 0
 31.0693 363.552 66.0742 354.541 58.3066 368.521 c 1
 58.3066 14.2627 59.3057 303.726 59.3066 95 c 0
 59.3066 93.0732 59.5244 91.1963 59.9609 89.3193 c 1
 55.8701 106.849 36.9961 -383.666 158.984 -261.678 c 0
 235.089 -185.573 149.758 -73.1807 200 -16.5996 c 0
 215.555 0.917969 235.956 -8.41309 284.396 3.75293 c 0
 300.598 7.82227 308.341 7.53223 292.527 11.8447 c 1
 298.714 4.85059 298.403 -31.8711 351.308 -33.9805 c 0
 354.307 -34.0996 357.144 -33.7021 360.002 -32.7861 c 1
 430.371 -10.0195 449.375 9.7627 485.978 60.5713 c 0
EndSplineSet
EndChar
StartChar: paragraph
Encoding: 182 182 55
Width: 733
VWidth: 1080
Flags: HW
VStem: 347.458 118<108.214 335.264> 516.208 77.896<247.864 641.164>
Fore
359.458 434.714 m 25
348.038 646.46 m 1
 320.968 654.12 317.561 652.054 287.672 642.183 c 0
 255.219 631.463 240.701 623.113 227.943 598.183 c 0
 211.975 566.977 212.274 545.758 228.157 513.066 c 0
 236.601 495.687 245.758 490.824 272.772 479.147 c 0
 316.357 460.309 341.291 448.026 347.737 453.301 c 1
 356.256 523.705 356.41 555.803 348.038 646.46 c 1
520.173 580.168 m 8
 519.496 588.565 491.984 661.877 497.458 581.014 c 0
 497.489 580.583 499.459 295.746 499.458 295.331 c 0
 500.302 222.982 498.459 271.313 499.005 113.347 c 0
 499.061 97.3291 522.725 8.47559 483.317 8.68359 c 0
 410.036 9.05469 341.928 11.9639 281.458 11.9639 c 1
 275.474 12.0674 270.646 13.5664 265.942 17.0996 c 0
 233.724 41.2207 220.005 83.8076 241.661 120.486 c 0
 272.427 172.603 336.6 156.809 339.552 157.729 c 1
 343.88 224.541 345.146 252.031 346.177 330.303 c 1
 336.114 331.119 283.428 311.6 200.161 343.32 c 0
 131.333 369.535 87.0674 400.855 46.4424 460.809 c 0
 22.0674 496.775 13.2861 530.203 16.5205 572.301 c 0
 19.8174 615.08 29.6768 653.154 67.6299 685.974 c 0
 147.302 754.894 228.083 737.838 328.974 735.863 c 0
 426.317 733.949 484.256 730.758 529.817 729.051 c 1
 559.474 775.734 615.178 746.981 629.177 725.562 c 1
 619.88 725.859 665.428 724.627 673.958 724.464 c 1
 680.708 724.182 685.85 722.297 690.739 717.873 c 0
 716.317 694.806 728.553 680.972 701.896 649.666 c 1
 697.958 645.228 682.021 643.625 687.661 641.383 c 0
 711.083 632.076 602.725 633.738 643.239 634.971 c 1
 643.802 538.917 649.6 650.423 634.942 328.239 c 0
 625.177 113.881 623.756 144.652 624.864 158.249 c 1
 580.317 149.224 664.162 155.429 671.13 152.994 c 1
 673.958 151.984 676.443 150.604 678.724 148.749 c 0
 712.911 120.917 734.443 67.2861 698.724 26.2734 c 1
 694.239 21.375 689.443 18.7178 682.677 17.8564 c 0
 649.927 13.6855 573.975 13.3438 543.63 11.9932 c 1
 525.458 14.3984 532.662 17.6787 528.489 34.6602 c 0
 524.489 115.899 l 0
 524.474 117.043 l 0
 525.146 162.598 526.037 203.582 525.208 264.842 c 0
 521.802 517.615 527.459 489.813 520.173 580.168 c 8
EndSplineSet
EndChar
StartChar: ordmasculine
Encoding: 186 186 59
Width: 306
VWidth: 1000
Flags: HW
Fore
34.1211 266.185 m 0
 17.127 289.661 23.333 318.099 39.707 336.786 c 0
 70.9678 372.467 111.194 358.527 138.41 363.163 c 0
 159.174 366.701 176.567 373.959 204.904 370 c 0
 223.237 367.438 248.941 366.794 266.929 342.269 c 0
 282.347 321.247 289.011 292.068 271.842 266.677 c 0
 244.927 226.874 201.546 232.668 169.27 231.443 c 0
 126.381 229.816 70.04 216.567 34.1211 266.185 c 0
133.66 593.008 m 0
 144.673 600.126 151.086 601.167 163.637 598.317 c 0
 171.736 596.479 174.225 594.32 181.158 585.662 c 0
 192.396 571.631 195.233 562.788 198.017 543.7 c 0
 201.938 516.802 200.455 502.721 191.131 477.263 c 0
 186.033 463.344 185.363 460.074 177.118 455.321 c 0
 170.145 451.301 167.17 452.063 154.11 453.891 c 0
 140.243 455.829 135.787 456.172 129.447 462.118 c 0
 116.751 474.026 113.801 482.991 110.748 503.354 c 0
 106.634 530.792 109.469 544.624 119.604 571.665 c 0
 124.35 584.324 125.652 587.831 133.66 593.008 c 0
154.625 396.516 m 0
 165.9 396.731 176.087 394.282 191.985 399.047 c 0
 206.666 403.447 217.347 408.826 228.904 420.857 c 0
 244.965 437.575 251.032 452.973 257.347 473.888 c 0
 264.644 498.057 264.422 514.428 263.373 538.067 c 0
 262.434 559.215 261.547 575.282 251.755 596.703 c 0
 243.884 613.923 234.527 623.546 222.724 635.351 c 0
 202.613 655.46 185.988 657.194 165.904 658 c 0
 135.291 659.229 111.392 652.872 86.2324 633.396 c 0
 60.4717 613.453 51.2773 590.741 42.8701 561.459 c 0
 34.3223 531.688 34.1963 508.239 41.2207 478.636 c 0
 47.0596 454.025 58.9014 437.888 76.8086 420.919 c 0
 89.8066 408.603 102.232 402.931 118.573 398.46 c 0
 132.741 394.583 143.449 396.302 154.625 396.516 c 0
EndSplineSet
EndChar
StartChar: onequarter
Encoding: 188 188 61
Width: 580
Flags: HW
VStem: 305.385 0<259.402 273.652> 326.26 6<213.027 226.527>
Fore
310.289 204.877 m 5
 387.113 207.438 286.248 203.727 360.529 208.442 c 5
 360.529 234.858 360.529 184.834 360.529 261.363 c 5
 358.135 266.348 301.49 203.378 310.289 204.877 c 5
430.957 34.002 m 4
 412.874 13.1689 385.851 10.4297 364.939 28.1816 c 5
 362.032 30.8262 360.627 33.5049 360.533 37.4336 c 4
 358.695 114.422 361.361 119.326 359.779 143.058 c 5
 325.655 145.616 333.964 124.3 259.137 142.551 c 5
 235.074 148.13 243.245 177.079 245.496 185.091 c 5
 245.814 186.222 246.271 187.268 246.888 188.269 c 4
 337.619 335.523 302.059 293.373 394.896 405.676 c 5
 396.273 407.317 397.844 408.485 399.83 409.294 c 4
 411.487 414.039 427.076 413.271 436.824 400.978 c 5
 438.359 398.997 439.218 396.948 439.468 394.455 c 4
 448.489 304.508 442.75 305.642 435.888 208.425 c 5
 454.303 207.309 442.172 222.444 527.723 217.692 c 5
 532.188 217.236 535.068 215.755 537.525 212 c 4
 556.242 183.398 532.298 155.2 511.463 141.311 c 5
 476.454 117.971 456.324 141.152 433.529 139.887 c 5
 433.529 84.4785 437.257 99.9541 434.011 41.5176 c 5
 433.797 38.5732 432.892 36.2314 430.957 34.002 c 4
269.575 406.22 m 4
 341.234 478.566 326.165 465.046 344.471 500.718 c 5
 323.165 496.396 323.553 496.447 320.338 505.378 c 4
 315.217 519.604 325.166 530.929 334.738 535.826 c 5
 336.631 536.777 338.523 537.245 340.665 537.245 c 4
 405.834 537.26 381.726 545.774 438.739 527.097 c 5
 441.211 526.255 443.087 524.988 444.665 522.995 c 4
 455.346 509.51 450.598 492.218 438.791 482.622 c 4
 425.261 471.628 405.104 478.702 412.164 481.88 c 5
 349.105 417.921 370.072 431.536 309.525 358 c 4
 260.371 298.302 251.429 292.294 208.477 232.208 c 5
 206.173 225.641 194.936 224.956 201.191 224.591 c 4
 214.165 223.833 219.964 232.482 225.875 217.451 c 4
 234.604 195.255 205.967 181.464 203.404 177.985 c 5
 200.586 174.531 197.766 172.938 193.165 172.921 c 4
 143.822 172.726 136.217 166.147 84.4316 173.035 c 5
 81.0527 173.565 78.623 174.826 76.4414 177.334 c 4
 74.0068 180.13 51.4717 188.438 52.6826 210.124 c 4
 53.7422 229.103 71.0898 236.366 81.3809 240.417 c 4
 103.457 249.104 114.445 236.305 115.045 237.028 c 4
 187.926 324.972 209.686 345.756 269.575 406.22 c 4
55.9541 387.359 m 0
 25.5742 387.068 35.752 429.885 45.8252 443.348 c 0
 56.96 458.229 72.6348 455.607 68.8945 445.826 c 1
 69.834 541.359 67.7715 491.359 70.2588 592.102 c 1
 73.71 585.09 61.1025 578.347 49.873 595.518 c 0
 36.749 615.583 36.791 647.057 57.5254 662 c 1
 59.8223 663.605 62.1143 664.377 64.917 664.359 c 0
 289.767 662.9 8.01562 665.858 163.954 664.359 c 1
 167.031 664.271 169.476 663.424 171.843 661.456 c 0
 191.973 644.725 194.536 618.571 184.092 596.927 c 0
 172.812 573.553 170.537 590.221 171.354 593.311 c 1
 170.834 533.359 170.834 536.359 173.334 442.439 c 1
 168.865 455.498 171.42 457.801 182.639 443.612 c 0
 186.687 438.493 212.53 388.541 177.576 387.861 c 0
 23.5234 384.87 210.894 388.85 55.9541 387.359 c 0
EndSplineSet
LCarets: 0 255 '    ' 2 0 0 
Ligature: 0 1 'frac' one slash four
Ligature: 0 1 'frac' one fraction four
EndChar
StartChar: onehalf
Encoding: 189 189 62
Width: 580
Flags: HW
VStem: 216.085 39<326.185 362.369 378.652 383.303 366.034 403.473> 255.085 0<326.185 383.185>
Fore
432.691 153.362 m 0
 456.684 163.294 473.147 163.34 492.346 150.701 c 1
 497.29 146.721 499.054 143.508 497.622 137.324 c 0
 484.834 82.084 487.633 97.9609 459.324 61.7012 c 1
 456.737 58.6221 454.076 57.1006 450.059 56.9072 c 0
 318.604 50.5859 401.363 53.8125 291.797 55.3428 c 0
 267.567 55.6816 276.461 87.7734 281.354 95.6475 c 0
 324.057 164.369 355.084 164.227 384.384 220.52 c 0
 392.852 236.79 393.971 248.688 386.063 257.728 c 0
 379.859 264.819 371.219 264.494 354.514 258.785 c 0
 335.488 252.282 340.539 241.667 309.134 214.592 c 1
 299.31 209.668 296.281 208.662 290.158 217.788 c 0
 273.174 243.102 283.213 258.202 289.186 266.854 c 0
 311.741 299.523 323.213 308.77 350.971 318.148 c 0
 383.518 329.145 422.139 341.263 453.682 310.615 c 0
 482.071 283.033 474.742 246.895 466 216 c 0
 453.493 171.804 422.338 163.53 406.93 139.62 c 1
 407.014 139.896 400.805 119.19 405.207 130.253 c 1
 421.972 129.061 363.088 128.189 429.873 129.401 c 1
 409.972 135.061 425.603 148.001 429.188 151.174 c 1
 430.245 152.104 431.391 152.823 432.691 153.362 c 0
269.575 406.22 m 0
 341.234 478.566 326.165 465.046 344.471 500.718 c 1
 323.165 496.396 323.553 496.447 320.338 505.378 c 0
 315.217 519.604 325.166 530.929 334.738 535.826 c 1
 336.631 536.777 338.523 537.245 340.665 537.245 c 0
 405.834 537.26 381.726 545.774 438.739 527.097 c 1
 441.211 526.255 443.087 524.988 444.665 522.995 c 0
 455.346 509.51 450.598 492.218 438.791 482.622 c 0
 425.261 471.628 405.104 478.702 412.164 481.88 c 1
 349.105 417.921 370.072 431.536 309.525 358 c 0
 260.371 298.302 251.429 292.294 208.477 232.208 c 1
 206.173 225.641 194.936 224.956 201.191 224.591 c 0
 214.165 223.833 219.964 232.482 225.875 217.451 c 0
 234.604 195.255 205.967 181.464 203.404 177.985 c 1
 200.586 174.531 197.766 172.938 193.165 172.921 c 0
 143.822 172.726 136.217 166.147 84.4316 173.035 c 1
 81.0527 173.565 78.623 174.826 76.4414 177.334 c 0
 74.0068 180.13 51.4717 188.438 52.6826 210.124 c 0
 53.7422 229.103 71.0898 236.366 81.3809 240.417 c 0
 103.457 249.104 114.445 236.305 115.045 237.028 c 0
 187.926 324.972 209.686 345.756 269.575 406.22 c 0
55.9541 387.359 m 0
 25.5742 387.068 35.752 429.885 45.8252 443.348 c 0
 56.96 458.229 72.6348 455.607 68.8945 445.826 c 1
 69.834 541.359 67.7715 491.359 70.2588 592.102 c 1
 73.71 585.09 61.1025 578.347 49.873 595.518 c 0
 36.749 615.583 36.791 647.057 57.5254 662 c 1
 59.8223 663.605 62.1143 664.377 64.917 664.359 c 0
 289.767 662.9 8.01562 665.858 163.954 664.359 c 1
 167.031 664.271 169.476 663.424 171.843 661.456 c 0
 191.973 644.725 194.536 618.571 184.092 596.927 c 0
 172.812 573.553 170.537 590.221 171.354 593.311 c 1
 170.834 533.359 170.834 536.359 173.334 442.439 c 1
 168.865 455.498 171.42 457.801 182.639 443.612 c 0
 186.687 438.493 212.53 388.541 177.576 387.861 c 0
 23.5234 384.87 210.894 388.85 55.9541 387.359 c 0
EndSplineSet
LCarets: 0 255 '    ' 2 0 0 
Ligature: 0 1 'frac' one slash two
Ligature: 0 1 'frac' one fraction two
EndChar
StartChar: threequarters
Encoding: 190 190 63
Width: 580
Flags: HW
VStem: 325.117 24<89.6167 143.617>
Fore
51.0312 473.337 m 0
 27.1035 490.025 40.5 518.501 46.6543 533.358 c 1
 47.21 534.691 47.9453 535.863 48.9121 536.937 c 0
 90.4297 583.073 94.9932 578.653 129.86 617.88 c 0
 130.483 618.58 130.13 624.552 121.987 631.654 c 0
 116.896 636.094 112.689 636.794 102.372 633.626 c 0
 87.1436 628.948 89.2852 602.892 53.7734 588.94 c 0
 24.5254 577.45 31.4346 625.65 32.5205 630.374 c 0
 40.9678 667.134 60.1602 692.741 88.5098 708.868 c 0
 119.158 726.304 112.895 722.099 132.398 724.944 c 0
 147.326 727.122 169.645 725.624 191.241 709.714 c 0
 222.14 686.954 210.912 653.257 205.449 626.567 c 0
 195.764 579.253 165.203 579.075 166.407 560.528 c 1
 177.203 570.075 181.424 573.407 196.704 560.679 c 0
 216.625 544.083 220.121 524.014 223.531 503.638 c 0
 229.826 466.028 228.367 438.374 213.789 402.382 c 0
 202.306 374.03 189.786 351.591 160 336 c 0
 123.104 316.688 74.6035 294.55 36.1709 330.438 c 0
 12.7314 352.328 13.7344 389.284 35.8643 411.413 c 1
 38.1162 413.579 40.46 414.735 43.5713 415.023 c 0
 78.5957 418.264 62.6689 413.739 89.0791 415.06 c 1
 92.0527 415.157 94.4883 414.491 96.9229 412.778 c 0
 109.01 404.278 101.397 403.671 104.684 388.052 c 0
 107.203 376.075 113.023 386.764 122.347 394.298 c 0
 141.24 409.563 146.027 424.316 149.288 452.035 c 0
 151.291 469.059 151.362 476.339 143.925 483.676 c 0
 135.953 491.539 127.924 490.572 108.648 489.11 c 1
 97.4727 488.263 96.5498 474.671 59.3877 471.131 c 1
 56.2148 470.894 53.6416 471.517 51.0312 473.337 c 0
310.289 204.877 m 1
 387.113 207.438 286.248 203.727 360.529 208.442 c 1
 360.529 234.858 360.529 184.834 360.529 261.363 c 1
 358.135 266.348 301.49 203.378 310.289 204.877 c 1
430.957 34.002 m 0
 412.874 13.1689 385.851 10.4297 364.939 28.1816 c 1
 362.032 30.8262 360.627 33.5049 360.533 37.4336 c 0
 358.695 114.422 361.361 119.326 359.779 143.058 c 1
 325.655 145.616 333.964 124.3 259.137 142.551 c 1
 235.074 148.13 243.245 177.079 245.496 185.091 c 1
 245.814 186.222 246.271 187.268 246.888 188.269 c 0
 337.619 335.523 302.059 293.373 394.896 405.676 c 1
 396.273 407.317 397.844 408.485 399.83 409.294 c 0
 411.487 414.039 427.076 413.271 436.824 400.978 c 1
 438.359 398.997 439.218 396.948 439.468 394.455 c 0
 448.489 304.508 442.75 305.642 435.888 208.425 c 1
 454.303 207.309 442.172 222.444 527.723 217.692 c 1
 532.188 217.236 535.068 215.755 537.525 212 c 0
 556.242 183.398 532.298 155.2 511.463 141.311 c 1
 476.454 117.971 456.324 141.152 433.529 139.887 c 1
 433.529 84.4785 437.257 99.9541 434.011 41.5176 c 1
 433.797 38.5732 432.892 36.2314 430.957 34.002 c 0
269.575 406.22 m 0
 341.234 478.566 326.165 465.046 344.471 500.718 c 1
 323.165 496.396 323.553 496.447 320.338 505.378 c 0
 315.217 519.604 325.166 530.929 334.738 535.826 c 1
 336.631 536.777 338.523 537.245 340.665 537.245 c 0
 405.834 537.26 381.726 545.774 438.739 527.097 c 1
 441.211 526.255 443.087 524.988 444.665 522.995 c 0
 455.346 509.51 450.598 492.218 438.791 482.622 c 0
 425.261 471.628 405.104 478.702 412.164 481.88 c 1
 349.105 417.921 370.072 431.536 309.525 358 c 0
 260.371 298.302 251.429 292.294 208.477 232.208 c 1
 206.173 225.641 194.936 224.956 201.191 224.591 c 0
 214.165 223.833 219.964 232.482 225.875 217.451 c 0
 234.604 195.255 205.967 181.464 203.404 177.985 c 1
 200.586 174.531 197.766 172.938 193.165 172.921 c 0
 143.822 172.726 136.217 166.147 84.4316 173.035 c 1
 81.0527 173.565 78.623 174.826 76.4414 177.334 c 0
 74.0068 180.13 51.4717 188.438 52.6826 210.124 c 0
 53.7422 229.103 71.0898 236.366 81.3809 240.417 c 0
 103.457 249.104 114.445 236.305 115.045 237.028 c 0
 187.926 324.972 209.686 345.756 269.575 406.22 c 0
EndSplineSet
LCarets: 0 255 '    ' 2 0 0 
Ligature: 0 1 'frac' three slash four
Ligature: 0 1 'frac' three fraction four
EndChar
StartChar: AE
Encoding: 198 198 71
Width: 1096
VWidth: 1080
Flags: HW
Fore
523.585 239.712 m 1
 485.801 239.353 416.387 251.095 319.539 242.814 c 1
 297.438 227.067 303.136 191.843 301.679 169.487 c 1
 279.365 181.714 331.798 194.432 360.112 163.499 c 1
 363.758 159.38 365.604 155.202 365.822 149.935 c 0
 367.856 100.706 374.08 67.9268 352.496 43.1348 c 1
 351.811 42.3467 351.073 41.6064 350.278 40.9082 c 0
 298.831 -4.30176 239.729 28.2842 200.141 26.4189 c 0
 161.246 24.5869 148.305 24.6641 122.574 23.792 c 1
 115.967 22.2021 94.0205 8.58984 53.543 34.0508 c 1
 50.668 35.875 48.3965 38.0342 46.5488 40.7324 c 0
 44.1318 44.2617 17.8086 58.4062 18.8506 88.4648 c 0
 20.3867 132.826 51.1406 159.809 86.5723 177.813 c 0
 124.111 196.89 158.03 182.2 151.804 177.986 c 1
 172.599 210.072 195.726 285.134 197.493 293.247 c 1
 197.637 293.802 197.805 294.353 197.994 294.896 c 0
 278.777 526.218 274.648 498.808 371.619 668.481 c 1
 374.261 672.94 377.651 676.048 382.657 678.318 c 0
 411.491 691.4 484.205 757.547 534.646 731.192 c 1
 882.802 728.658 826.925 745.162 1010.24 715.545 c 1
 1024.17 711.639 1030.01 707.428 1030.82 694.283 c 0
 1037.66 582.104 1061.04 626.773 1048.32 575.635 c 0
 1045.49 564.268 1088.74 556.97 1074.17 522.787 c 1
 1070.86 515.841 1066.5 511.78 1058.54 509.422 c 0
 986.211 487.992 976.283 494.245 896.077 499.354 c 1
 888.625 500.035 883.319 502.313 878.54 507.519 c 0
 838.173 551.467 896.302 542.555 890.447 565.648 c 0
 877.36 617.275 897.787 566.377 871.95 596.791 c 1
 834.615 602.601 809.291 606.283 728.138 593.495 c 1
 704.278 589.695 689.575 582.891 705.638 600.022 c 1
 703.064 494.369 702.948 541.649 705.479 411.491 c 1
 729.641 407.282 756.497 398.199 798.703 406.664 c 1
 806.565 411.519 774.803 473.525 830.616 504.91 c 0
 860.707 521.83 897.979 516.533 921.523 492.628 c 1
 925.727 488.172 927.775 483.696 927.837 477.844 c 0
 930.975 179.856 928.812 400.007 931.835 216.249 c 1
 931.019 205.557 927.771 199.791 916.991 195.296 c 0
 865.989 174.028 836.414 185.609 815.15 210.13 c 1
 812.649 213.053 811.067 216.136 810.291 219.761 c 0
 797.107 281.298 821.233 280.551 821.642 282.245 c 0
 823.086 288.236 813.95 287.396 788.429 294.542 c 0
 755.404 303.79 742.562 308.168 716.953 302.337 c 0
 699.62 298.391 699.451 297.939 696.644 293.126 c 1
 675.133 196.057 680.838 214.19 680.838 128.578 c 1
 680.662 128.94 686.951 123.663 696.986 120.267 c 1
 794.12 100.682 832.215 109.891 930.239 113.696 c 1
 959.979 127.613 931.129 142.438 1003.42 222.903 c 1
 1020.68 234.701 1026.24 237.278 1041.65 223.551 c 0
 1077.04 192.033 1071.97 165.775 1072.82 142.664 c 0
 1074.29 103.088 1081.51 53.3984 1032.26 18.5576 c 1
 1027.52 15.3232 1022.78 13.8457 1016.84 13.7539 c 0
 515.396 26.123 l 0
 530.544 167.147 521.009 205.176 523.585 239.712 c 1
531.112 363.351 m 1
 532.863 401.498 535.926 462.836 534.863 494.69 c 1
 554.209 543.985 486.585 526.985 480.626 541.389 c 1
 475.998 529.789 389.767 398.857 390.607 400.866 c 1
 417.688 411.131 396.608 356.438 399.479 361.163 c 1
 455.137 359.874 494.072 360.366 531.112 363.351 c 1
EndSplineSet
EndChar
StartChar: Ccedilla
Encoding: 199 199 71
Width: 727
Flags: HW
Fore
534.279 -1.89453 m 0
 563.914 31.7637 621.901 28.5098 655.835 70.9805 c 0
 675.493 95.584 699.125 185.684 635.095 176.26 c 0
 553.662 164.274 502.161 119.227 429.021 127.906 c 0
 354.95 136.696 312.085 154.957 266.347 208.59 c 0
 215.586 268.112 203.477 315.97 211.793 393.584 c 0
 221.555 484.681 247.422 540.178 321.443 595.871 c 0
 372.102 633.986 412.28 646.586 470.705 632.336 c 0
 525.105 619.067 541.267 583.65 584.881 528.091 c 0
 597.115 512.506 580.12 460.88 641.739 424.881 c 0
 659.639 414.424 664.84 418.475 678.282 433.818 c 1
 717.726 508.76 739.851 564.488 703.651 639.579 c 0
 673.226 702.693 612.715 712.265 563.403 731.465 c 0
 523.581 746.971 494.02 751.063 452.663 752.229 c 0
 395.259 753.847 352.158 755.055 294.043 731.307 c 0
 208.22 696.235 158.939 656.526 103.835 585.879 c 0
 45.1006 510.578 13.1182 450.262 5.9834 353.957 c 0
 0.923828 285.662 15.5957 237.231 51.3066 178.855 c 0
 96.7305 104.605 143.6 63.5459 223.225 23.5 c 0
 259.758 5.125 291.6 -5.91406 328.044 -9.92578 c 0
 354.007 -12.7842 359.105 -37.6875 376.25 -91.1094 c 0
 382.032 -109.129 382.538 -113.844 377.066 -126.395 c 0
 369.892 -142.85 282.455 -153.229 294.564 -216.671 c 0
 303.828 -265.208 362.364 -265.878 386.501 -264.649 c 0
 426.303 -262.623 449.506 -241.109 469.735 -219.782 c 0
 515.311 -171.732 524.743 -128.443 541.205 -73.5957 c 0
 554.213 -30.252 526.425 -10.8164 534.279 -1.89453 c 0
EndSplineSet
EndChar
StartChar: Eth
Encoding: 208 208 80
Width: 804
VWidth: 1080
Flags: HW
VStem: 138.246 108.904<200.747 326.875>
Fore
155.412 657.162 m 5
 150.495 657.197 143.496 657.119 135.359 655.125 c 4
 133.969 654.781 126.062 636.266 93.3125 634.641 c 5
 92 634.594 l 4
 78.1719 634.594 20.3125 632.25 16.2812 674.328 c 5
 7.0625 709.359 54.9531 736.188 85.75 749.359 c 4
 126.422 766.75 157.656 758.844 189.891 759.047 c 4
 301.219 759.781 372.969 765.641 486.531 736.375 c 4
 553 719.25 601.766 706.297 658.469 659.125 c 4
 720.656 607.375 755.234 561.438 777.125 485.031 c 4
 797.922 412.406 786.141 361.5 768.234 294.359 c 4
 749.281 223.328 732.844 172.062 677.516 114.188 c 4
 627.641 62.0156 581.188 39.4844 512.766 18.2656 c 4
 430.438 -7.25 376.422 1.875 298.312 0.953125 c 5
 298.25 0.953125 l 4
 195.203 0 150.422 1.07812 33.0312 14.4219 c 5
 25.8906 15.4219 20.8281 17.9688 16.3438 23.3281 c 4
 -3.5625 47.1562 -0.0625 80.3594 12.7344 111.281 c 5
 14.4219 115.281 16.8438 118.453 20.375 121.141 c 4
 72.9688 161.156 140.297 123.516 145.281 128.922 c 5
 147.155 189.009 148.383 233.362 149.175 267.173 c 5
 120.783 272.071 93.7901 284.875 72.2812 314.578 c 4
 49.625 345.875 57.9062 383.797 79.7344 408.719 c 4
 101.409 433.448 126.31 440.297 150.325 442.044 c 5
 150.684 480.051 151.922 540.471 155.412 657.162 c 5
311.77 451.495 m 5
 334.633 448.579 362.369 443.744 382.703 416.031 c 4
 403.25 388 412.141 349.094 389.25 315.234 c 4
 368.317 284.285 339.915 274.013 311.34 270.501 c 5
 310.652 239.338 308.509 198.954 302.984 129.203 c 4
 302.781 126.625 310.078 126.828 342.484 121.219 c 4
 375.531 115.484 393.562 120.938 430.141 135.828 c 4
 489.984 160.188 520.047 177.031 555.609 224.641 c 4
 598.422 281.969 611.938 319.297 611 389.203 c 4
 610.016 462.672 594.781 502.875 548.078 561.359 c 4
 511.078 607.688 482.5 625.969 423.984 642.203 c 4
 376.5 655.375 335.5 663.438 319.484 649.406 c 5
 315.109 560.809 312.857 498.181 311.77 451.495 c 5
EndSplineSet
Back
72.2891 314.58 m 4
 49.6299 345.881 57.9053 383.798 79.7363 408.715 c 4
 121.418 456.289 175.054 437.703 211.342 443.885 c 4
 239.025 448.602 262.218 458.278 300 453 c 4
 324.444 449.584 358.717 448.726 382.699 416.025 c 4
 403.257 387.996 412.142 349.091 389.25 315.236 c 4
 353.363 262.165 295.522 269.891 252.487 268.258 c 4
 195.302 266.089 120.181 248.424 72.2891 314.58 c 4
319.491 649.406 m 1
 335.499 663.442 376.493 655.38 423.988 642.204 c 0
 482.505 625.97 511.075 607.686 548.075 561.356 c 0
 594.776 502.879 610.023 462.672 611.002 389.199 c 0
 611.934 319.291 598.418 281.963 555.605 224.636 c 0
 520.049 177.024 489.979 160.188 430.138 135.824 c 0
 393.565 120.933 375.534 115.491 342.484 121.215 c 0
 310.085 126.826 302.776 126.628 302.98 129.206 c 0
 322.376 374.014 300.103 257.066 319.491 649.406 c 1
92 634.6 m 0
 93.3145 634.633 l 1
 126.057 636.27 133.971 654.783 135.354 655.121 c 0
 158.378 660.769 172.292 651.085 155.701 666.847 c 1
 143.74 270.176 156.872 500.692 145.276 128.925 c 1
 140.298 123.519 72.9746 161.158 20.3828 121.146 c 0
 16.8369 118.447 14.4287 115.288 12.7314 111.284 c 1
 -0.0556641 80.3643 -3.56934 47.1514 16.3418 23.3271 c 0
 20.8252 17.9629 25.8975 15.4199 33.0293 14.418 c 1
 150.419 1.07422 195.208 0.000976562 298.243 0.951172 c 0
 298.309 0.952148 l 1
 376.418 1.86719 430.445 -7.24609 512.76 18.2725 c 0
 581.186 39.4873 627.635 62.0195 677.508 114.184 c 0
 732.842 172.06 749.282 223.321 768.234 294.365 c 0
 786.144 361.502 797.924 412.404 777.124 485.032 c 0
 755.241 561.442 720.657 607.368 658.469 659.118 c 0
 601.77 706.301 552.993 719.25 486.532 736.375 c 0
 372.965 765.637 301.217 759.775 189.89 759.05 c 0
 157.663 758.84 126.416 766.754 85.751 749.362 c 0
 54.9541 736.191 7.05566 709.366 16.2773 674.321 c 1
 20.3047 632.243 78.1729 634.6 92 634.6 c 0
EndSplineSet
EndChar
StartChar: multiply
Encoding: 215 215 86
Width: 446
VWidth: 1080
Flags: HW
Fore
396.231 467.5 m 0
 361.278 428.031 297.2 353.297 277.31 326.906 c 1
 288.278 299.109 320.388 282.578 379.685 205.781 c 1
 381.341 203.625 382.606 201.328 383.497 198.766 c 0
 386.356 190.609 403.825 164.312 384.075 136.328 c 1
 381.466 132.703 378.388 130.078 374.356 128.156 c 0
 342.638 113.094 323.169 114.75 302.747 112.406 c 1
 272.419 121.719 275.888 116.75 277.544 148.438 c 0
 224.56 204.266 l 1
 222.591 212.531 222.497 210.422 212.919 214.594 c 1
 209.919 214.797 199.966 214.703 198.138 214.625 c 1
 182.028 198.531 186.419 213.641 176.966 196.719 c 1
 173.435 183.75 148.513 140.641 149.122 138.312 c 1
 149.45 116.75 148.356 110.984 127.153 107.094 c 0
 93.4346 100.922 86.3408 106.859 59.6689 112.859 c 1
 58.7314 113.078 50.8096 113.328 49.8877 113.656 c 0
 9.15332 127.906 69.0752 190.375 64.9346 200.719 c 1
 74 224 74.1846 219.219 82.4814 227.672 c 0
 142.981 289.406 135.856 288.734 148.028 310.109 c 1
 138.591 330.219 107.544 408.969 58.7939 475.172 c 1
 50.7314 500.578 48.2471 504.031 72.8721 514.25 c 0
 102.466 526.531 106.419 523.75 131.903 523.75 c 1
 143.231 522.875 149.435 519.594 154.513 509.422 c 0
 167.435 483.516 213.747 410.656 216.325 409 c 1
 219.138 407.312 219.278 406.344 228.075 409.641 c 1
 239.138 413.844 235.841 416.953 253.919 439.188 c 1
 297.856 484.875 l 0
 310 516 304 504 320.981 523.641 c 0
 322.391 525.271 375.591 536.484 399.278 497.469 c 1
 405.044 485.062 405.31 477.75 396.231 467.5 c 0
EndSplineSet
EndChar
StartChar: Oslash
Encoding: 216 216 87
Width: 783
VWidth: 1080
Flags: HW
Fore
563.584 738.231 m 1
 568.013 742.224 572.89 745.513 577.719 747.984 c 5
 581.516 749.891 585.297 750.828 589.578 750.828 c 4
 719.922 750.859 671.703 767.875 785.719 730.531 c 5
 790.672 728.844 794.422 726.312 797.578 722.328 c 4
 818.938 695.359 809.438 660.766 785.828 641.578 c 4
 762.498 622.625 729.32 630.521 729.663 637.134 c 1
 716.482 623.675 l 1
 717.438 622.391 l 0
 794.312 518.672 782.688 421.688 759.547 306.906 c 0
 741.266 216.125 689.859 168.125 646.875 106.406 c 1
 562.495 -15.8454 403.891 -22.2417 277.007 21.9586 c 1
 193.643 20.2416 174.198 9.48653 77.1094 22.4062 c 5
 70.3438 23.4688 65.5 25.9844 61.125 31 c 4
 56.2656 36.5938 11.1875 53.2031 13.6094 96.5781 c 4
 15.7344 134.531 50.4219 149.062 71.0156 157.172 c 4
 73.5873 158.145 l 1
 48.2292 189.059 29.673 226.149 22.2812 272.688 c 0
 2.71875 395.844 5.01562 494.281 88.0781 598.375 c 0
 177.328 710.219 284.5 759.359 430.094 758.828 c 0
 478.908 758.646 523.307 752.154 563.584 738.231 c 1
552.841 598.855 m 1
 546.719 604 l 0
 501.422 640.938 468.219 656.031 414.312 647.078 c 0
 343.266 635.281 309.781 599.172 266.156 533.359 c 0
 233.578 484.234 233.469 451.281 229.969 385.234 c 0
 227.263 334.143 223.675 299.982 234.491 264.164 c 1
 311.906 353.282 358.785 399.309 447.391 488.781 c 4
 506.249 548.198 535.854 578.653 552.841 598.855 c 1
610.035 498.628 m 1
 593.263 475.508 570.801 445.167 527.297 392.328 c 4
 431.883 276.458 412.233 261.724 332.628 151.103 c 1
 340.324 147.911 348.7 144.918 357.906 142 c 0
 410.562 125.328 443.281 124.156 489.016 147.922 c 0
 546.359 177.719 563.328 216.062 590.75 282.094 c 0
 620.797 354.453 628.625 397.125 615.344 471.781 c 0
 613.64 481.371 611.912 490.28 610.035 498.628 c 1
EndSplineSet
EndChar
StartChar: Thorn
Encoding: 222 222 93
Width: 589
VWidth: 1080
Flags: HW
VStem: 120.82 118<79.1551 220.705>
Fore
280.242 527.102 m 1
 271.867 436.51 272.008 404.418 280.539 333.939 c 1
 288.227 327.646 311.508 340.768 355.508 359.782 c 0
 382.18 371.316 391.57 376.096 400.117 393.7 c 0
 415.742 425.852 416.586 447.078 400.336 478.829 c 0
 387.773 503.381 373.555 511.945 340.602 522.826 c 0
 312.18 532.207 307.477 534.805 280.242 527.102 c 1
275.221 634.309 m 1
 364.177 613.989 448.347 635.266 520.586 566.675 c 1
 559.008 533.647 568.492 495.262 571.758 452.941 c 0
 575.117 409.138 562.555 378.188 542.883 343.128 c 0
 514.82 293.134 489.617 253.07 429.992 224.764 c 0
 349.336 186.452 292.242 211.775 282.102 210.944 c 1
 282.695 166.428 285.93 167.17 288.617 125.711 c 1
 283.008 126.884 389.977 162.702 432.82 87.2363 c 0
 449.445 57.9648 434.18 32.1211 408.336 12.6914 c 1
 403.57 9.23242 398.805 7.55469 392.82 7.55469 c 0
 279.867 7.46582 186.617 -9.8418 51.6016 6.79785 c 1
 44.8516 7.79297 39.9297 10.2266 35.5547 15.2148 c 0
 -2.83594 59.0625 31.2578 89.4033 55.5547 109.19 c 1
 57.8516 111.046 60.3203 112.441 63.1484 113.436 c 0
 95.4443 124.774 109.121 123.853 114.318 119.181 c 1
 115.543 194.036 115.835 279.771 115.82 289.705 c 1
 115.82 290.21 115.836 290.729 115.867 291.234 c 0
 122.456 388.567 121.664 564.801 120.652 634.049 c 1
 103.769 632.403 80.2598 633.034 46.6172 639.824 c 1
 40.9141 641.071 36.5703 643.432 32.7734 647.677 c 0
 4.89844 678.7 16.2578 721.51 44.1016 745.305 c 1
 48.9609 749.297 53.8828 751.271 60.3203 751.405 c 0
 146.227 753.172 298.227 747.516 368.07 749.49 c 0
 401.414 750.44 423.102 691.822 391.914 651.773 c 0
 371.258 625.263 278.461 635.193 277.023 634.348 c 0
 276.626 634.11 276.004 634.116 275.221 634.309 c 1
EndSplineSet
EndChar
StartChar: adieresis
Encoding: 228 228 34
Width: 480
Flags: HW
Fore
255.75 561.5 m 28
 284.761 553.796 311.781 557.897 330 581.75 c 28
 347.577 604.763 343.251 630.252 330 656 c 28
 319.638 676.136 305.396 689.75 282.75 689.75 c 28
 260.105 689.75 245.862 676.136 235.5 656 c 28
 222.25 630.252 224.419 608.503 235.5 581.75 c 28
 239.775 571.432 244.956 564.368 255.75 561.5 c 28
105.75 561.5 m 28
 134.761 553.796 161.781 557.897 180 581.75 c 28
 197.577 604.763 193.251 630.252 180 656 c 28
 169.638 676.136 155.397 689.75 132.75 689.75 c 28
 110.104 689.75 95.8623 676.136 85.5 656 c 28
 72.25 630.252 74.4189 608.503 85.5 581.75 c 28
 89.7744 571.432 94.9561 564.368 105.75 561.5 c 28
EndSplineSet
Ref: 97 97 N 1 0 0 1 0 0
EndChar
StartChar: ae
Encoding: 230 230 36
Width: 664
VWidth: 1000
Flags: HW
Fore
262.703 228.062 m 0
 261.562 241.625 256.109 241.531 253.328 247.719 c 0
 252.594 249.359 254.125 247.562 240 243.828 c 0
 225.766 240.078 221.5 236.375 205.078 225.938 c 0
 184.766 213.016 178.969 211.484 170.875 200.328 c 0
 163.766 190.562 163.547 189 163.625 186.422 c 0
 164.562 155.547 168.828 130.062 181.141 138.672 c 0
 187.188 142.906 175.078 140.828 195.156 149.125 c 0
 222.203 160.312 231.203 160.938 242.641 174.266 c 0
 259.484 193.906 264.734 203.922 262.703 228.062 c 0
328.375 553.984 m 0
 397.344 551.906 444.719 561.422 519.5 540.031 c 0
 546.688 532.266 594.656 532.688 619.969 482.219 c 0
 649.297 423.703 647.469 387.141 630.062 340.297 c 0
 624.156 324.406 611.234 299.141 581.109 296.125 c 0
 574.031 295.422 397.344 284.625 382.766 299.281 c 0
 380.078 301.984 399.797 263.047 404.281 236.109 c 0
 410.609 198.172 414.391 181.359 436.938 161.938 c 0
 448.719 151.812 456.891 152.531 484.969 149.891 c 0
 514.281 147.141 521.312 144.5 531.297 151.484 c 0
 536.281 154.969 534.891 158.844 542.906 182.906 c 0
 562.25 240.906 646.547 216.219 643.594 161.641 c 0
 640.703 108.422 638.062 100.406 623.125 75.2344 c 0
 610.25 53.5469 593.219 37.7969 569.141 27.875 c 0
 536.438 14.4219 512.891 22.1406 491.781 22 c 0
 463.406 21.8281 449.359 25.4062 427.078 25 c 0
 400.422 24.5312 385.594 21.5469 355.672 19.0781 c 1
 353.562 18.9062 351.5 19 349.406 19.3594 c 0
 342.672 20.5156 327.469 17.0312 306.922 27.9062 c 0
 285.688 39.1562 279.938 54.2344 274.781 59.4844 c 0
 259.406 75.1562 266.016 63.6094 268.547 73.1875 c 0
 270.672 81.2656 260.047 61.4531 227.172 42.375 c 0
 217.344 36.6719 206.328 22.9219 180.781 17.5312 c 0
 145.328 10.0781 108.875 6 71.2188 29.8906 c 0
 41.6406 48.6875 32.5312 76.5625 26.3281 102.109 c 0
 16.6094 142.188 18.5625 175.438 33.2812 213.922 c 0
 45.375 245.578 64.1406 262.875 85.3906 281.016 c 0
 118.656 309.406 145.641 321.312 183.438 336.25 c 0
 220.969 351.078 235.875 341.297 245.875 349.422 c 0
 248.156 351.25 248 350.312 251.25 364.578 c 0
 255.547 383.297 255.016 390.406 251.062 411.359 c 0
 246.016 438.062 246.75 442.594 241.031 446.703 c 0
 239.125 448.078 239.25 448.5 220.875 444.562 c 0
 200.641 440.219 196.719 439.172 190.672 431.062 c 0
 182.984 420.734 186.344 401.234 183.438 377.906 c 0
 177.422 329.75 123.734 305.891 83.4062 318.062 c 0
 40.9219 330.891 28.6406 372.219 35.0156 408.344 c 0
 41.2656 443.844 51.4688 479.078 85.4062 508.031 c 0
 131.812 547.594 176.859 545.375 223.766 552.703 c 0
 265.766 559.266 291.359 555.109 328.375 553.984 c 0
417.313 395.654 m 1
 436.882 395.364 464.364 391.718 484.972 387.624 c 1
 484.854 404.061 508.056 432.277 504.454 434.838 c 0
 490.076 445.053 472.145 441.926 438.573 419.719 c 0
 429.859 413.956 423.174 403.98 417.313 395.654 c 1
EndSplineSet
EndChar
StartChar: ccedilla
Encoding: 231 231 36
Width: 462
Flags: HW
Fore
225.798 108.438 m 0
 188.773 130.652 178.349 161.884 174.685 187.535 c 0
 166.861 242.302 172.031 271.176 192.282 324.06 c 0
 201.815 348.956 204.977 357.032 220.443 366.963 c 0
 242.632 381.21 254.884 383.208 280.587 377.579 c 0
 292.569 374.954 295.402 366.088 320.1 347.878 c 0
 326.461 343.188 341.635 304.925 382.232 307.033 c 0
 411.748 308.566 429.382 331.84 434.361 354.673 c 0
 443.368 395.976 422.488 427.803 398.613 451.678 c 0
 358.481 491.81 324.733 495.489 284.871 496.982 c 0
 223.606 499.277 175.624 487.062 125.487 447.655 c 0
 73.8945 407.105 55.5371 362.102 38.8975 303.869 c 0
 21.7793 243.962 21.4902 197.728 35.6074 138.248 c 0
 47.1611 89.5674 70.5215 56.0488 107.042 22.5713 c 0
 138.152 -5.94629 142.133 -3.74609 127.104 5.37012 c 1
 125.836 24.2773 126.253 14.2002 128.322 -4.43164 c 0
 134.789 -62.6523 202.741 -64.6445 202.809 -66.8516 c 0
 203.233 -80.6631 208.601 -84.3438 202.072 -100.104 c 0
 194.898 -117.424 107.461 -128.352 119.57 -195.133 c 0
 128.835 -246.223 187.37 -246.93 211.508 -245.636 c 0
 251.309 -243.503 274.513 -220.856 294.742 -198.407 c 0
 339.188 -149.083 355.014 -104.23 366.733 -42.3223 c 0
 370.854 -20.5547 373.537 15.7324 372.782 -8.64551 c 1
 350.949 -16.4229 378.188 -22.0117 413.04 25.1396 c 0
 431.277 49.8135 432.565 62.3945 435.882 113.385 c 0
 439.343 166.614 356.438 193.835 335.388 135.393 c 0
 325.759 108.663 327.127 104.087 320.45 100.441 c 0
 290.165 83.9033 254.154 91.4238 225.798 108.438 c 0
EndSplineSet
EndChar
StartChar: edieresis
Encoding: 235 235 40
Width: 427
Flags: HW
Fore
289.75 561.5 m 24
 318.761 553.796 345.781 557.897 364 581.75 c 24
 381.577 604.763 377.251 630.252 364 656 c 24
 353.638 676.136 339.395 689.75 316.75 689.75 c 24
 294.104 689.75 279.862 676.136 269.5 656 c 24
 256.25 630.252 258.419 608.503 269.5 581.75 c 24
 273.774 571.432 278.956 564.367 289.75 561.5 c 24
139.75 561.5 m 24
 168.761 553.796 195.781 557.897 214 581.75 c 24
 231.577 604.763 227.251 630.252 214 656 c 24
 203.638 676.136 189.396 689.75 166.75 689.75 c 24
 144.104 689.75 129.862 676.136 119.5 656 c 24
 106.25 630.252 108.419 608.503 119.5 581.75 c 24
 123.774 571.432 128.956 564.367 139.75 561.5 c 24
EndSplineSet
Ref: 101 101 N 1 0 0 1 0 0
EndChar
StartChar: idieresis
Encoding: 239 239 44
Width: 313
Flags: HW
VStem: 97 80<66 72> 97 85<72 151.447>
Fore
196.312 514.812 m 24
 218.07 509.035 238.336 512.11 252 530 c 24
 265.182 547.26 261.938 566.376 252 585.688 c 24
 244.228 600.789 233.547 611 216.562 611 c 24
 199.578 611 188.896 600.789 181.125 585.688 c 24
 171.187 566.376 172.814 550.065 181.125 530 c 24
 184.331 522.261 188.217 516.963 196.312 514.812 c 24
83.8125 514.812 m 24
 105.57 509.035 125.836 512.11 139.5 530 c 24
 152.682 547.26 149.438 566.376 139.5 585.688 c 24
 131.729 600.789 121.047 611 104.062 611 c 24
 87.0781 611 76.3965 600.789 68.625 585.688 c 24
 58.6875 566.376 60.3145 550.065 68.625 530 c 24
 71.8311 522.261 75.7168 516.963 83.8125 514.812 c 24
EndSplineSet
Ref: 305 305 N 1 0 0 1 0 0
EndChar
StartChar: eth
Encoding: 240 240 45
Width: 507
VWidth: 1000
Flags: HW
Fore
270.828 422.547 m 0
 262.609 424.281 260.438 422.719 242.125 413.609 c 0
 225.062 405.125 219.906 400.828 207.516 385.359 c 0
 174.75 344.484 159.234 323.219 152.75 277.484 c 0
 147.672 241.719 149.453 224.453 167.156 196.312 c 0
 186.094 166.234 203.891 157.484 243.031 142.312 c 0
 263.531 134.359 268.203 132.547 279.719 136.594 c 0
 295.562 142.141 299.703 149.984 314.766 174.203 c 0
 335.5 207.516 342.234 224.656 345.062 262.844 c 0
 348.891 314.531 348.516 340.797 324.641 380 c 0
 308.484 406.547 297.078 416.984 270.828 422.547 c 0
454.891 129.875 m 0
 453.029 90.7149 405.03 59.5879 358 36 c 24
 288.439 1.11104 229.688 -4.0625 161.016 4.17188 c 0
 112.297 10.0312 97 51.3438 80.7188 71.0938 c 0
 61.4219 94.4844 47.8438 113.344 36.5156 144.438 c 0
 23.6094 179.844 19.9219 206.828 21.0156 243.734 c 0
 22.75 303.188 27.7031 345.797 55.5938 402.094 c 0
 81.6719 454.719 108.547 488.406 158.031 521.734 c 0
 183.031 538.562 206.969 546.625 236.875 547.969 c 0
 272.453 549.578 332.062 537.625 356 530 c 0
 364.406 527.266 l 1
 362.683 547.407 361.313 565.975 351.756 583.689 c 1
 325.017 574.593 296.965 569.703 270.578 580.719 c 0
 249.25 589.609 248.609 609.547 259.734 626.844 c 0
 263.659 632.951 268.258 638.102 273.302 642.518 c 1
 268.305 644.621 263.023 646.724 257.438 648.828 c 1
 257.562 651.891 261.328 659.891 259.359 657.562 c 0
 240.891 635.562 206.641 616.641 199.391 642.031 c 0
 187.688 683 230.766 741.391 260 760 c 0
 305.703 789.078 347.719 761.242 386 728 c 16
 395.344 719.886 403.616 712.39 410.933 705.106 c 1
 428.345 709.842 450.958 716.621 472 708 c 0
 491.281 700.109 504.203 684.109 493.859 662.328 c 0
 485.959 645.698 471.92 634.507 456.123 626.038 c 1
 461.157 603.477 463.389 575.505 464.047 537.797 c 0
 465.859 432.938 455.75 292.594 454.891 129.875 c 0
EndSplineSet
EndChar
StartChar: ocircumflex
Encoding: 244 244 48
Width: 486
Flags: HW
Fore
232.612 562.174 m 4
 236.175 585.688 241.162 612.762 253.275 646.962 c 5
 283.912 630.575 287.475 572.862 298.875 555.762 c 4
 306.326 544.584 380.211 546.459 376.468 560.037 c 4
 370.236 582.642 363.1 606.068 354.45 630.575 c 12
 338.202 676.612 338.775 697.549 306 746 c 5
 278.925 761.674 257.55 750.275 226.2 734.599 c 5
 180.583 646.16 166.898 618.199 146.797 564.312 c 4
 142.936 553.957 230.456 547.94 232.612 562.174 c 4
EndSplineSet
Ref: 111 111 N 1 0 0 1 0 0
EndChar
StartChar: odieresis
Encoding: 246 246 50
Width: 486
Flags: HW
Fore
317.75 547.75 m 28
 346.76 540.046 373.781 544.147 392 568 c 28
 409.577 591.013 405.251 616.502 392 642.25 c 28
 381.637 662.386 367.396 676 344.75 676 c 28
 322.104 676 307.862 662.386 297.5 642.25 c 28
 284.25 616.502 286.419 594.753 297.5 568 c 28
 301.774 557.682 306.956 550.617 317.75 547.75 c 28
167.75 547.75 m 28
 196.76 540.046 223.781 544.147 242 568 c 28
 259.577 591.013 255.251 616.502 242 642.25 c 28
 231.637 662.386 217.396 676 194.75 676 c 28
 172.104 676 157.862 662.386 147.5 642.25 c 28
 134.25 616.502 136.419 594.753 147.5 568 c 28
 151.774 557.682 156.956 550.617 167.75 547.75 c 28
EndSplineSet
Ref: 111 111 N 1 0 0 1 0 0
EndChar
StartChar: divide
Encoding: 247 247 51
Width: 373
Flags: HW
Fore
160.595 427.119 m 0
 184.701 420.717 211.814 423.754 229.502 446.912 c 0
 246.682 469.404 241.505 495.197 230.801 516 c 0
 222.179 532.754 207.585 548.207 183.924 548.207 c 0
 160.564 548.207 145.812 533.031 137.048 516 c 0
 125.402 493.368 127.645 471.544 136.57 449.996 c 0
 140.245 441.125 147.234 430.666 160.595 427.119 c 0
162.842 55.1191 m 0
 186.948 48.7168 214.062 51.7539 231.749 74.9121 c 0
 248.929 97.4043 243.752 123.197 233.048 144 c 0
 224.426 160.754 209.832 176.207 186.171 176.207 c 0
 162.812 176.207 148.06 161.031 139.295 144 c 0
 127.649 121.368 129.892 99.5439 138.817 77.9961 c 0
 142.492 69.125 149.481 58.666 162.842 55.1191 c 0
27.9951 256.695 m 0
 5.33594 287.996 13.6113 325.913 35.4424 350.83 c 0
 77.124 398.404 130.76 379.818 167.048 386 c 0
 194.731 390.717 217.924 400.394 255.706 395.115 c 0
 280.15 391.699 314.423 390.841 338.405 358.141 c 0
 358.963 330.111 367.848 291.206 344.956 257.352 c 0
 309.069 204.28 251.229 212.006 208.193 210.373 c 0
 151.008 208.204 75.8867 190.539 27.9951 256.695 c 0
EndSplineSet
EndChar
StartChar: oslash
Encoding: 248 248 52
Width: 552
VWidth: 1000
Flags: HW
Fore
408.457 493.342 m 1
 474.603 494.553 451.703 502.771 521.523 479.891 c 1
 524.773 478.781 527.242 477.125 529.305 474.5 c 0
 543.32 456.812 537.086 434.125 521.602 421.531 c 0
 506.299 409.098 484.526 414.282 484.752 418.621 c 1
 475.087 408.745 l 1
 475.711 407.391 l 0
 495.305 364.547 497.07 332.406 498.945 290.109 c 0
 501.055 242.828 501.492 210.094 486.898 161.75 c 0
 474.273 119.922 462.133 89.125 430.008 55.6875 c 0
 406.898 31.625 385.539 20.875 356.18 12.0781 c 0
 324.383 2.54688 304.008 7.4375 281.461 7.01562 c 0
 259.102 6.57812 237.695 3.14062 209.352 10.8906 c 0
 204.456 12.2324 199.734 13.627 195.159 15.1133 c 1
 134.081 14.5244 123.083 6.44629 56.6016 15.2969 c 1
 52.1797 15.9844 48.9922 17.6406 46.1172 20.9375 c 0
 42.9297 24.5938 13.3516 35.5 14.9453 63.9531 c 0
 16.3359 88.8594 39.1016 98.3906 52.6016 103.703 c 0
 65.127 108.635 74.9326 108.294 82.0928 106.396 c 1
 69.7754 125.231 60.6328 146.015 54.6484 171.25 c 0
 40.6016 230.453 40.8516 277.359 57.9453 336.891 c 0
 74.7578 395.453 93.1484 440.891 144.664 480.766 c 0
 194.992 519.719 242.789 532.438 304.023 529.984 c 0
 341.081 528.484 372.258 525.415 408.457 493.342 c 1
346.385 369.058 m 1
 343.042 374.212 339.137 379.535 334.523 385.297 c 0
 320.664 402.625 315.68 406.938 299.477 410.609 c 0
 274.383 416.312 261.555 414.234 239.523 399.984 c 0
 223.508 389.641 220.898 382.625 211.414 357.312 c 0
 191.148 303.219 185.477 275.562 193.711 220.688 c 0
 194.864 213.262 l 1
 227.7 249.216 255.911 277.222 299.555 321.281 c 0
 346.385 369.058 l 1
370.784 281.178 m 1
 351.977 258 l 0
 298.781 193.388 281.477 176.707 245.43 128.616 c 1
 253.491 125.319 263.424 124.142 280.43 121.766 c 0
 306.555 118.109 312.492 116.578 326.445 124.625 c 0
 342.93 134.125 344.273 140.672 354.461 168.5 c 0
 370.639 212.657 375.021 239.695 370.784 281.178 c 1
EndSplineSet
EndChar
StartChar: udieresis
Encoding: 252 252 56
Width: 498
Flags: HW
VStem: 47 93<142 375> 291 86<127 394>
Fore
277.75 557.5 m 24
 306.761 549.796 333.781 553.897 352 577.75 c 24
 369.577 600.763 365.251 626.252 352 652 c 24
 341.638 672.136 327.397 685.75 304.75 685.75 c 24
 282.105 685.75 267.862 672.136 257.5 652 c 24
 244.25 626.252 246.419 604.503 257.5 577.75 c 24
 261.774 567.432 266.956 560.367 277.75 557.5 c 24
127.75 557.5 m 24
 156.761 549.796 183.781 553.897 202 577.75 c 24
 219.577 600.763 215.251 626.252 202 652 c 24
 191.638 672.136 177.397 685.75 154.75 685.75 c 24
 132.105 685.75 117.862 672.136 107.5 652 c 24
 94.25 626.252 96.4189 604.503 107.5 577.75 c 24
 111.774 567.432 116.956 560.367 127.75 557.5 c 24
EndSplineSet
Ref: 117 117 N 1 0 0 1 0 0
EndChar
StartChar: thorn
Encoding: 254 254 58
Width: 567
VWidth: 1080
Flags: HW
VStem: 118 118<-160 3>
Fore
259.422 465.891 m 1
 249.812 356.297 250.062 179.641 259.719 95.5625 c 1
 269.172 87.4375 295.797 95.9844 330.625 120.453 c 0
 377.406 153.312 389.5 189.25 401.438 252.625 c 0
 413.953 319.125 412.859 358 381.266 413.656 c 0
 365.875 440.75 352.141 450.188 319.828 461.375 c 0
 291.609 471.141 286.422 473.938 259.422 465.891 c 1
99.5914 635.442 m 1
 82.7247 633.741 59.2798 634.433 25.7969 641.547 c 1
 20.0938 642.859 15.75 645.344 11.9531 649.812 c 0
 -15.9219 682.469 -4.5625 727.531 23.2812 752.578 c 1
 28.1406 756.781 33.0625 758.859 39.5 759 c 0
 125.406 760.859 277.406 754.906 347.25 756.984 c 0
 380.594 757.984 402.281 696.281 371.094 654.125 c 0
 350.438 626.219 255.234 637.156 256.203 635.781 c 0
 257.281 634.281 216.891 618.484 242.484 587 c 1
 333.343 557.18 421.029 578.44 499.312 507.938 c 1
 539.438 473.375 548.156 433.641 556.531 390.797 c 0
 572.547 308.938 571.281 249.75 543.625 169.828 c 0
 516.625 91.8125 492.047 23.875 409.562 -19.1562 c 0
 327.516 -61.9844 265.578 -22 261.312 -22 c 1
 261.891 -68 264.844 -75.6719 267.797 -123.625 c 1
 262.188 -122.391 369.156 -84.6719 412 -164.125 c 0
 428.625 -194.938 413.359 -222.141 387.516 -242.594 c 1
 382.75 -246.234 377.984 -248 372 -248 c 0
 259.047 -248.094 165.797 -266.312 30.7812 -248.797 c 1
 24.0312 -247.75 19.1094 -245.188 14.7344 -239.938 c 0
 -23.6562 -193.781 10.4375 -161.844 34.7344 -141.016 c 1
 37.0312 -139.062 39.5 -137.594 42.3281 -136.547 c 0
 74.6237 -124.611 88.3008 -125.581 93.4981 -130.5 c 1
 94.7226 -51.7043 95.0144 38.5439 95 49 c 1
 95 49.5312 95.0156 50.0781 95.0469 50.6094 c 0
 102.115 160.533 100.66 524.808 99.5914 635.442 c 1
EndSplineSet
EndChar
StartChar: ydieresis
Encoding: 255 255 58
Width: 545
Flags: HW
Fore
345 559.75 m 24
 374.01 552.046 401.031 556.146 419.25 580 c 24
 436.827 603.012 432.501 628.502 419.25 654.25 c 24
 408.887 674.386 394.646 688 372 688 c 24
 349.354 688 335.112 674.386 324.75 654.25 c 24
 311.5 628.502 313.668 606.753 324.75 580 c 24
 329.024 569.681 334.206 562.617 345 559.75 c 24
195 559.75 m 24
 224.01 552.046 251.031 556.146 269.25 580 c 24
 286.827 603.012 282.501 628.502 269.25 654.25 c 24
 258.887 674.386 244.646 688 222 688 c 24
 199.354 688 185.112 674.386 174.75 654.25 c 24
 161.5 628.502 163.668 606.753 174.75 580 c 24
 179.024 569.681 184.206 562.617 195 559.75 c 24
EndSplineSet
Ref: 121 121 N 1 0 0 1 0 0
EndChar
StartChar: dcroat
Encoding: 273 273 74
Width: 516
VWidth: 1000
Flags: HW
HStem: 538 92<307.376 308.376> 538 95.296<283.376 307.376>
VStem: 307.376 70<517 542 638.816 644 644.031 690.991>
Fore
260.205 430.547 m 0
 251.986 432.281 249.814 430.719 231.502 421.609 c 0
 214.439 413.125 209.283 408.828 196.877 393.359 c 0
 164.127 352.484 148.627 331.219 142.127 285.484 c 0
 137.049 249.719 138.83 232.453 156.533 204.312 c 0
 175.471 174.234 193.252 165.484 232.408 150.312 c 0
 252.908 142.359 257.58 140.547 269.096 144.594 c 0
 284.939 150.141 289.08 157.969 304.143 182.203 c 0
 324.877 215.516 331.611 232.656 334.439 270.844 c 0
 338.268 322.531 337.893 348.797 314.018 388 c 0
 297.861 414.547 286.455 424.984 260.205 430.547 c 0
321.708 676.337 m 1
 319.028 690.594 318.647 721.432 318.466 722.613 c 0
 319.005 726.031 322.148 732.84 320.314 730.656 c 0
 301.846 708.656 267.596 689.734 260.346 715.125 c 0
 248.627 756.094 291.721 814.484 320.955 833.094 c 0
 406.252 887.375 448.83 792.219 435.689 771.297 c 1
 441.304 765.891 431.89 712.688 436.377 674.578 c 1
 452.049 660.906 468.939 694.047 489.361 666.906 c 0
 506.314 644.359 513.439 611.75 494.58 583.875 c 0
 480.471 563 426.893 560.25 426.908 559.75 c 0
 429.611 448.75 444.83 243.031 444.283 137.875 c 1
 444.33 147.984 477.721 118.141 477.377 91.6719 c 0
 477.221 79.4844 482.564 33.1094 442.611 15.1875 c 0
 418.721 4.46875 393.002 15.2188 391.393 15.0781 c 0
 351.768 11.8906 327.252 76.9375 326.455 64.3438 c 0
 324.518 33.4219 219.064 3.9375 150.393 12.1719 c 0
 101.674 18.0312 86.377 59.3438 70.0957 79.0938 c 0
 50.7988 102.484 37.2207 121.344 25.8926 152.438 c 0
 12.9863 187.844 9.29883 214.828 10.3926 251.734 c 0
 12.127 311.188 17.0801 353.797 44.9707 410.094 c 0
 71.0488 462.719 97.9238 496.406 147.408 529.734 c 0
 172.408 546.562 196.346 554.625 226.252 555.969 c 0
 261.83 557.578 283.018 545.453 306.955 537.828 c 0
 313.648 535.695 318.283 534.173 321.368 532.85 c 1
 322.893 539.404 324.601 555.453 326.248 559.656 c 1
 317.73 557.146 303.192 555.857 301.814 556.75 c 0
 284.236 568.172 261.314 562.906 246.627 583.219 c 0
 227.58 609.516 234.814 630.328 252.58 650.594 c 0
 273.111 674.031 300.033 676.906 318.877 677.297 c 0
 319.746 677.314 320.698 676.329 321.708 676.337 c 1
318.466 722.613 m 0
 318.427 722.363 318.4 722.131 318.393 721.922 c 1
 318.417 722.58 318.439 722.787 318.466 722.613 c 0
EndSplineSet
EndChar
